#N canvas 524 150 1395 975 10;
#X obj 322 295 pack s s;
#X obj 322 351 soundfiler;
#X msg 322 323 read -resize \$1 \$2;
#X obj 372 48 loadbang;
#X floatatom 191 114 5 0 0 0 - - -;
#X floatatom 547 532 5 0 0 0 - - -;
#X msg 321 155 1;
#X msg 358 154 2;
#X msg 397 152 3;
#X obj 325 238 t f b;
#X obj 175 249 f;
#X obj 106 54 tgl 15 0 empty empty empty 17 7 0 10 -262144 -1 -1 1
1;
#X obj 108 127 sel 1 0;
#X msg 125 296 0;
#X obj 192 187 spigot;
#X obj 866 311 pack s s;
#X obj 866 367 soundfiler;
#X msg 866 339 read -resize \$1 \$2;
#X floatatom 946 399 5 0 0 0 - - -;
#X floatatom 711 171 5 0 0 0 - - -;
#X floatatom 922 444 5 0 0 0 - - -;
#X msg 866 208 1;
#X msg 903 207 2;
#X msg 942 205 3;
#X obj 984 215 bng 15 250 50 0 empty empty empty 17 7 0 10 -262144
-1 -1;
#X obj 869 254 t f b;
#X obj 700 245 f;
#X obj 652 123 tgl 15 0 empty empty empty 17 7 0 10 -262144 -1 -1 1
1;
#X obj 652 143 sel 1 0;
#X msg 643 205 0;
#X obj 736 203 spigot;
#X obj 193 71 loadbang;
#X msg 193 91 0.1;
#X obj 544 470 loadbang;
#X msg 547 496 0.8;
#X obj 719 88 loadbang;
#X msg 719 108 0.1;
#X obj 94 24 inlet;
#X msg 431 157 4;
#X obj 452 416 t b f;
#X obj 452 386 /;
#X msg 467 361 22050;
#X obj 459 471 / 1;
#X msg 452 441 1;
#X obj 466 324 loadbang;
#X obj 351 187 i;
#X obj 427 123 delay 100;
#X msg 982 187 4;
#X obj 851 758 *~;
#X obj 939 763 *~;
#X obj 628 700 line~;
#X obj 609 519 bng 15 250 50 0 empty empty empty 17 7 0 10 -262144
-1 -1;
#X obj 632 603 delay 200;
#X obj 633 567 random 200;
#X obj 603 545 t b b;
#X msg 627 662 1 \$1;
#X msg 685 655 0 \$1;
#X obj 611 628 i;
#X obj 673 630 i;
#X obj 744 699 line~;
#X obj 725 518 bng 15 250 50 0 empty empty empty 17 7 0 10 -262144
-1 -1;
#X obj 748 602 delay 200;
#X obj 749 566 random 200;
#X obj 719 544 t b b;
#X msg 743 661 1 \$1;
#X msg 801 654 0 \$1;
#X obj 727 627 i;
#X obj 789 629 i;
#X obj 575 386 metro 2000;
#X obj 607 426 random 5000;
#X obj 657 394 metro 2000;
#X obj 689 434 random 5000;
#X obj 958 812 *~ 0.5;
#X obj 879 816 *~ 0.5;
#X obj 680 931 outlet~;
#X obj 516 267 symbol ambient1_\$1;
#X obj 517 41 table ambient1_\$1;
#X obj 524 63 table ambient2_\$1;
#X obj 1060 283 symbol ambient2_\$1;
#X obj 344 117 \$1;
#X obj 922 53 loadbang;
#X obj 894 122 \$1;
#X floatatom 299 408 5 0 0 0 - - -;
#X floatatom 201 300 5 0 0 0 - - -;
#X obj 377 95 bng 15 250 50 0 empty empty empty 17 7 0 10 -262144 -1
-1;
#X obj 159 195 bng 15 250 50 0 empty empty empty 17 7 0 10 -262144
-1 -1;
#X obj 108 85 t f f b;
#X msg 295 265 ../assets/wavfiles/ambient_\$1.wav;
#X msg 836 286 ../assets/wavfiles/ambient_\$1.wav;
#X msg 465 198 6;
#X floatatom 164 300 5 0 0 0 - - -;
#X obj 368 440 inlet;
#X obj 347 589 cos_crossfading ambient1_\$1;
#X obj 854 546 cos_crossfading ambient2_\$1;
#X obj 840 409 * 2;
#X obj 864 912 outlet~;
#X obj 972 920 outlet~;
#X connect 0 0 2 0;
#X connect 1 0 40 0;
#X connect 1 0 82 0;
#X connect 1 0 92 1;
#X connect 2 0 1 0;
#X connect 3 0 79 0;
#X connect 4 0 14 0;
#X connect 5 0 92 2;
#X connect 6 0 45 1;
#X connect 7 0 45 1;
#X connect 8 0 45 1;
#X connect 9 0 87 0;
#X connect 9 1 75 0;
#X connect 10 0 83 0;
#X connect 10 0 90 0;
#X connect 11 0 86 0;
#X connect 12 0 10 0;
#X connect 12 0 45 0;
#X connect 12 1 13 0;
#X connect 13 0 92 0;
#X connect 14 0 10 0;
#X connect 15 0 17 0;
#X connect 16 0 18 0;
#X connect 16 0 93 1;
#X connect 17 0 16 0;
#X connect 19 0 26 1;
#X connect 19 0 30 0;
#X connect 20 0 93 2;
#X connect 21 0 25 0;
#X connect 22 0 25 0;
#X connect 23 0 25 0;
#X connect 24 0 25 0;
#X connect 25 0 88 0;
#X connect 25 1 78 0;
#X connect 26 0 94 0;
#X connect 27 0 28 0;
#X connect 27 0 30 1;
#X connect 27 0 68 0;
#X connect 27 0 70 0;
#X connect 28 0 26 0;
#X connect 28 1 29 0;
#X connect 29 0 93 0;
#X connect 30 0 26 0;
#X connect 31 0 32 0;
#X connect 32 0 4 0;
#X connect 33 0 34 0;
#X connect 34 0 5 0;
#X connect 34 0 20 0;
#X connect 35 0 36 0;
#X connect 36 0 19 0;
#X connect 37 0 11 0;
#X connect 37 0 27 0;
#X connect 38 0 45 1;
#X connect 39 0 43 0;
#X connect 39 1 42 1;
#X connect 40 0 39 0;
#X connect 41 0 40 1;
#X connect 42 0 10 1;
#X connect 42 0 14 0;
#X connect 43 0 42 0;
#X connect 44 0 41 0;
#X connect 46 0 38 0;
#X connect 47 0 25 0;
#X connect 48 0 73 0;
#X connect 49 0 72 0;
#X connect 50 0 49 1;
#X connect 51 0 54 0;
#X connect 52 0 58 0;
#X connect 53 0 52 1;
#X connect 53 0 57 1;
#X connect 53 0 58 1;
#X connect 54 0 52 0;
#X connect 54 0 57 0;
#X connect 54 1 53 0;
#X connect 55 0 50 0;
#X connect 56 0 50 0;
#X connect 57 0 55 0;
#X connect 58 0 56 0;
#X connect 59 0 48 1;
#X connect 60 0 63 0;
#X connect 61 0 67 0;
#X connect 62 0 61 1;
#X connect 62 0 66 1;
#X connect 62 0 67 1;
#X connect 63 0 61 0;
#X connect 63 0 66 0;
#X connect 63 1 62 0;
#X connect 64 0 59 0;
#X connect 65 0 59 0;
#X connect 66 0 64 0;
#X connect 67 0 65 0;
#X connect 68 0 69 0;
#X connect 68 0 51 0;
#X connect 69 0 68 1;
#X connect 70 0 71 0;
#X connect 71 0 70 1;
#X connect 71 0 60 0;
#X connect 72 0 96 0;
#X connect 73 0 95 0;
#X connect 75 0 0 1;
#X connect 78 0 15 1;
#X connect 79 0 9 0;
#X connect 80 0 81 0;
#X connect 81 0 25 0;
#X connect 84 0 79 0;
#X connect 85 0 10 0;
#X connect 86 0 12 0;
#X connect 86 1 14 1;
#X connect 86 2 79 0;
#X connect 87 0 0 0;
#X connect 88 0 15 0;
#X connect 89 0 9 0;
#X connect 90 0 92 0;
#X connect 92 0 74 0;
#X connect 93 0 48 0;
#X connect 93 0 49 0;
#X connect 94 0 93 0;
