#N canvas 673 322 2090 1138 10;
#X obj 20 -31 loadbang;
#X floatatom 102 26 5 0 0 0 - - -;
#X obj 415 415 dac~;
#X floatatom 109 444 5 0 0 0 - - -;
#X floatatom 105 493 5 0 0 0 - - -;
#X obj 104 520 phasor~;
#X obj 109 467 / 240;
#X obj 93 768 threshold~ 0.999 10 10 10;
#X obj 93 794 bng 15 250 50 0 empty empty empty 17 7 0 10 -262144 -1
-1;
#X obj 90 722 wrap~;
#X msg 177 478 0;
#X obj 93 820 send toOF;
#X msg 102 -3 400;
#X obj 447 303 *~;
#X obj 673 241 vline~;
#X msg 623 105 1 5 \, 0 400 10;
#X obj 560 33 r fromOF;
#X obj 514 87 bng 15 250 50 0 empty empty empty 17 7 0 10 -262144 -1
-1;
#X obj 634 334 ys.snapshot;
#X floatatom 634 356 5 0 0 0 - - -;
#X obj 359 229 osc~ 441;
#X obj 101 666 *~ 2;
#X connect 0 0 12 0;
#X connect 1 0 3 0;
#X connect 3 0 6 0;
#X connect 4 0 5 0;
#X connect 5 0 21 0;
#X connect 6 0 4 0;
#X connect 7 0 8 0;
#X connect 8 0 11 0;
#X connect 9 0 7 0;
#X connect 10 0 5 0;
#X connect 12 0 1 0;
#X connect 13 0 2 1;
#X connect 13 0 2 0;
#X connect 14 0 13 1;
#X connect 14 0 18 0;
#X connect 15 0 14 0;
#X connect 16 0 15 0;
#X connect 17 0 15 0;
#X connect 18 0 19 0;
#X connect 20 0 13 0;
#X connect 21 0 9 0;
