#N canvas 1162 139 1097 890 10;
#X obj 69 36 loadbang;
#X obj 157 15 inlet;
#X obj 78 268 / 22050;
#X obj 96 300 * 1000;
#X obj 120 356 f;
#X obj 191 577 *~;
#X obj 179 441 * 1;
#X floatatom 251 416 5 0 0 0 - - -;
#X obj 115 204 samplerate~;
#X floatatom 115 226 5 0 0 0 - - -;
#X obj 115 179 bng 15 250 50 0 empty empty empty 17 7 0 10 -262144
-1 -1;
#X obj 114 155 loadbang;
#X obj 250 387 inlet;
#X obj 192 534 line~;
#X msg 175 496 1 \$1;
#X obj 178 463 t f b;
#X msg 227 497 0;
#X obj 167 46 bng 15 250 50 0 empty empty empty 17 7 0 10 -262144 -1
-1;
#X obj 193 776 outlet~;
#X obj 167 79 t b b b;
#X floatatom 425 116 5 0 0 0 - - -;
#X obj 426 143 + 1;
#X floatatom 426 179 5 0 0 0 - - -;
#X obj 410 241 int;
#X obj 406 178 bng 15 250 50 0 empty empty empty 17 7 0 10 -262144
-1 -1;
#X obj 429 207 % 4;
#X obj 273 541 f;
#X floatatom 410 263 5 0 0 0 - - -;
#X obj 190 614 tabread~ bassdrums\$1_1;
#X obj 603 284 bng 15 250 50 0 empty empty empty 17 7 0 10 -262144
-1 -1;
#X floatatom 597 336 5 0 0 0 - - -;
#X obj 597 314 soundfileloader bassdrums \$1 1;
#X obj 618 452 bng 15 250 50 0 empty empty empty 17 7 0 10 -262144
-1 -1;
#X floatatom 612 504 5 0 0 0 - - -;
#X obj 810 281 bng 15 250 50 0 empty empty empty 17 7 0 10 -262144
-1 -1;
#X floatatom 804 333 5 0 0 0 - - -;
#X obj 826 449 bng 15 250 50 0 empty empty empty 17 7 0 10 -262144
-1 -1;
#X floatatom 820 501 5 0 0 0 - - -;
#X obj 211 257 t b b b;
#X msg 711 339 bassdrums2_1;
#X msg 943 334 bassdrums2_2;
#X msg 721 504 bassdrums2_3;
#X msg 952 505 bassdrums2_4;
#X obj 804 311 soundfileloader bassdrums \$1 2;
#X obj 612 482 soundfileloader bassdrums \$1 3;
#X obj 820 479 soundfileloader bassdrums \$1 4;
#X obj 517 290 sel 1 2 3 4;
#X obj 812 362 i;
#X obj 598 530 i;
#X obj 821 525 i;
#X obj 599 368 i;
#X obj 479 211 t f f;
#X obj 394 525 pack f \$1;
#X msg 390 561 set bassdrums\$2_\$1;
#X msg 390 583 bassdrums2_3;
#X obj 261 444 bng 15 250 50 0 empty empty empty 17 7 0 10 -262144
-1 -1;
#X floatatom 599 390 5 0 0 0 - - -;
#X floatatom 528 235 5 0 0 0 - - -;
#X floatatom 812 384 5 0 0 0 - - -;
#X floatatom 598 552 5 0 0 0 - - -;
#X floatatom 821 547 5 0 0 0 - - -;
#X obj 593 261 loadbang;
#X obj 796 248 loadbang;
#X obj 615 421 loadbang;
#X obj 836 425 loadbang;
#X obj 101 599 ys.snapshot;
#X floatatom 101 621 5 0 0 0 - - -;
#N canvas 950 131 450 300 envelope 0;
#X msg 194 219 1 \$1;
#X msg 150 218 0 \$1;
#X obj 150 146 t b b;
#X obj 187 46 inlet attack;
#X obj 289 45 inlet decay;
#X obj 77 46 inlet trigger;
#X obj 187 87 t f f;
#X obj 150 196 f 50;
#X obj 194 197 f 50;
#X text 235 199 <-- default values 50 ms;
#X text 236 88 <-- set floats nicely;
#X obj 150 173 del 50;
#X text 151 9 envelope subpatch;
#X obj 175 243 line~;
#X obj 175 267 outlet~;
#X connect 0 0 13 0;
#X connect 1 0 13 0;
#X connect 2 0 11 0;
#X connect 2 1 8 0;
#X connect 3 0 6 0;
#X connect 4 0 7 1;
#X connect 5 0 2 0;
#X connect 6 0 11 1;
#X connect 6 1 8 1;
#X connect 7 0 1 0;
#X connect 8 0 0 0;
#X connect 11 0 7 0;
#X connect 13 0 14 0;
#X restore -23 431 pd envelope;
#X floatatom -5 393 5 0 0 0 - - -;
#X floatatom 35 406 5 0 0 0 - - -;
#X obj -18 339 loadbang;
#X obj 182 685 *~;
#X msg -10 361 10;
#X floatatom 96 322 5 0 0 0 - - -;
#X connect 1 0 17 0;
#X connect 2 0 3 0;
#X connect 3 0 4 1;
#X connect 3 0 73 0;
#X connect 4 0 6 0;
#X connect 5 0 28 0;
#X connect 6 0 15 0;
#X connect 7 0 6 1;
#X connect 8 0 9 0;
#X connect 9 0 2 1;
#X connect 10 0 8 0;
#X connect 11 0 10 0;
#X connect 12 0 7 0;
#X connect 12 0 55 0;
#X connect 13 0 5 0;
#X connect 14 0 13 0;
#X connect 15 0 14 0;
#X connect 15 1 16 0;
#X connect 16 0 13 0;
#X connect 17 0 19 0;
#X connect 19 1 38 0;
#X connect 19 2 24 0;
#X connect 20 0 21 0;
#X connect 21 0 22 0;
#X connect 22 0 25 0;
#X connect 22 0 51 0;
#X connect 23 0 20 0;
#X connect 23 0 27 0;
#X connect 24 0 23 0;
#X connect 25 0 23 1;
#X connect 26 0 5 1;
#X connect 28 0 71 0;
#X connect 29 0 31 0;
#X connect 30 0 50 1;
#X connect 31 0 30 0;
#X connect 31 1 39 0;
#X connect 32 0 44 0;
#X connect 33 0 48 1;
#X connect 34 0 43 0;
#X connect 35 0 47 1;
#X connect 36 0 45 0;
#X connect 37 0 49 1;
#X connect 38 0 4 0;
#X connect 38 1 26 0;
#X connect 38 2 67 0;
#X connect 43 0 35 0;
#X connect 43 1 40 0;
#X connect 44 0 33 0;
#X connect 44 1 41 0;
#X connect 45 0 37 0;
#X connect 45 1 42 0;
#X connect 46 0 50 0;
#X connect 46 1 47 0;
#X connect 46 2 48 0;
#X connect 46 3 49 0;
#X connect 47 0 2 0;
#X connect 47 0 58 0;
#X connect 47 0 26 1;
#X connect 48 0 2 0;
#X connect 48 0 59 0;
#X connect 48 0 26 1;
#X connect 49 0 2 0;
#X connect 49 0 60 0;
#X connect 49 0 26 1;
#X connect 50 0 2 0;
#X connect 50 0 56 0;
#X connect 50 0 26 1;
#X connect 51 0 52 0;
#X connect 51 1 46 0;
#X connect 51 1 57 0;
#X connect 52 0 53 0;
#X connect 53 0 54 0;
#X connect 53 0 28 0;
#X connect 61 0 29 0;
#X connect 62 0 34 0;
#X connect 63 0 32 0;
#X connect 64 0 36 0;
#X connect 65 0 66 0;
#X connect 67 0 71 1;
#X connect 68 0 67 1;
#X connect 69 0 67 2;
#X connect 70 0 72 0;
#X connect 71 0 18 0;
#X connect 72 0 68 0;
#X connect 73 0 69 0;
