#N canvas 923 758 1141 774 10;
#X obj 181 478 hip~ 5;
#X obj 181 407 *~ 1000;
#X obj 181 541 *~;
#X obj 348 475 hip~ 5;
#X obj 349 407 *~ 1000;
#X obj 348 542 *~;
#X obj 347 622 outlet~;
#X obj 407 316 inlet;
#X obj 461 496 inlet;
#X obj 348 592 *~ 0;
#X obj 821 282 tgl 15 0 empty empty empty 17 7 0 10 -262144 -1 -1 0
1;
#X obj 821 302 metro 10;
#X obj 821 324 snapshot~;
#X floatatom 825 359 10 0 0 0 - - -;
#X obj 830 397 hsl 128 15 0 1 0 0 empty empty empty -2 -8 0 10 -262144
-1 -1 0 1;
#X obj 181 440 tabread~ \$1;
#X obj 349 437 tabread~ \$1;
#X obj 189 129 phasor~;
#X msg 276 133 0.5;
#X msg 309 133 2.5;
#X msg 345 132 1;
#X floatatom 377 144 5 0 0 0 - - -;
#X obj 192 87 inlet;
#X obj 87 476 tabread~ cos1;
#X obj 89 430 /~ 2;
#X obj 87 456 *~ 256;
#X obj 445 128 phasor~;
#X obj 329 57 bng 15 250 50 0 empty empty empty 17 7 0 10 -262144 -1
-1;
#X msg 321 90 1;
#X msg 364 90 0.5;
#X obj 330 29 loadbang;
#X obj 262 475 tabread~ cos1;
#X obj 264 429 /~ 2;
#X obj 262 455 *~ 256;
#X obj 178 277 *~ 0.5;
#X obj 311 269 *~ 0.5;
#X connect 0 0 2 0;
#X connect 1 0 15 0;
#X connect 2 0 9 0;
#X connect 3 0 5 0;
#X connect 4 0 16 0;
#X connect 5 0 9 0;
#X connect 7 0 1 1;
#X connect 7 0 4 1;
#X connect 8 0 9 1;
#X connect 9 0 6 0;
#X connect 10 0 11 0;
#X connect 11 0 12 0;
#X connect 12 0 13 0;
#X connect 13 0 14 0;
#X connect 15 0 0 0;
#X connect 16 0 3 0;
#X connect 17 0 24 0;
#X connect 17 0 34 0;
#X connect 18 0 34 1;
#X connect 18 0 35 1;
#X connect 19 0 34 1;
#X connect 19 0 35 1;
#X connect 20 0 34 1;
#X connect 20 0 35 1;
#X connect 21 0 34 1;
#X connect 21 0 35 1;
#X connect 22 0 17 0;
#X connect 22 0 26 0;
#X connect 23 0 2 1;
#X connect 24 0 25 0;
#X connect 25 0 23 0;
#X connect 26 0 35 0;
#X connect 27 0 28 0;
#X connect 27 0 29 0;
#X connect 28 0 17 1;
#X connect 29 0 26 1;
#X connect 30 0 27 0;
#X connect 31 0 5 1;
#X connect 32 0 33 0;
#X connect 33 0 31 0;
#X connect 34 0 1 0;
#X connect 35 0 32 0;
#X connect 35 0 4 0;
