#N canvas 569 275 1056 582 10;
#X obj 168 15 r fromOF;
#X obj 168 36 route list;
#X obj 28 147 print kill;
#X obj 109 147 print run;
#X obj 174 148 print jump;
#X obj 248 146 print hit;
#X obj 167 63 route crab_boss_kill crab_boss_run crab_boss_jump crab_boss_hit
crab_boss_on;
#X obj 302 405 *~ 0.5;
#X obj 285 472 dac~;
#X obj 311 353 sounds_pitch crabjump;
#X obj 335 189 t b;
#X obj 336 316 bng 15 250 50 0 empty empty empty 17 7 0 10 -262144
-1 -1;
#X obj 433 229 random 40;
#X obj 441 269 + 80;
#X obj 422 298 * 0.01;
#X floatatom 414 333 5 0 0 0 - - -;
#X obj 336 214 t b b;
#X obj 367 250 loadbang;
#X msg 359 292 1;
#X obj 340 163 bng 15 250 50 0 empty empty empty 17 7 0 10 -262144
-1 -1;
#X obj 335 189 t b;
#X obj 336 316 bng 15 250 50 0 empty empty empty 17 7 0 10 -262144
-1 -1;
#X obj 336 214 t b b;
#X obj 340 163 bng 15 250 50 0 empty empty empty 17 7 0 10 -262144
-1 -1;
#X obj 532 475 dac~;
#X obj 521 193 t b;
#X obj 522 320 bng 15 250 50 0 empty empty empty 17 7 0 10 -262144
-1 -1;
#X obj 617 247 random 40;
#X obj 624 276 + 80;
#X obj 624 298 * 0.01;
#X floatatom 626 328 5 0 0 0 - - -;
#X obj 522 218 t b b;
#X obj 553 272 loadbang;
#X msg 553 294 1;
#X obj 526 167 bng 15 250 50 0 empty empty empty 17 7 0 10 -262144
-1 -1;
#X obj 504 370 sounds_pitch crabhit;
#X obj 719 473 dac~;
#X obj 708 191 t b;
#X obj 709 318 bng 15 250 50 0 empty empty empty 17 7 0 10 -262144
-1 -1;
#X obj 804 245 random 40;
#X obj 811 274 + 80;
#X obj 811 296 * 0.01;
#X floatatom 813 326 5 0 0 0 - - -;
#X obj 709 216 t b b;
#X obj 740 270 loadbang;
#X msg 740 292 1;
#X obj 713 165 bng 15 250 50 0 empty empty empty 17 7 0 10 -262144
-1 -1;
#X obj 691 368 sounds_pitch crabwalk;
#X obj 881 183 sounds_pitch crabkill;
#X obj 883 157 bng 15 250 50 0 empty empty empty 17 7 0 10 -262144
-1 -1;
#X obj 586 447 throw~ heavydelay;
#X obj 888 262 dac~;
#X obj 361 449 throw~ mediumdelay;
#X obj 99 235 bng 15 250 50 0 empty empty empty 17 7 0 10 -262144 -1
-1;
#X obj 104 340 dac~;
#X obj 97 261 sounds_pitch crabon;
#X obj 104 295 *~ 0.5;
#X obj 525 408 *~ 0.7;
#X obj 712 406 *~ 0.7;
#X obj 888 217 *~ 0.5;
#X connect 0 0 1 0;
#X connect 1 0 6 0;
#X connect 6 0 2 0;
#X connect 6 0 49 0;
#X connect 6 1 3 0;
#X connect 6 1 46 0;
#X connect 6 2 4 0;
#X connect 6 2 10 0;
#X connect 6 3 5 0;
#X connect 6 3 34 0;
#X connect 6 4 53 0;
#X connect 7 0 8 0;
#X connect 7 0 8 1;
#X connect 7 0 52 0;
#X connect 9 0 7 0;
#X connect 10 0 16 0;
#X connect 11 0 9 0;
#X connect 12 0 13 0;
#X connect 13 0 14 0;
#X connect 14 0 15 0;
#X connect 15 0 9 1;
#X connect 16 0 11 0;
#X connect 16 1 12 0;
#X connect 17 0 18 0;
#X connect 18 0 15 0;
#X connect 19 0 10 0;
#X connect 20 0 22 0;
#X connect 22 0 21 0;
#X connect 23 0 20 0;
#X connect 25 0 31 0;
#X connect 26 0 35 0;
#X connect 27 0 28 0;
#X connect 28 0 29 0;
#X connect 29 0 30 0;
#X connect 30 0 35 1;
#X connect 31 0 26 0;
#X connect 31 1 27 0;
#X connect 32 0 33 0;
#X connect 33 0 30 0;
#X connect 34 0 25 0;
#X connect 35 0 57 0;
#X connect 37 0 43 0;
#X connect 38 0 47 0;
#X connect 39 0 40 0;
#X connect 40 0 41 0;
#X connect 41 0 42 0;
#X connect 42 0 47 1;
#X connect 43 0 38 0;
#X connect 43 1 39 0;
#X connect 44 0 45 0;
#X connect 45 0 42 0;
#X connect 46 0 37 0;
#X connect 47 0 58 0;
#X connect 48 0 59 0;
#X connect 49 0 48 0;
#X connect 53 0 55 0;
#X connect 55 0 56 0;
#X connect 56 0 54 0;
#X connect 56 0 54 1;
#X connect 57 0 24 0;
#X connect 57 0 24 1;
#X connect 57 0 52 0;
#X connect 58 0 36 0;
#X connect 58 0 36 1;
#X connect 58 0 50 0;
#X connect 59 0 51 0;
#X connect 59 0 51 1;
