#N canvas 956 419 1081 624 10;
#X obj 404 241 f;
#X obj 391 191 bng 15 250 50 0 empty empty empty 17 7 0 10 -262144
-1 -1;
#X obj 333 -242 metro 5;
#X obj 333 -163 sel 0;
#X obj 325 -266 tgl 15 0 empty empty empty 17 7 0 10 -262144 -1 -1
0 1;
#X obj 497 -243 metro 5;
#X obj 497 -164 sel 0;
#X obj 489 -267 tgl 15 0 empty empty empty 17 7 0 10 -262144 -1 -1
0 1;
#X obj 553 -167 * 0.01;
#X obj 580 -191 random 100;
#X text 396 -264 randomizer;
#N canvas 0 22 450 300 (subpatch) 0;
#X array notes_\$1 16 float 3;
#A 0 0.82 0.71 0.94 0.77 0.31 0.86 0.02 0.17 0.83 0.5 0.95 0.34 0.43
0.4 0.64 0.04;
#X coords 0 1 16 0 200 140 1 0 0;
#X restore 680 -259 graph;
#X floatatom 260 -29 5 0 0 0 - - -;
#X obj 150 -215 tgl 15 0 empty empty empty 17 7 0 10 -262144 -1 -1
0 1;
#X text 171 -216 start/stop;
#X obj 416 171 tabread notes_\$1;
#X obj 422 15 tabread vol_\$1;
#X obj 365 -115 tabwrite notes_\$1;
#X obj 526 -139 tabwrite vol_\$1;
#X obj 143 -259 inlet;
#X obj 301 -296 inlet;
#X obj 493 -292 inlet;
#X obj 188 -68 spigot;
#X obj 239 -227 inlet;
#X msg 337 -87 16;
#X floatatom 373 -89 5 0 0 0 - - -;
#N canvas 0 22 450 300 (subpatch) 0;
#X array vol_\$1 16 float 3;
#A 0 0.89 0.79 0.5 0.76 0.6 0.18 0.1 0.79 0.42 0.23 0.72 0.71 0.91
0.11 0.72 0.93;
#X coords 0 1 16 0 200 140 1 0 0;
#X restore 894 -257 graph;
#N canvas 0 22 450 300 (subpatch) 0;
#X array onoff_\$1 16 float 3;
#A 0 0 0 0 0 0 1 1 0 1 1 1 1 1 1 1 1;
#X coords 0 1 15 -1 200 140 1;
#X restore 1100 -255 graph;
#X obj 521 -98 metro 5;
#X obj 521 -19 sel 0;
#X obj 497 -107 tgl 15 0 empty empty empty 17 7 0 10 -262144 -1 -1
0 1;
#X obj 550 6 tabwrite onoff_\$1;
#X obj 604 -46 random 2;
#X obj 705 -58 inlet;
#X obj 414 -161 random 100;
#X obj 396 -140 * 0.01;
#X obj 370 -190 ys.counter \$2;
#X obj 532 -222 ys.counter \$2;
#X obj 556 -77 ys.counter \$2;
#X obj 402 317 ys.\$1;
#X obj 441 66 * 127;
#X obj 349 360 outlet~;
#X obj 415 194 t b f;
#X obj 171 -105 r bangs\$3;
#X obj 400 -282 loadbang;
#X obj 261 -53 ys.counter \$2;
#X obj 524 103 outlet;
#X obj 720 5 + 1;
#X obj 679 -13 bng 15 250 50 0 empty empty empty 17 7 0 10 -262144
-1 -1;
#X obj 679 5 float;
#X floatatom 679 25 5 0 0 0 - - -;
#X obj 679 42 % \$2;
#X floatatom 683 75 5 0 0 0 - - -;
#X floatatom 458 269 5 0 0 0 - - -;
#X connect 0 0 39 0;
#X connect 0 0 53 0;
#X connect 1 0 0 0;
#X connect 2 0 34 0;
#X connect 2 0 36 0;
#X connect 3 0 4 0;
#X connect 4 0 2 0;
#X connect 5 0 9 0;
#X connect 5 0 37 0;
#X connect 6 0 7 0;
#X connect 7 0 5 0;
#X connect 8 0 18 0;
#X connect 9 0 8 0;
#X connect 12 0 46 0;
#X connect 12 0 16 0;
#X connect 13 0 22 1;
#X connect 15 0 42 0;
#X connect 16 0 40 0;
#X connect 19 0 13 0;
#X connect 20 0 4 0;
#X connect 21 0 7 0;
#X connect 21 0 30 0;
#X connect 22 0 45 0;
#X connect 23 0 45 0;
#X connect 24 0 45 1;
#X connect 25 0 45 1;
#X connect 28 0 32 0;
#X connect 28 0 38 0;
#X connect 29 0 30 0;
#X connect 30 0 28 0;
#X connect 32 0 31 0;
#X connect 33 0 48 0;
#X connect 34 0 35 0;
#X connect 35 0 17 0;
#X connect 36 0 3 0;
#X connect 36 0 17 1;
#X connect 37 0 6 0;
#X connect 37 0 18 1;
#X connect 38 0 29 0;
#X connect 38 0 31 1;
#X connect 39 0 41 0;
#X connect 40 0 39 1;
#X connect 42 0 0 0;
#X connect 42 1 0 1;
#X connect 43 0 22 0;
#X connect 44 0 4 0;
#X connect 44 0 7 0;
#X connect 45 0 12 0;
#X connect 47 0 49 1;
#X connect 48 0 49 0;
#X connect 49 0 50 0;
#X connect 49 0 47 0;
#X connect 50 0 51 0;
#X connect 51 0 52 0;
#X connect 52 0 15 0;
