#N canvas 830 406 1223 863 10;
#N canvas 497 219 1566 1018 scaling 0;
#X obj 163 811 mtof;
#X floatatom 182 563 5 0 0 0 - - -;
#X obj 182 438 tabread modes;
#X floatatom 243 200 5 0 0 0 - - -;
#X floatatom 193 702 5 0 0 0 - - -;
#X floatatom 185 418 5 0 0 0 - - -;
#X obj 433 465 tgl 15 0 empty empty empty 17 7 0 10 -262144 -1 -1 0
1;
#X obj 342 622 tgl 15 0 empty empty empty 17 7 0 10 -262144 -1 -1 0
1;
#X obj 192 626 spigot;
#X obj 320 463 tgl 15 0 empty empty empty 17 7 0 10 -262144 -1 -1 1
1;
#X obj 371 464 +;
#X obj 364 548 == 2;
#X obj 264 634 spigot;
#X obj 333 649 spigot;
#X obj 192 668 + 48;
#X obj 262 668 + 60;
#X obj 317 672 + 72;
#X obj 186 391 % 7;
#X obj 315 441 < 7;
#X obj 357 440 > 6;
#X obj 393 441 < 14;
#X obj 433 439 > 13;
#X obj 415 286 tgl 15 0 empty empty empty 17 7 0 10 -262144 -1 -1 1
1;
#X obj 416 257 < 21;
#X msg 254 596 84;
#X obj 357 291 tgl 15 0 empty empty empty 17 7 0 10 -262144 -1 -1 0
1;
#X obj 356 261 > 20;
#X obj 319 527 sel 1;
#X obj 320 574 bng 15 250 50 0 empty empty empty 17 7 0 10 -262144
-1 -1;
#X obj 322 551 t b;
#X obj 274 318 spigot;
#X obj 250 127 * 21;
#X floatatom 250 149 5 0 0 0 - - -;
#X obj 245 177 i;
#X obj 242 20 inlet;
#X floatatom 341 73 5 0 0 0 - - -;
#X obj 395 78 loadbang 0.3;
#X obj 260 228 t f f;
#X obj 256 349 t b f f;
#X obj 199 919 outlet~;
#X obj 189 865 line~;
#X msg 188 843 \$1 100;
#X obj 195 784 + 0;
#X obj 287 728 r offset;
#X floatatom 287 750 5 0 0 0 - - -;
#X floatatom 233 809 5 0 0 0 - - -;
#X connect 0 0 41 0;
#X connect 1 0 8 0;
#X connect 1 0 12 0;
#X connect 1 0 13 0;
#X connect 2 0 1 0;
#X connect 3 0 37 0;
#X connect 4 0 42 0;
#X connect 5 0 2 0;
#X connect 6 0 13 1;
#X connect 7 0 12 1;
#X connect 8 0 14 0;
#X connect 9 0 8 1;
#X connect 10 0 11 0;
#X connect 11 0 7 0;
#X connect 12 0 15 0;
#X connect 13 0 16 0;
#X connect 14 0 4 0;
#X connect 15 0 4 0;
#X connect 16 0 4 0;
#X connect 17 0 5 0;
#X connect 18 0 9 0;
#X connect 19 0 10 0;
#X connect 20 0 10 1;
#X connect 21 0 6 0;
#X connect 22 0 30 1;
#X connect 23 0 22 0;
#X connect 24 0 4 0;
#X connect 25 0 27 0;
#X connect 26 0 25 0;
#X connect 27 0 29 0;
#X connect 28 0 24 0;
#X connect 29 0 28 0;
#X connect 30 0 38 0;
#X connect 31 0 32 0;
#X connect 32 0 33 0;
#X connect 33 0 3 0;
#X connect 34 0 31 0;
#X connect 35 0 31 0;
#X connect 36 0 31 0;
#X connect 37 0 30 0;
#X connect 37 1 23 0;
#X connect 37 1 26 0;
#X connect 38 0 1 0;
#X connect 38 1 17 0;
#X connect 38 2 18 0;
#X connect 38 2 19 0;
#X connect 38 2 20 0;
#X connect 38 2 21 0;
#X connect 40 0 39 0;
#X connect 41 0 40 0;
#X connect 42 0 45 0;
#X connect 42 0 0 0;
#X connect 43 0 42 1;
#X connect 43 0 44 0;
#X restore 393 409 pd scaling;
#N canvas 1028 349 1091 753 volumescaling 0;
#X obj 76 259 -;
#X msg 73 223 1;
#X floatatom 76 284 5 0 0 0 - - -;
#X obj 93 28 inlet;
#X obj 58 383 sig~;
#X obj 55 415 outlet~;
#X floatatom 91 156 5 0 0 0 - - -;
#X obj 91 189 t f f;
#X msg 139 74 0.3;
#X msg 176 76 0.7;
#X obj 69 343 t f;
#X connect 0 0 2 0;
#X connect 1 0 0 0;
#X connect 2 0 10 0;
#X connect 3 0 6 0;
#X connect 4 0 5 0;
#X connect 6 0 7 0;
#X connect 7 0 1 0;
#X connect 7 1 0 1;
#X connect 8 0 6 0;
#X connect 9 0 6 0;
#X connect 10 0 4 0;
#X restore 149 140 pd volumescaling;
#X obj 285 236 inlet;
#X obj 555 370 inlet;
#X obj 731 374 inlet;
#X obj 488 411 f;
#X obj 557 411 f;
#X msg 557 436 0 \$1;
#X floatatom 655 325 5 0 0 0 - - -;
#X text 587 307 attack;
#X text 663 306 decay;
#X msg 488 440 1 \$1;
#X obj 414 559 phasor~;
#X obj 499 690 *~;
#X floatatom 761 772 5 0 0 0 - - -;
#X obj 836 769 tgl 15 0 empty empty empty 17 7 0 10 -262144 -1 -1 1
1;
#X obj 835 712 loadbang;
#X msg 837 743 1;
#X obj 764 722 loadbang;
#X obj 392 617 *~ 0.3;
#X obj 342 618 *~ 0.3;
#X msg 145 112 0.5;
#X obj 478 78 hsl 128 128 0 127 0 0 empty empty empty -2 -8 0 10 -262144
-1 -1 1200 1;
#X obj 683 73 vsl 128 128 0 127 0 0 empty empty empty 0 -9 0 10 -262144
-1 -1 4600 1;
#X obj 481 252 tgl 15 0 empty empty empty 17 7 0 10 -262144 -1 -1 0
1;
#X obj 476 217 / 127;
#X obj 732 230 / 127;
#X floatatom 567 326 5 0 0 0 - - -;
#X obj 481 272 sel 1 0;
#X obj 910 582 osc~ 10;
#X obj 297 282 t f b;
#X obj 568 256 loadbang;
#X msg 570 288 15;
#X obj 380 491 /~ 4;
#X obj 416 705 *~;
#X obj 358 560 phasor~;
#X obj 319 560 osc~;
#X obj 218 570 phasor~;
#X obj 425 511 +~ 2;
#X obj 424 478 osc~ 0.1;
#X obj 304 465 /~ 4;
#X obj 316 508 /~ 2;
#N canvas 1421 140 1566 1018 scaling_plus 0;
#X obj 163 811 mtof;
#X floatatom 182 563 5 0 0 0 - - -;
#X obj 182 438 tabread modes;
#X floatatom 243 200 5 0 0 0 - - -;
#X floatatom 193 702 5 0 0 0 - - -;
#X floatatom 185 418 5 0 0 0 - - -;
#X obj 433 465 tgl 15 0 empty empty empty 17 7 0 10 -262144 -1 -1 0
1;
#X obj 342 622 tgl 15 0 empty empty empty 17 7 0 10 -262144 -1 -1 0
1;
#X obj 192 626 spigot;
#X obj 320 463 tgl 15 0 empty empty empty 17 7 0 10 -262144 -1 -1 1
1;
#X obj 371 464 +;
#X obj 364 548 == 2;
#X obj 264 634 spigot;
#X obj 333 649 spigot;
#X obj 192 668 + 48;
#X obj 262 668 + 60;
#X obj 317 672 + 72;
#X obj 186 391 % 7;
#X obj 315 441 < 7;
#X obj 357 440 > 6;
#X obj 393 441 < 14;
#X obj 433 439 > 13;
#X obj 415 286 tgl 15 0 empty empty empty 17 7 0 10 -262144 -1 -1 1
1;
#X obj 416 257 < 21;
#X msg 254 596 84;
#X obj 357 291 tgl 15 0 empty empty empty 17 7 0 10 -262144 -1 -1 0
1;
#X obj 356 261 > 20;
#X obj 319 527 sel 1;
#X obj 320 574 bng 15 250 50 0 empty empty empty 17 7 0 10 -262144
-1 -1;
#X obj 322 551 t b;
#X obj 274 318 spigot;
#X obj 250 127 * 21;
#X floatatom 250 149 5 0 0 0 - - -;
#X obj 245 177 i;
#X obj 242 20 inlet;
#X floatatom 341 73 5 0 0 0 - - -;
#X obj 395 78 loadbang 0.3;
#X obj 260 228 t f f;
#X obj 256 349 t b f f;
#X obj 199 919 outlet~;
#X obj 189 865 line~;
#X msg 188 843 \$1 100;
#X obj 195 784 + 0;
#X obj 287 728 r offset;
#X floatatom 287 750 5 0 0 0 - - -;
#X floatatom 233 809 5 0 0 0 - - -;
#X obj 197 741 + 0.2;
#X obj 489 612 sel 1;
#X obj 596 612 sel 1;
#X obj 545 612 sel 1;
#X obj 659 615 sel 1;
#X msg 493 663 1;
#X msg 548 665 2;
#X msg 597 666 3;
#X msg 654 669 4;
#X floatatom 493 713 5 0 0 0 - - -;
#X obj 493 732 outlet;
#X connect 0 0 41 0;
#X connect 1 0 8 0;
#X connect 1 0 12 0;
#X connect 1 0 13 0;
#X connect 2 0 1 0;
#X connect 3 0 37 0;
#X connect 4 0 46 0;
#X connect 5 0 2 0;
#X connect 6 0 13 1;
#X connect 6 0 48 0;
#X connect 7 0 12 1;
#X connect 7 0 49 0;
#X connect 8 0 14 0;
#X connect 9 0 8 1;
#X connect 9 0 47 0;
#X connect 10 0 11 0;
#X connect 11 0 7 0;
#X connect 12 0 15 0;
#X connect 13 0 16 0;
#X connect 14 0 4 0;
#X connect 15 0 4 0;
#X connect 16 0 4 0;
#X connect 17 0 5 0;
#X connect 18 0 9 0;
#X connect 19 0 10 0;
#X connect 20 0 10 1;
#X connect 21 0 6 0;
#X connect 22 0 30 1;
#X connect 23 0 22 0;
#X connect 24 0 4 0;
#X connect 25 0 27 0;
#X connect 25 0 50 0;
#X connect 26 0 25 0;
#X connect 27 0 29 0;
#X connect 28 0 24 0;
#X connect 29 0 28 0;
#X connect 30 0 38 0;
#X connect 31 0 32 0;
#X connect 32 0 33 0;
#X connect 33 0 3 0;
#X connect 34 0 31 0;
#X connect 35 0 31 0;
#X connect 36 0 31 0;
#X connect 37 0 30 0;
#X connect 37 1 23 0;
#X connect 37 1 26 0;
#X connect 38 0 1 0;
#X connect 38 1 17 0;
#X connect 38 2 18 0;
#X connect 38 2 19 0;
#X connect 38 2 20 0;
#X connect 38 2 21 0;
#X connect 40 0 39 0;
#X connect 41 0 40 0;
#X connect 42 0 45 0;
#X connect 42 0 0 0;
#X connect 43 0 42 1;
#X connect 43 0 44 0;
#X connect 46 0 42 0;
#X connect 47 0 51 0;
#X connect 48 0 53 0;
#X connect 49 0 52 0;
#X connect 50 0 54 0;
#X connect 51 0 55 0;
#X connect 52 0 55 0;
#X connect 53 0 55 0;
#X connect 54 0 55 0;
#X connect 55 0 56 0;
#X restore 278 406 pd scaling_plus;
#X msg 655 285 20;
#X obj 562 553 noise~;
#X obj 916 459 sel 1 2 3 4;
#X floatatom 875 426 5 0 0 0 - - -;
#X obj 867 550 / 60;
#X msg 917 501 60;
#X msg 997 502 15;
#X msg 1047 503 7.5;
#X msg 955 503 20;
#X obj 850 514 f;
#X obj 610 615 *~;
#X msg 634 544 \$1 200;
#X obj 581 646 *~;
#X floatatom 673 674 5 0 0 0 - - -;
#X obj 617 891 dac~;
#X obj 876 346 r bpm;
#X obj 520 805 ys.rj.lp;
#X obj 638 698 ys.rj.lp;
#X obj 655 810 ys.rj.lp;
#X floatatom 350 209 5 0 0 0 - - -;
#X obj 990 700 ys.snapshot;
#X floatatom 990 722 5 0 0 0 - - -;
#X floatatom 544 773 5 0 0 0 - - -;
#X floatatom 686 770 5 0 0 0 - - -;
#X floatatom 658 645 5 0 0 0 - - -;
#X floatatom 964 801 5 0 0 0 - - -;
#X obj 911 611 +~ 1;
#X obj 954 660 /~ 2;
#X obj 872 392 / 2;
#X obj 647 728 *~ 0.6;
#X obj 790 324 delay 400;
#X obj 837 264 ys.bpmtoms;
#X obj 837 286 * 2;
#X obj 737 867 throw~ lightdelay;
#X obj 505 491 line~;
#X obj 639 576 line~;
#X obj 564 855 *~ 0.2;
#X obj 656 854 *~ 0.2;
#X obj 987 746 * 100;
#X obj 976 770 + 10;
#X msg 732 655 2;
#X msg 763 751 2;
#X connect 0 0 33 0;
#X connect 0 0 41 0;
#X connect 2 0 30 0;
#X connect 3 0 6 0;
#X connect 4 0 54 0;
#X connect 5 0 11 0;
#X connect 6 0 7 0;
#X connect 7 0 77 0;
#X connect 8 0 6 1;
#X connect 11 0 77 0;
#X connect 12 0 19 0;
#X connect 13 0 61 0;
#X connect 14 0 59 2;
#X connect 14 0 61 2;
#X connect 16 0 17 0;
#X connect 17 0 15 0;
#X connect 18 0 84 0;
#X connect 18 0 83 0;
#X connect 19 0 13 0;
#X connect 20 0 34 0;
#X connect 21 0 1 0;
#X connect 22 0 25 0;
#X connect 23 0 26 0;
#X connect 24 0 28 0;
#X connect 25 0 0 0;
#X connect 25 0 42 0;
#X connect 26 0 54 0;
#X connect 27 0 5 1;
#X connect 28 0 5 0;
#X connect 28 1 6 0;
#X connect 29 0 69 0;
#X connect 30 0 0 0;
#X connect 30 0 42 0;
#X connect 30 1 5 0;
#X connect 30 1 73 0;
#X connect 31 0 32 0;
#X connect 31 0 43 0;
#X connect 32 0 27 0;
#X connect 33 0 36 0;
#X connect 33 0 12 0;
#X connect 34 0 59 0;
#X connect 35 0 20 0;
#X connect 36 0 20 0;
#X connect 36 0 19 0;
#X connect 37 0 20 0;
#X connect 37 0 19 0;
#X connect 39 0 38 0;
#X connect 40 0 35 0;
#X connect 41 0 37 0;
#X connect 42 0 40 0;
#X connect 42 1 45 0;
#X connect 43 0 8 0;
#X connect 44 0 53 0;
#X connect 45 0 48 0;
#X connect 45 0 52 0;
#X connect 45 1 51 0;
#X connect 45 1 52 0;
#X connect 45 2 49 0;
#X connect 45 2 52 0;
#X connect 45 3 50 0;
#X connect 45 3 52 0;
#X connect 46 0 52 0;
#X connect 47 0 29 0;
#X connect 48 0 47 1;
#X connect 49 0 47 1;
#X connect 50 0 47 1;
#X connect 51 0 47 1;
#X connect 52 0 47 0;
#X connect 53 0 55 0;
#X connect 54 0 78 0;
#X connect 55 0 60 0;
#X connect 56 0 60 2;
#X connect 58 0 71 0;
#X connect 59 0 79 0;
#X connect 60 0 72 0;
#X connect 61 0 80 0;
#X connect 62 0 30 0;
#X connect 63 0 64 0;
#X connect 64 0 81 0;
#X connect 65 0 59 1;
#X connect 66 0 61 1;
#X connect 67 0 60 1;
#X connect 68 0 65 0;
#X connect 68 0 66 0;
#X connect 68 0 67 0;
#X connect 69 0 70 0;
#X connect 70 0 63 0;
#X connect 71 0 46 0;
#X connect 72 0 79 0;
#X connect 72 0 80 0;
#X connect 73 0 6 0;
#X connect 74 0 75 0;
#X connect 75 0 73 1;
#X connect 77 0 13 1;
#X connect 77 0 34 1;
#X connect 77 0 55 1;
#X connect 78 0 53 1;
#X connect 79 0 57 0;
#X connect 79 0 76 0;
#X connect 80 0 57 1;
#X connect 80 0 76 0;
#X connect 81 0 82 0;
#X connect 82 0 68 0;
#X connect 83 0 56 0;
#X connect 84 0 14 0;
