#N canvas 844 544 1446 703 10;
#X obj 158 389 *~;
#X obj 397 49 samplerate~;
#X obj 401 13 loadbang;
#X floatatom 399 76 5 0 0 0 - - -;
#X obj 389 129 / 22050;
#X floatatom 389 150 5 0 0 0 - - -;
#X obj 377 274 * 1000;
#X floatatom 161 140 5 0 0 0 - - -;
#X obj 171 262 pack 0 0;
#X msg 182 300 \$1 \$2;
#X msg 219 170 0;
#X obj 252 -15 bng 15 250 50 0 empty empty empty 17 7 0 10 -262144
-1 -1;
#X obj 200 126 t b b;
#X floatatom 244 134 5 0 0 0 - - -;
#X obj 304 -12 bng 15 250 50 0 empty empty empty 17 7 0 10 -262144
-1 -1;
#X obj 283 120 t b b;
#X msg 302 164 1;
#X obj 251 95 f;
#X obj 262 66 bng 15 250 50 0 empty empty empty 17 7 0 10 -262144 -1
-1;
#X text 285 65 reset speed;
#X obj 377 200 *;
#X floatatom 377 222 5 0 0 0 - - -;
#X floatatom 387 -55 5 0 0 0 - - -;
#X text 431 -56 speed multiple (0-2 works well);
#X text 199 -13 forward;
#X text 327 -12 reverse;
#X obj 268 -127 inlet;
#X obj 393 -90 inlet;
#X obj 173 178 1;
#X obj 258 172 0;
#X obj 258 29 loadbang;
#X obj 454 -107 loadbang;
#X msg 441 -81 1;
#X obj 397 173 t b f;
#X obj 179 458 outlet~;
#X msg 266 303 1 1000;
#X obj 182 336 line~;
#X obj 469 14 bng 15 250 50 0 empty empty empty 17 7 0 10 -262144 -1
-1;
#X obj 257 -57 route 0 1;
#X obj 56 329 switch~;
#X obj 47 213 delay;
#X msg 54 237 0;
#X msg 17 235 1;
#X floatatom 50 286 5 0 0 0 - - -;
#X obj 46 116 loadbang;
#X msg 74 186 1000;
#X obj 164 420 tabread~;
#X floatatom 684 74 5 0 0 0 - - -;
#X obj 685 25 bng 15 250 50 0 empty empty empty 17 7 0 10 -262144 -1
-1;
#X obj 845 28 bng 15 250 50 0 empty empty empty 17 7 0 10 -262144 -1
-1;
#X floatatom 842 70 5 0 0 0 - - -;
#X floatatom 993 83 5 0 0 0 - - -;
#X obj 993 38 bng 15 250 50 0 empty empty empty 17 7 0 10 -262144 -1
-1;
#X obj 684 -1 loadbang;
#X obj 842 0 loadbang;
#X obj 991 10 loadbang;
#X msg 783 79 gun1_1;
#X msg 916 72 gun1_2;
#X msg 1077 85 gun1_3;
#X obj 673 102 i;
#X obj 831 102 i;
#X obj 992 114 i;
#X msg 515 344 set \$2\$3_\$1;
#X floatatom 523 186 5 0 0 0 - - -;
#X obj 563 271 symbol \$1;
#X obj 517 239 t f b;
#X obj 521 310 pack f s \$2;
#X obj 684 52 soundfileloader \$1 \$2 1;
#X obj 842 48 soundfileloader \$1 \$2 2;
#X obj 993 56 soundfileloader \$1 \$2 3;
#X floatatom 1224 76 5 0 0 0 - - -;
#X obj 1224 31 bng 15 250 50 0 empty empty empty 17 7 0 10 -262144
-1 -1;
#X obj 1222 3 loadbang;
#X msg 1308 78 gun1_4;
#X obj 1223 107 i;
#X obj 1224 49 soundfileloader \$1 \$2 4;
#X floatatom 685 239 5 0 0 0 - - -;
#X obj 686 190 bng 15 250 50 0 empty empty empty 17 7 0 10 -262144
-1 -1;
#X obj 846 193 bng 15 250 50 0 empty empty empty 17 7 0 10 -262144
-1 -1;
#X floatatom 843 235 5 0 0 0 - - -;
#X floatatom 994 248 5 0 0 0 - - -;
#X obj 994 203 bng 15 250 50 0 empty empty empty 17 7 0 10 -262144
-1 -1;
#X obj 685 164 loadbang;
#X obj 843 165 loadbang;
#X obj 992 175 loadbang;
#X msg 784 244 gun1_5;
#X msg 917 237 gun1_6;
#X msg 1078 250 gun1_7;
#X obj 674 267 i;
#X obj 832 267 i;
#X obj 993 279 i;
#X floatatom 1225 241 5 0 0 0 - - -;
#X obj 1225 196 bng 15 250 50 0 empty empty empty 17 7 0 10 -262144
-1 -1;
#X obj 1223 168 loadbang;
#X msg 1309 243 gun1_8;
#X obj 1224 272 i;
#X obj 685 217 soundfileloader \$1 \$2 5;
#X obj 843 213 soundfileloader \$1 \$2 6;
#X obj 994 221 soundfileloader \$1 \$2 7;
#X obj 1225 214 soundfileloader \$1 \$2 8;
#X obj 264 -91 t l b b;
#X obj 511 -10 random 8;
#X obj 515 -34 bng 15 250 50 0 empty empty empty 17 7 0 10 -262144
-1 -1;
#X obj 536 35 sel 0 1 2 3 4 5 6 7;
#X floatatom 383 299 5 0 0 0 - - -;
#X obj 523 214 + 1;
#X obj 618 136 s \$0-length;
#X obj 811 130 s \$0-length;
#X obj 985 137 s \$0-length;
#X obj 1217 132 s \$0-length;
#X obj 641 318 s \$0-length;
#X obj 834 299 s \$0-length;
#X obj 996 308 s \$0-length;
#X obj 1219 298 s \$0-length;
#X obj 230 356 r \$0-length;
#X obj 391 242 t b f;
#X obj 528 13 t f f;
#X floatatom 230 378 5 0 0 0 - - -;
#X obj 391 98 r \$0-length;
#X connect 0 0 46 0;
#X connect 1 0 3 0;
#X connect 2 0 1 0;
#X connect 3 0 4 1;
#X connect 4 0 5 0;
#X connect 5 0 33 0;
#X connect 6 0 40 1;
#X connect 6 0 104 0;
#X connect 6 0 8 1;
#X connect 7 0 28 1;
#X connect 8 0 9 0;
#X connect 9 0 36 0;
#X connect 10 0 36 0;
#X connect 11 0 12 0;
#X connect 12 0 28 0;
#X connect 12 1 10 0;
#X connect 13 0 29 1;
#X connect 14 0 15 0;
#X connect 15 0 29 0;
#X connect 15 1 16 0;
#X connect 16 0 36 0;
#X connect 18 0 17 0;
#X connect 20 0 21 0;
#X connect 21 0 6 0;
#X connect 22 0 20 0;
#X connect 26 0 100 0;
#X connect 27 0 22 0;
#X connect 28 0 8 0;
#X connect 29 0 8 0;
#X connect 30 0 18 0;
#X connect 31 0 32 0;
#X connect 32 0 22 0;
#X connect 33 0 20 0;
#X connect 33 1 20 1;
#X connect 35 0 36 0;
#X connect 36 0 0 0;
#X connect 37 0 1 0;
#X connect 38 0 11 0;
#X connect 38 1 14 0;
#X connect 40 0 41 0;
#X connect 42 0 43 0;
#X connect 43 0 39 0;
#X connect 44 0 42 0;
#X connect 45 0 40 1;
#X connect 46 0 34 0;
#X connect 47 0 59 1;
#X connect 48 0 67 0;
#X connect 49 0 68 0;
#X connect 50 0 60 1;
#X connect 51 0 61 1;
#X connect 52 0 69 0;
#X connect 53 0 48 0;
#X connect 54 0 49 0;
#X connect 55 0 52 0;
#X connect 59 0 106 0;
#X connect 60 0 107 0;
#X connect 61 0 108 0;
#X connect 62 0 46 0;
#X connect 63 0 105 0;
#X connect 64 0 66 1;
#X connect 65 0 66 0;
#X connect 65 1 64 0;
#X connect 66 0 62 0;
#X connect 67 0 47 0;
#X connect 67 1 56 0;
#X connect 68 0 50 0;
#X connect 68 1 57 0;
#X connect 69 0 51 0;
#X connect 69 1 58 0;
#X connect 70 0 74 1;
#X connect 71 0 75 0;
#X connect 72 0 71 0;
#X connect 74 0 109 0;
#X connect 75 0 70 0;
#X connect 75 1 73 0;
#X connect 76 0 88 1;
#X connect 77 0 96 0;
#X connect 78 0 97 0;
#X connect 79 0 89 1;
#X connect 80 0 90 1;
#X connect 81 0 98 0;
#X connect 82 0 77 0;
#X connect 83 0 78 0;
#X connect 84 0 81 0;
#X connect 88 0 110 0;
#X connect 89 0 111 0;
#X connect 90 0 112 0;
#X connect 91 0 95 1;
#X connect 92 0 99 0;
#X connect 93 0 92 0;
#X connect 95 0 113 0;
#X connect 96 0 76 0;
#X connect 96 1 85 0;
#X connect 97 0 79 0;
#X connect 97 1 86 0;
#X connect 98 0 80 0;
#X connect 98 1 87 0;
#X connect 99 0 91 0;
#X connect 99 1 94 0;
#X connect 100 0 38 0;
#X connect 100 2 102 0;
#X connect 101 0 116 0;
#X connect 102 0 101 0;
#X connect 103 0 59 0;
#X connect 103 1 60 0;
#X connect 103 2 61 0;
#X connect 103 3 74 0;
#X connect 103 5 88 0;
#X connect 103 6 89 0;
#X connect 103 7 90 0;
#X connect 103 8 95 0;
#X connect 105 0 65 0;
#X connect 114 0 0 1;
#X connect 114 0 117 0;
#X connect 115 0 6 0;
#X connect 115 1 6 1;
#X connect 116 0 63 0;
#X connect 116 1 103 0;
#X connect 118 0 4 0;
