#N canvas 1290 329 869 921 10;
#X floatatom 128 135 5 0 0 0 - - -;
#X obj 126 332 t b f;
#X obj 201 591 *~;
#X obj 125 33 inlet;
#X obj 128 108 mtof;
#X obj 213 814 outlet~;
#X floatatom 128 285 5 0 0 0 - - -;
#X obj 128 260 line;
#X obj 134 172 pack 0 0;
#X msg 130 229 \$1 \$2;
#X floatatom 178 151 5 0 0 0 - - -;
#X obj 197 51 metro 400;
#X obj 202 83 random 100;
#X obj 194 16 tgl 15 0 empty empty empty 17 7 0 10 -262144 -1 -1 0
1;
#X obj 230 119 r portamento;
#X obj 146 61 - 12;
#X floatatom 189 401 4 0 0 0 - - -;
#X floatatom 231 512 4 0 0 0 - - -;
#X obj 188 463 *~;
#X text 291 456 modulation;
#X text 289 475 depth;
#X floatatom 238 461 4 0 0 0 - - -;
#X obj 188 511 +~;
#X text 286 518 frequency;
#X text 290 500 carrier;
#X obj 189 428 tabosc4~ pitchmod14;
#X obj 326 399 loadbang;
#X obj 387 400 r currentaim;
#X obj 390 433 * 100;
#X msg 321 430 40;
#X floatatom 320 732 5 0 0 0 - - -;
#X obj 79 382 r notelength\$1;
#X obj 53 539 line~;
#X msg 25 493 1 20;
#X obj 68 453 delay;
#X floatatom 76 414 5 0 0 0 - - -;
#X msg 65 487 0 50;
#X obj 188 551 ys.osc~;
#X connect 0 0 8 0;
#X connect 1 0 34 0;
#X connect 1 0 33 0;
#X connect 1 1 16 0;
#X connect 1 1 22 1;
#X connect 2 0 5 0;
#X connect 3 0 15 0;
#X connect 4 0 0 0;
#X connect 6 0 1 0;
#X connect 7 0 6 0;
#X connect 8 0 9 0;
#X connect 9 0 7 0;
#X connect 10 0 8 1;
#X connect 11 0 12 0;
#X connect 12 0 4 0;
#X connect 13 0 11 0;
#X connect 14 0 10 0;
#X connect 15 0 4 0;
#X connect 16 0 25 0;
#X connect 17 0 22 1;
#X connect 18 0 22 0;
#X connect 21 0 18 1;
#X connect 22 0 37 1;
#X connect 25 0 18 0;
#X connect 26 0 29 0;
#X connect 27 0 28 0;
#X connect 28 0 21 0;
#X connect 29 0 21 0;
#X connect 31 0 35 0;
#X connect 32 0 2 1;
#X connect 33 0 32 0;
#X connect 34 0 36 0;
#X connect 35 0 34 1;
#X connect 36 0 32 0;
#X connect 37 0 2 0;
