#N canvas 602 25 1284 1231 10;
#X obj 61 472 throw~ reverb;
#X obj 65 143 bng 15 250 50 0 empty empty empty 17 7 0 10 -262144 -1
-1;
#X floatatom 67 372 5 0 0 0 - - -;
#X obj 64 186 t f b;
#X obj 137 269 tabread modes;
#X msg 123 244 0;
#X msg 155 244 2;
#X msg 189 239 4;
#X obj 134 214 sel 0 1 2;
#X obj 62 162 random 3;
#X obj 74 343 line 100 5;
#X obj 237 233 t f b;
#X obj 308 305 tabread modes;
#X msg 294 280 0;
#X msg 326 280 2;
#X obj 305 250 sel 0 1 2;
#X obj 236 209 random 3;
#X obj 259 179 bng 15 250 50 0 empty empty empty 17 7 0 10 -262144
-1 -1;
#X msg 358 276 4;
#X msg 141 321 \$1 100;
#X obj 136 296 + 48;
#X obj -237 758 pack s s;
#X obj -237 702 t b b;
#X obj -237 814 soundfiler;
#X msg -237 786 read -resize \$1 \$2;
#X obj -237 674 loadbang;
#X floatatom -94 852 5 0 0 0 - - -;
#X obj -31 877 / 22050;
#X obj -17 909 * 1000;
#X obj 150 810 f;
#X obj 149 775 bng 15 250 50 0 empty empty empty 17 7 0 10 -262144
-1 -1;
#X obj 206 937 *~;
#X obj 196 822 * 1;
#X floatatom 216 769 5 0 0 0 - - -;
#X obj 112 900 sig~;
#X obj 106 722 samplerate~;
#X floatatom 106 744 5 0 0 0 - - -;
#X obj 112 685 bng 15 250 50 0 empty empty empty 17 7 0 10 -262144
-1 -1;
#X obj 111 624 loadbang;
#X obj -1 728 symbol gullhit\$1;
#X obj -186 885 table gullhit\$1;
#X obj 208 969 tabread~ gullhit\$1;
#X obj -237 730 symbol ../assets/sounds/explode.wav;
#X obj -157 670 bng 15 250 50 0 empty empty empty 17 7 0 10 -262144
-1 -1;
#X obj 205 1018 *~;
#X msg 312 357 \$1 100;
#X msg 226 299 set 100;
#X obj 17 567 dac~;
#X msg 55 263 set 120;
#X obj 307 332 + 48;
#X obj 201 1044 *~ 0.1;
#X obj 186 1073 dac~;
#X obj 42 99 r killgull;
#X obj 263 140 r hitgull;
#X obj 204 720 r hitgull;
#X obj 204 900 line~;
#X msg 201 874 1 \$1;
#X obj 197 846 t f b;
#X msg 242 875 0;
#X msg 425 931 1;
#X msg 356 932 0 500;
#X obj 388 877 t b b;
#X obj 67 395 sigsynth 50 20;
#N canvas 472 334 1164 1072 clip 0;
#X obj 168 281 clip~ -1 1;
#X obj 174 340 *~ 0.3;
#X obj 168 260 *~ 4;
#X obj 167 199 inlet~;
#X obj 187 414 outlet~;
#X connect 0 0 1 0;
#X connect 1 0 4 0;
#X connect 2 0 0 0;
#X connect 3 0 2 0;
#X restore 33 525 pd clip;
#X obj 70 429 *~ 0.2;
#X obj 353 970 line~;
#X obj 664 284 r hitgull;
#X obj 655 378 t b;
#X obj 656 505 bng 15 250 50 0 empty empty empty 17 7 0 10 -262144
-1 -1;
#X obj 672 430 random 40;
#X obj 666 458 + 80;
#X obj 679 481 * 0.01;
#X floatatom 681 511 5 0 0 0 - - -;
#X obj 656 349 bng 15 250 50 0 empty empty empty 17 7 0 10 -262144
-1 -1;
#X obj 663 649 dac~;
#X floatatom 772 555 5 0 127 0 - - -;
#X floatatom 812 572 5 0 0 0 - - -;
#X obj 819 519 loadbang;
#X msg 819 541 3;
#X obj 697 616 ys.rj.lp;
#X obj 656 403 t b b b;
#X obj 742 430 random 40;
#X obj 744 459 + 80;
#X obj 658 533 sounds_pitch hit;
#X obj 677 580 *~ 0.3;
#X obj 790 478 loadbang;
#X msg 790 500 1;
#N canvas 2034 22 425 635 appear 0;
#X floatatom -114 410 5 0 0 0 - - -;
#X obj -110 208 tabread modes;
#X floatatom -107 180 5 0 0 0 - - -;
#X obj -109 120 bng 15 250 50 0 empty empty empty 17 7 0 10 -262144
-1 -1;
#X obj -108 89 t b;
#X obj -103 270 t f b;
#X obj -109 152 random 7;
#X obj -113 386 line 90 5;
#X msg -117 337 set 90;
#X msg -59 337 \$1 100;
#X obj -224 170 tabread modes;
#X floatatom -221 142 5 0 0 0 - - -;
#X obj -223 82 bng 15 250 50 0 empty empty empty 17 7 0 10 -262144
-1 -1;
#X obj -222 51 t b;
#X obj -223 114 random 7;
#X obj -228 196 + 108;
#X obj -114 234 + 84;
#X obj -242 544 throw~ mediumdelay;
#X obj -226 462 sigsynth 100 250;
#X obj -222 23 r gullangryappear;
#X obj -114 49 r gullappear;
#X obj -232 498 *~ 0.1;
#X obj -74 579 dac~;
#N canvas 472 334 1164 1072 clip 0;
#X obj 168 281 clip~ -1 1;
#X obj 174 340 *~ 0.3;
#X obj 168 260 *~ 4;
#X obj 167 199 inlet~;
#X obj 187 414 outlet~;
#X connect 0 0 1 0;
#X connect 1 0 4 0;
#X connect 2 0 0 0;
#X connect 3 0 2 0;
#X restore -58 537 pd clip;
#X obj -8 56 bng 15 250 50 0 empty empty empty 17 7 0 10 -262144 -1
-1;
#X obj -45 74 delay 10;
#X connect 0 0 18 0;
#X connect 1 0 16 0;
#X connect 2 0 1 0;
#X connect 3 0 6 0;
#X connect 4 0 3 0;
#X connect 5 0 9 0;
#X connect 5 1 8 0;
#X connect 6 0 2 0;
#X connect 7 0 0 0;
#X connect 8 0 7 0;
#X connect 9 0 7 0;
#X connect 10 0 15 0;
#X connect 11 0 10 0;
#X connect 12 0 14 0;
#X connect 13 0 12 0;
#X connect 14 0 11 0;
#X connect 15 0 5 0;
#X connect 16 0 5 0;
#X connect 18 0 21 0;
#X connect 19 0 13 0;
#X connect 20 0 4 0;
#X connect 21 0 17 0;
#X connect 21 0 23 0;
#X connect 23 0 22 0;
#X connect 23 0 22 1;
#X connect 24 0 3 0;
#X connect 24 0 25 0;
#X connect 25 0 12 0;
#X restore -195 326 pd appear;
#X connect 1 0 9 0;
#X connect 2 0 62 0;
#X connect 3 0 8 0;
#X connect 3 1 48 0;
#X connect 4 0 20 0;
#X connect 5 0 4 0;
#X connect 6 0 4 0;
#X connect 7 0 4 0;
#X connect 8 0 5 0;
#X connect 8 1 6 0;
#X connect 8 2 7 0;
#X connect 9 0 3 0;
#X connect 10 0 2 0;
#X connect 11 0 15 0;
#X connect 11 1 46 0;
#X connect 12 0 49 0;
#X connect 13 0 12 0;
#X connect 14 0 12 0;
#X connect 15 0 13 0;
#X connect 15 1 14 0;
#X connect 15 2 18 0;
#X connect 16 0 11 0;
#X connect 17 0 16 0;
#X connect 18 0 12 0;
#X connect 19 0 10 0;
#X connect 20 0 19 0;
#X connect 21 0 24 0;
#X connect 22 0 42 0;
#X connect 22 1 39 0;
#X connect 23 0 26 0;
#X connect 24 0 23 0;
#X connect 25 0 22 0;
#X connect 26 0 27 0;
#X connect 26 0 34 0;
#X connect 27 0 28 0;
#X connect 28 0 29 1;
#X connect 29 0 32 0;
#X connect 30 0 29 0;
#X connect 30 0 61 0;
#X connect 31 0 41 0;
#X connect 32 0 57 0;
#X connect 33 0 32 1;
#X connect 34 0 31 1;
#X connect 35 0 36 0;
#X connect 36 0 27 1;
#X connect 37 0 35 0;
#X connect 38 0 37 0;
#X connect 39 0 21 1;
#X connect 41 0 44 0;
#X connect 42 0 21 0;
#X connect 43 0 22 0;
#X connect 44 0 50 0;
#X connect 48 0 10 0;
#X connect 49 0 45 0;
#X connect 50 0 51 0;
#X connect 50 0 51 1;
#X connect 52 0 1 0;
#X connect 53 0 17 0;
#X connect 54 0 30 0;
#X connect 55 0 31 0;
#X connect 56 0 55 0;
#X connect 57 0 56 0;
#X connect 57 1 58 0;
#X connect 58 0 55 0;
#X connect 59 0 65 0;
#X connect 60 0 65 0;
#X connect 61 0 60 0;
#X connect 61 1 59 0;
#X connect 62 0 64 0;
#X connect 63 0 47 0;
#X connect 63 0 47 1;
#X connect 64 0 63 0;
#X connect 64 0 0 0;
#X connect 65 0 44 1;
#X connect 66 0 73 0;
#X connect 67 0 80 0;
#X connect 68 0 83 0;
#X connect 69 0 70 0;
#X connect 70 0 71 0;
#X connect 71 0 72 0;
#X connect 72 0 83 1;
#X connect 73 0 67 0;
#X connect 75 0 79 1;
#X connect 76 0 79 2;
#X connect 77 0 78 0;
#X connect 78 0 76 0;
#X connect 79 0 74 0;
#X connect 79 0 74 1;
#X connect 80 0 68 0;
#X connect 80 1 69 0;
#X connect 80 2 81 0;
#X connect 81 0 82 0;
#X connect 82 0 75 0;
#X connect 83 0 84 0;
#X connect 84 0 79 0;
#X connect 85 0 86 0;
#X connect 86 0 72 0;
