#N canvas 410 22 1280 724 10;
#X obj 638 427 throw~ reverb;
#X floatatom 525 231 5 0 0 0 - - -;
#X obj 162 238 tabread modes;
#X obj 234 332 + 0;
#X msg 452 273 5;
#X msg 490 273 7;
#X msg 408 271 0;
#X obj 414 237 bng 15 250 50 0 empty empty empty 17 7 0 10 -262144
-1 -1;
#X obj 450 235 bng 15 250 50 0 empty empty empty 17 7 0 10 -262144
-1 -1;
#X obj 488 237 bng 15 250 50 0 empty empty empty 17 7 0 10 -262144
-1 -1;
#X obj 420 181 r keychange;
#X obj 420 203 sel 0 1 2 3;
#X obj 263 301 + 72;
#X msg 293 262 84;
#X msg 265 262 72;
#X obj 180 151 bng 15 250 50 0 empty empty empty 17 7 0 10 -262144
-1 -1;
#X obj 276 220 sel 0 1 2;
#X msg 327 262 96;
#X obj 268 175 random 3;
#X obj 569 126 bng 15 250 50 0 empty empty empty 17 7 0 10 -262144
-1 -1;
#X floatatom 571 355 5 0 0 0 - - -;
#X obj 568 169 t f b;
#X obj 641 252 tabread modes;
#X msg 627 227 0;
#X msg 659 227 2;
#X msg 693 222 4;
#X obj 638 197 sel 0 1 2;
#X obj 566 145 random 3;
#X obj 578 326 line 100 5;
#X floatatom 783 330 5 0 0 0 - - -;
#X obj 782 155 t f b;
#X obj 853 227 tabread modes;
#X msg 839 202 0;
#X msg 871 202 2;
#X obj 850 172 sel 0 1 2;
#X obj 781 131 random 3;
#X obj 804 101 bng 15 250 50 0 empty empty empty 17 7 0 10 -262144
-1 -1;
#X msg 903 198 4;
#X msg 645 304 \$1 100;
#X obj 640 279 + 48;
#X obj 106 811 pack s s;
#X obj 106 755 t b b;
#X obj 106 867 soundfiler;
#X msg 106 839 read -resize \$1 \$2;
#X obj 106 727 loadbang;
#X floatatom 249 905 5 0 0 0 - - -;
#X obj 312 930 / 22050;
#X obj 326 962 * 1000;
#X obj 493 863 f;
#X obj 492 828 bng 15 250 50 0 empty empty empty 17 7 0 10 -262144
-1 -1;
#X obj 549 990 *~;
#X obj 539 875 * 1;
#X floatatom 559 822 5 0 0 0 - - -;
#X obj 455 953 sig~;
#X obj 449 775 samplerate~;
#X floatatom 449 797 5 0 0 0 - - -;
#X obj 455 738 bng 15 250 50 0 empty empty empty 17 7 0 10 -262144
-1 -1;
#X obj 454 677 loadbang;
#X obj 186 723 bng 15 250 50 0 empty empty empty 17 7 0 10 -262144
-1 -1;
#X obj 548 1071 *~;
#X obj 790 301 line 75 5;
#X msg 771 221 set 100;
#X floatatom 235 353 5 0 0 0 - - -;
#X msg 559 246 set 120;
#X obj 529 1126 dac~;
#X obj 825 403 *~ 1.2;
#X obj 551 1022 tabread~ kidhit\$1;
#X obj 157 938 table kidhit\$1;
#X obj 342 781 symbol kidhit\$1;
#X obj 106 783 symbol ../assets/sounds/death.wav;
#X obj 581 90 r killkid;
#X obj 809 68 r hitkid;
#X obj 181 175 random 7;
#X obj 852 254 + 36;
#X obj 544 1097 *~ 0.3;
#X obj 547 773 r killkid;
#X obj 235 464 throw~ lightdelay;
#X obj 547 953 line~;
#X msg 542 917 1 \$1;
#X msg 586 918 0;
#X obj 542 896 t f b;
#X msg 699 985 0 500;
#X msg 743 982 1;
#X obj 696 1023 line~;
#X obj 698 942 t b b;
#X obj 240 403 kidsynth 500 250;
#X obj 741 360 kidsynth 250 100;
#X obj 555 382 kidsynth 100 20;
#N canvas 0 22 885 714 clip 0;
#X obj 115 145 clip~ -1 1;
#X obj 115 124 *~ 3;
#X obj 119 81 inlet~;
#X obj 120 247 outlet~;
#X obj 121 199 *~ 0.15;
#X connect 0 0 4 0;
#X connect 1 0 0 0;
#X connect 2 0 1 0;
#X connect 4 0 3 0;
#X restore 523 562 pd clip;
#X obj 714 130 s patchon;
#X obj 98 397 switch~;
#X msg 83 323 1;
#X msg 134 327 0;
#X floatatom 92 366 5 0 0 0 - - -;
#X obj 138 359 t b;
#X obj 153 386 delay 250;
#X obj 59 280 r kidon;
#X obj 161 79 r kidappear;
#X obj 517 602 outlet~;
#X msg 857 279 \$1 220;
#X connect 2 0 12 0;
#X connect 3 0 62 0;
#X connect 4 0 3 1;
#X connect 5 0 3 1;
#X connect 6 0 3 1;
#X connect 7 0 6 0;
#X connect 8 0 4 0;
#X connect 9 0 5 0;
#X connect 10 0 11 0;
#X connect 11 0 7 0;
#X connect 11 1 8 0;
#X connect 11 2 7 0;
#X connect 11 3 9 0;
#X connect 12 0 3 0;
#X connect 13 0 12 1;
#X connect 14 0 12 1;
#X connect 15 0 18 0;
#X connect 15 0 72 0;
#X connect 16 0 14 0;
#X connect 16 1 13 0;
#X connect 16 2 17 0;
#X connect 17 0 12 1;
#X connect 18 0 16 0;
#X connect 19 0 27 0;
#X connect 20 0 87 0;
#X connect 21 0 26 0;
#X connect 21 1 63 0;
#X connect 22 0 39 0;
#X connect 23 0 22 0;
#X connect 24 0 22 0;
#X connect 25 0 22 0;
#X connect 26 0 23 0;
#X connect 26 1 24 0;
#X connect 26 2 25 0;
#X connect 27 0 21 0;
#X connect 28 0 20 0;
#X connect 29 0 86 0;
#X connect 30 0 34 0;
#X connect 30 1 61 0;
#X connect 31 0 73 0;
#X connect 32 0 31 0;
#X connect 33 0 31 0;
#X connect 34 0 32 0;
#X connect 34 1 33 0;
#X connect 34 2 37 0;
#X connect 35 0 30 0;
#X connect 36 0 35 0;
#X connect 36 0 89 0;
#X connect 37 0 31 0;
#X connect 38 0 28 0;
#X connect 39 0 38 0;
#X connect 40 0 43 0;
#X connect 41 0 69 0;
#X connect 41 1 68 0;
#X connect 42 0 45 0;
#X connect 43 0 42 0;
#X connect 44 0 41 0;
#X connect 45 0 46 0;
#X connect 45 0 53 0;
#X connect 46 0 47 0;
#X connect 47 0 48 1;
#X connect 48 0 51 0;
#X connect 49 0 48 0;
#X connect 49 0 84 0;
#X connect 50 0 66 0;
#X connect 51 0 80 0;
#X connect 52 0 51 1;
#X connect 53 0 50 1;
#X connect 54 0 55 0;
#X connect 55 0 46 1;
#X connect 56 0 54 0;
#X connect 57 0 56 0;
#X connect 58 0 41 0;
#X connect 59 0 74 0;
#X connect 60 0 29 0;
#X connect 61 0 60 0;
#X connect 62 0 85 0;
#X connect 63 0 28 0;
#X connect 65 0 88 0;
#X connect 66 0 59 0;
#X connect 68 0 40 1;
#X connect 69 0 40 0;
#X connect 70 0 19 0;
#X connect 71 0 36 0;
#X connect 72 0 2 0;
#X connect 73 0 99 0;
#X connect 74 0 64 0;
#X connect 74 0 64 1;
#X connect 75 0 49 0;
#X connect 77 0 50 0;
#X connect 78 0 77 0;
#X connect 79 0 77 0;
#X connect 80 0 78 0;
#X connect 80 1 79 0;
#X connect 81 0 83 0;
#X connect 82 0 83 0;
#X connect 83 0 59 1;
#X connect 84 0 81 0;
#X connect 84 1 82 0;
#X connect 85 0 76 0;
#X connect 85 0 88 0;
#X connect 86 0 0 0;
#X connect 86 0 65 0;
#X connect 87 0 0 0;
#X connect 87 0 88 0;
#X connect 88 0 98 0;
#X connect 91 0 93 0;
#X connect 91 0 94 0;
#X connect 92 0 93 0;
#X connect 93 0 90 0;
#X connect 94 0 95 0;
#X connect 95 0 92 0;
#X connect 96 0 91 0;
#X connect 97 0 15 0;
#X connect 99 0 60 0;
