#N canvas 844 571 1280 673 10;
#X obj 249 -21 metro 5;
#X obj 249 58 sel 0;
#X obj 241 -45 tgl 15 0 empty empty empty 17 7 0 10 -262144 -1 -1 0
1;
#X obj 329 60 random 8;
#X text 312 -43 randomizer;
#N canvas 0 22 450 300 (subpatch) 0;
#X array notes_\$1 16 float 3;
#A 0 7 0 6 3 4 0 4 7 3 7 6 6 5 2 5 0;
#X coords 0 7 16 0 200 140 1 0 0;
#X restore 179 322 graph;
#X obj 542 527 outlet~;
#X obj 278 83 tabwrite notes_\$1;
#X obj 217 -75 inlet;
#X obj 155 -6 inlet;
#X obj 526 377 tabread modes;
#X floatatom 289 132 5 0 0 0 - - -;
#X floatatom 534 255 5 0 0 0 - - -;
#X obj 524 311 * 16;
#X floatatom 526 355 5 0 0 0 - - -;
#X msg 506 217 0.6;
#X msg 545 216 0.82;
#X obj 537 279 t f f f;
#X obj 310 -66 loadbang;
#X floatatom 386 217 5 0 0 0 - - -;
#X obj 190 166 bng 15 250 50 0 empty empty empty 17 7 0 10 -262144
-1 -1;
#X obj 229 187 + 1;
#X obj 188 187 float;
#X floatatom 188 207 5 0 0 0 - - -;
#X obj 393 262 tabread notes_\$1;
#X obj 526 333 % 8;
#X floatatom 185 249 5 0 0 0 - - -;
#X obj 185 227 % 16;
#X obj 286 31 ys.counter 16;
#X floatatom 526 399 5 0 0 0 - - -;
#X obj 537 487 softsynth;
#X obj 523 417 + 48;
#X connect 0 0 3 0;
#X connect 0 0 28 0;
#X connect 1 0 2 0;
#X connect 2 0 0 0;
#X connect 3 0 7 0;
#X connect 8 0 2 0;
#X connect 9 0 20 0;
#X connect 10 0 29 0;
#X connect 12 0 17 0;
#X connect 13 0 25 0;
#X connect 14 0 10 0;
#X connect 15 0 12 0;
#X connect 16 0 12 0;
#X connect 17 0 13 0;
#X connect 18 0 2 0;
#X connect 19 0 24 0;
#X connect 20 0 22 0;
#X connect 21 0 22 1;
#X connect 22 0 23 0;
#X connect 22 0 21 0;
#X connect 23 0 27 0;
#X connect 24 0 14 0;
#X connect 25 0 14 0;
#X connect 27 0 24 0;
#X connect 27 0 26 0;
#X connect 28 0 1 0;
#X connect 28 0 7 1;
#X connect 29 0 31 0;
#X connect 30 0 6 0;
#X connect 31 0 30 0;
