#N canvas 1114 526 635 578 10;
#X obj 126 306 tabosc4~ minewave;
#X obj 134 166 tabread modes;
#X floatatom 133 114 5 0 0 0 - - -;
#X floatatom 134 188 5 0 0 0 - - -;
#X obj 139 144 * 8;
#X obj 100 48 t b f;
#X obj 124 251 mtof;
#X obj 100 389 *~;
#X obj 31 292 line~;
#X obj 100 411 *~ 0.2;
#X obj 100 433 dac~;
#X obj 98 12 inlet;
#X obj 125 226 + 36;
#X msg -18 224 0 200;
#X obj 131 204 + 0;
#X msg 256 170 5;
#X msg 294 170 7;
#X msg 230 171 0;
#X obj 292 137 bng 15 250 50 0 empty empty empty 17 7 0 10 -262144
-1 -1;
#X obj 309 135 bng 15 250 50 0 empty empty empty 17 7 0 10 -262144
-1 -1;
#X obj 347 137 bng 15 250 50 0 empty empty empty 17 7 0 10 -262144
-1 -1;
#X obj 308 48 r keychange;
#X obj 308 70 sel 0 1 2 3;
#X obj 166 439 throw~ reverb;
#X obj 242 383 r mineroomlevel;
#X floatatom 178 284 5 0 0 0 - - -;
#X obj 427 293 ys.snapshot;
#X floatatom 427 315 5 0 0 0 - - -;
#X msg 92 218 0;
#X obj 59 87 bng 15 250 50 0 empty empty empty 17 7 0 10 -262144 -1
-1;
#X obj 80 341 *~;
#X obj 73 287 line~;
#X obj 61 133 t b b b b;
#X msg 53 217 1 20;
#X msg 22 218 1;
#X obj 35 26 tgl 15 0 empty empty empty 17 7 0 10 -262144 -1 -1 0 1
;
#X obj 35 46 metro 200;
#X floatatom 81 16 5 0 0 0 - - -;
#X connect 0 0 7 0;
#X connect 1 0 3 0;
#X connect 2 0 4 0;
#X connect 3 0 14 0;
#X connect 4 0 1 0;
#X connect 5 0 32 0;
#X connect 5 1 2 0;
#X connect 6 0 0 0;
#X connect 6 0 25 0;
#X connect 7 0 9 0;
#X connect 8 0 30 0;
#X connect 9 0 10 0;
#X connect 9 0 10 1;
#X connect 9 0 23 0;
#X connect 11 0 5 0;
#X connect 12 0 6 0;
#X connect 13 0 8 0;
#X connect 14 0 12 0;
#X connect 15 0 14 1;
#X connect 16 0 14 1;
#X connect 17 0 14 1;
#X connect 18 0 17 0;
#X connect 19 0 15 0;
#X connect 20 0 16 0;
#X connect 21 0 22 0;
#X connect 22 0 18 0;
#X connect 22 1 19 0;
#X connect 22 2 18 0;
#X connect 22 3 20 0;
#X connect 24 0 9 1;
#X connect 26 0 27 0;
#X connect 28 0 31 0;
#X connect 29 0 32 0;
#X connect 30 0 7 1;
#X connect 31 0 30 1;
#X connect 32 0 13 0;
#X connect 32 1 34 0;
#X connect 32 2 33 0;
#X connect 32 3 28 0;
#X connect 33 0 31 0;
#X connect 34 0 8 0;
#X connect 35 0 36 0;
#X connect 36 0 29 0;
#X connect 37 0 36 1;
