#N canvas 919 238 1287 1066 10;
#X obj 32 -142 r fromOF;
#X obj 39 -121 route list;
#X obj 41 -99 route aimMine;
#X obj 375 86 + 0;
#X msg 407 54 5;
#X msg 445 54 7;
#X msg 381 55 0;
#X obj 443 21 bng 15 250 50 0 empty empty empty 17 7 0 10 -262144 -1
-1;
#X obj 460 19 bng 15 250 50 0 empty empty empty 17 7 0 10 -262144 -1
-1;
#X obj 498 21 bng 15 250 50 0 empty empty empty 17 7 0 10 -262144 -1
-1;
#X obj 459 -68 r keychange;
#X obj 459 -46 sel 0 1 2 3;
#N canvas 0 22 450 278 (subpatch) 0;
#X array minewave 67 float 3;
#A 0 -0.254967 0 0.254967 0.491813 0.694446 0.850567 0.952939 0.999999
0.995747 0.948948 0.871766 0.778033 0.681408 0.593663 0.523343 0.474961
0.448809 0.441386 0.44634 0.45577 0.46166 0.457223 0.437967 0.402311
0.351693 0.290164 0.223569 0.158448 0.100863 0.0553456 0.0241273 0.00679241
0.000392086 -1.74814e-08 -0.000391954 -0.00679181 -0.024126 -0.0553435
-0.10086 -0.158444 -0.223565 -0.290161 -0.35169 -0.402309 -0.437966
-0.457223 -0.46166 -0.455771 -0.44634 -0.441386 -0.448809 -0.474959
-0.52334 -0.593658 -0.681403 -0.778028 -0.871761 -0.948944 -0.995745
-1 -0.952944 -0.850574 -0.694456 -0.491825 -0.254981 -1.39502e-05 0.254954
;
#X coords 0 1 67 -1 200 140 1;
#X restore 803 451 graph;
#X msg 599 926 \; minewave normalize 1;
#X obj 552 869 loadbang;
#X obj 400 405 dac~;
#X floatatom 373 253 5 0 0 0 - - -;
#X obj 373 273 tabosc4~ minewave;
#X obj 355 313 *~;
#X obj 371 231 mtof;
#X obj 213 96 tabread modes;
#X msg 211 59 0;
#X floatatom 213 118 5 0 0 0 - - -;
#X msg 247 58 2;
#X msg 281 56 4;
#X msg 312 57 7;
#X obj 374 108 + 36;
#X obj 166 -33 print mine;
#X obj 611 690 metro 5;
#X obj 611 769 sel 0;
#X obj 603 666 tgl 15 0 empty empty empty 17 7 0 10 -262144 -1 -1 0
1;
#X text 674 668 randomizer;
#N canvas 0 22 450 300 (subpatch) 0;
#X array notes_\$1 16 float 3;
#A 0 1 3 1 1 3 2 2 3 2 0 3 2 1 3 2 1;
#X coords 0 7 16 0 200 140 1 0 0;
#X restore 522 463 graph;
#X obj 640 794 tabwrite notes_\$1;
#X obj 648 742 ys.counter \$2;
#X obj 691 771 random 4;
#X obj 609 640 r start;
#X obj 67 5 t b f;
#X floatatom 69 -22 5 0 0 0 - - -;
#X obj 122 22 moses 1.8;
#X obj 196 19 moses 3;
#X obj 256 20 moses 4.5;
#X obj 325 19 moses 5.5;
#X obj 371 210 line;
#X obj 372 132 t f b;
#X msg 396 165 60;
#X msg 347 169 \$1 100;
#X obj 450 390 throw~ lightdelay;
#X obj 166 -62 * 0.01;
#X obj 158 -145 metro 400;
#X obj 184 -170 tgl 15 0 empty empty empty 17 7 0 10 -262144 -1 -1
0 1;
#X obj 785 44 bng 15 250 50 0 empty empty empty 17 7 0 10 -262144 -1
-1;
#X obj 821 67 + 1;
#X obj 780 67 float;
#X floatatom 780 87 5 0 0 0 - - -;
#X floatatom 777 129 5 0 0 0 - - -;
#X obj 811 15 t b f;
#X obj 810 -21 r mine;
#X obj 780 147 pack 0 0;
#X obj 751 -84 random 40;
#X obj 758 -33 * 0.01;
#X obj 750 -116 metro 400;
#X obj 776 -141 tgl 15 0 empty empty empty 17 7 0 10 -262144 -1 -1
0 1;
#X obj 693 238 mineroom;
#X obj 557 326 sounds_pitch mine;
#X obj 518 90 r fromOF;
#X obj 525 111 route list;
#X obj 536 184 bng 15 250 50 0 empty empty empty 17 7 0 10 -262144
-1 -1;
#X obj 630 395 dac~;
#X obj 531 162 t b;
#X obj 532 210 t b b;
#X obj 606 290 * 0.01;
#X obj 562 232 random 50;
#X obj 599 256 + 75;
#X obj 526 131 route mine_time_out mine_hit_enemy;
#X obj -74 220 switch~;
#X msg -89 146 1;
#X msg -38 150 0;
#X floatatom -80 189 5 0 0 0 - - -;
#X obj -34 182 t b;
#X obj -76 94 t b;
#X msg 39 576 \; minewave write minewave1.txt;
#X msg 22 1022 \; minewave read minewave2.txt;
#X msg 42 610 \; minewave write minewave2.txt;
#X msg 46 665 \; minewave write minewave3.txt;
#X msg 49 712 \; minewave write minewave4.txt;
#X msg 54 772 \; minewave write minewave5.txt;
#X msg 19 988 \; minewave read minewave\$1.txt;
#X floatatom 28 913 5 0 0 0 - - -;
#X msg 522 1070 \; minewave cosinesum 64 0.2 -0.2 0.2 -0.2 0.2 -0.2
0.2;
#X obj 51 853 r worldnumber;
#X obj 32 892 + 1;
#X obj 594 368 *~ 0.2;
#X obj -19 209 delay 1200;
#X obj 378 363 *~ 0.15;
#X obj 424 322 r mineshootlevel;
#X obj 132 1088 sel 3;
#X msg 207 1119 0.15;
#X msg 165 1119 0.2;
#X obj 159 1149 s mineroomlevel;
#X obj 208 1174 s mineshootlevel;
#X obj 57 1159 s mineroomlevel;
#X obj 106 1184 s mineshootlevel;
#X msg 105 1129 0.1;
#X msg 63 1129 0.2;
#X floatatom 864 58 5 0 0 0 - - -;
#X obj 758 -55 + 60;
#X msg 547 988 \; minewave sinesum 64 1 0.5 0.33 0.25;
#X msg 448 1009 \; minewave64 sinesum 256 1 0.5 0.33 0.25;
#X obj -81 121 loadbang;
#X obj 778 172 route 0 1;
#X obj 777 107 % 2;
#X obj 159 -113 random 300;
#X obj 79 -54 bng 15 250 50 0 empty empty empty 17 7 0 10 -262144 -1
-1;
#N canvas 950 131 450 300 envelope 0;
#X msg 194 219 1 \$1;
#X msg 150 218 0 \$1;
#X obj 150 146 t b b;
#X obj 187 46 inlet attack;
#X obj 289 45 inlet decay;
#X obj 77 46 inlet trigger;
#X obj 187 87 t f f;
#X obj 150 196 f 50;
#X obj 194 197 f 50;
#X text 235 199 <-- default values 50 ms;
#X text 236 88 <-- set floats nicely;
#X obj 150 173 del 50;
#X text 151 9 envelope subpatch;
#X obj 175 243 line~;
#X obj 175 267 outlet~;
#X connect 0 0 13 0;
#X connect 1 0 13 0;
#X connect 2 0 11 0;
#X connect 2 1 8 0;
#X connect 3 0 6 0;
#X connect 4 0 7 1;
#X connect 5 0 2 0;
#X connect 6 0 11 1;
#X connect 6 1 8 1;
#X connect 7 0 1 0;
#X connect 8 0 0 0;
#X connect 11 0 7 0;
#X connect 13 0 14 0;
#X restore 248 272 pd envelope;
#X floatatom 266 234 5 0 0 0 - - -;
#X floatatom 306 247 5 0 0 0 - - -;
#X obj 253 180 loadbang;
#X msg 261 202 40;
#X msg 303 204 500;
#X obj 779 238 mineroom;
#X connect 0 0 1 0;
#X connect 1 0 2 0;
#X connect 2 0 38 0;
#X connect 3 0 26 0;
#X connect 4 0 3 1;
#X connect 5 0 3 1;
#X connect 6 0 3 1;
#X connect 7 0 6 0;
#X connect 8 0 4 0;
#X connect 9 0 5 0;
#X connect 10 0 11 0;
#X connect 11 0 7 0;
#X connect 11 1 8 0;
#X connect 11 2 7 0;
#X connect 11 3 9 0;
#X connect 14 0 13 0;
#X connect 14 0 107 0;
#X connect 16 0 17 0;
#X connect 17 0 18 0;
#X connect 18 0 94 0;
#X connect 19 0 16 0;
#X connect 20 0 22 0;
#X connect 21 0 20 0;
#X connect 22 0 3 0;
#X connect 23 0 20 0;
#X connect 24 0 20 0;
#X connect 25 0 20 0;
#X connect 26 0 44 0;
#X connect 28 0 34 0;
#X connect 28 0 35 0;
#X connect 29 0 30 0;
#X connect 30 0 28 0;
#X connect 34 0 29 0;
#X connect 34 0 33 1;
#X connect 35 0 33 0;
#X connect 36 0 30 0;
#X connect 37 0 114 0;
#X connect 37 1 39 0;
#X connect 38 0 37 0;
#X connect 38 0 80 0;
#X connect 39 0 21 0;
#X connect 39 1 40 0;
#X connect 40 0 23 0;
#X connect 40 1 41 0;
#X connect 41 0 24 0;
#X connect 41 1 42 0;
#X connect 42 0 25 0;
#X connect 43 0 19 0;
#X connect 44 0 46 0;
#X connect 44 1 45 0;
#X connect 45 0 43 0;
#X connect 46 0 43 0;
#X connect 48 0 38 0;
#X connect 49 0 112 0;
#X connect 50 0 49 0;
#X connect 51 0 53 0;
#X connect 51 0 80 0;
#X connect 52 0 53 1;
#X connect 53 0 54 0;
#X connect 53 0 52 0;
#X connect 54 0 111 0;
#X connect 55 0 58 0;
#X connect 56 0 51 0;
#X connect 56 1 58 1;
#X connect 56 1 105 0;
#X connect 57 0 56 0;
#X connect 58 0 110 0;
#X connect 59 0 106 0;
#X connect 60 0 56 0;
#X connect 61 0 59 0;
#X connect 62 0 61 0;
#X connect 64 0 92 0;
#X connect 65 0 66 0;
#X connect 66 0 74 0;
#X connect 67 0 70 0;
#X connect 67 0 80 0;
#X connect 69 0 67 0;
#X connect 70 0 64 0;
#X connect 70 1 72 0;
#X connect 71 0 64 1;
#X connect 72 0 73 0;
#X connect 73 0 71 0;
#X connect 74 0 69 0;
#X connect 74 1 69 0;
#X connect 76 0 78 0;
#X connect 76 0 79 0;
#X connect 78 0 75 0;
#X connect 79 0 93 0;
#X connect 88 0 87 0;
#X connect 90 0 91 0;
#X connect 90 0 96 0;
#X connect 91 0 88 0;
#X connect 92 0 68 0;
#X connect 92 0 68 1;
#X connect 93 0 77 0;
#X connect 94 0 15 0;
#X connect 94 0 15 1;
#X connect 94 0 47 0;
#X connect 95 0 94 1;
#X connect 96 0 103 0;
#X connect 96 0 104 0;
#X connect 96 1 97 0;
#X connect 96 1 98 0;
#X connect 97 0 100 0;
#X connect 98 0 99 0;
#X connect 103 0 102 0;
#X connect 104 0 101 0;
#X connect 106 0 60 0;
#X connect 109 0 76 0;
#X connect 110 0 63 0;
#X connect 110 1 120 0;
#X connect 111 0 55 0;
#X connect 112 0 48 0;
#X connect 113 0 38 0;
#X connect 114 0 18 1;
#X connect 115 0 114 1;
#X connect 116 0 114 2;
#X connect 117 0 118 0;
#X connect 117 0 119 0;
#X connect 118 0 115 0;
#X connect 119 0 116 0;
