#N canvas 705 303 1440 848 10;
#X obj 1467 -96 loadbang;
#X obj 1468 -10 pack s s;
#X msg 52 275 bang;
#X obj 238 -155 inlet;
#X floatatom 1674 250 8 0 0 0 - - -;
#X obj 349 592 pack 0 0;
#X msg 333 747 \$1 \$2;
#X obj 329 540 bang;
#X obj 59 318 bng 15 250 50 0 empty empty empty 17 7 0 10 -262144 -1
-1;
#X msg 419 585 0;
#X obj 238 541 trigger b b;
#X obj 399 534 * 1;
#X floatatom 329 472 5 0 0 0 - - -;
#X obj 436 534 bang;
#X obj 287 406 loadbang;
#X msg 286 434 1;
#X obj 1467 -64 t b b;
#X obj 1633 -37 symbol \$2_1;
#X obj 22 -157 table \$2_1;
#X obj 21 -130 table \$2_2;
#X obj 21 -101 table \$2_3;
#X obj 20 -74 table \$2_4;
#X obj 20 -53 table \$2_5;
#X obj 19 -26 table \$2_6;
#X obj 19 3 table \$2_7;
#X obj 18 30 table \$2_8;
#X obj 1713 -8 pack s s;
#X obj 1714 -64 t b b;
#X obj 1962 -8 pack s s;
#X obj 1963 -64 t b b;
#X obj 2208 -9 pack s s;
#X obj 2209 -65 t b b;
#X obj 1880 -36 symbol \$2_2;
#X obj 2139 -36 symbol \$2_3;
#X obj 2375 -37 symbol \$2_4;
#X obj 438 13 pack s s;
#X obj 438 -43 t b b;
#X obj 684 11 pack s s;
#X obj 686 -45 t b b;
#X obj 933 11 pack s s;
#X obj 934 -47 t b b;
#X obj 1179 10 pack s s;
#X obj 1180 -48 t b b;
#X obj 1101 -15 symbol \$2_7;
#X obj 1360 -16 symbol \$2_8;
#X obj 340 866 outlet~;
#X obj 577 595 outlet;
#X msg 1021 266 set \$1;
#X obj 1469 53 soundfiler;
#X msg 1469 26 read -resize \$1 \$2;
#X obj 438 69 soundfiler;
#X msg 438 41 read -resize \$1 \$2;
#X obj 1713 57 soundfiler;
#X msg 1713 31 read -resize \$1 \$2;
#X obj 1454 80 int;
#X obj 1698 90 int;
#X obj 1963 45 soundfiler;
#X msg 1963 18 read -resize \$1 \$2;
#X obj 2207 49 soundfiler;
#X msg 2207 23 read -resize \$1 \$2;
#X obj 1948 72 int;
#X obj 2192 82 int;
#X obj 683 60 soundfiler;
#X msg 683 37 read -resize \$1 \$2;
#X obj 668 93 int;
#X obj 930 54 soundfiler;
#X obj 1178 57 soundfiler;
#X msg 1178 31 read -resize \$1 \$2;
#X obj 915 81 int;
#X obj 1163 90 int;
#X msg 932 31 read -resize \$1 \$2;
#X obj 438 -71 loadbang;
#X obj 423 96 int;
#X floatatom 884 457 8 0 0 0 - - -;
#X obj 837 579 pack 0 0;
#X msg 834 733 \$1 \$2;
#X obj 815 534 bang;
#X msg 905 579 0;
#X obj 885 528 * 1;
#X floatatom 815 466 5 0 0 0 - - -;
#X obj 922 528 bang;
#X obj 773 400 loadbang;
#X msg 772 428 1;
#X obj 833 816 outlet~;
#X obj 1060 695 outlet;
#X obj 228 507 spigot;
#X obj 732 533 trigger b b;
#X obj 734 506 spigot;
#X obj 53 393 loadbang;
#X msg 53 415 1;
#X obj 209 460 tgl 15 0 empty empty empty 17 7 0 10 -262144 -1 -1 1
1;
#X obj 764 477 tgl 15 0 empty empty empty 17 7 0 10 -262144 -1 -1 0
1;
#X obj 577 543 spigot;
#X obj 607 514 tgl 15 0 empty empty empty 17 7 0 10 -262144 -1 -1 1
1;
#X obj 1034 548 spigot;
#X obj 1064 519 tgl 15 0 empty empty empty 17 7 0 10 -262144 -1 -1
0 1;
#X obj 214 -126 t b f b;
#X obj 581 360 spigot;
#X obj 379 360 spigot;
#X floatatom 397 447 15 0 0 0 - - -;
#X obj 16 56 table \$2_9;
#X obj 16 77 table \$2_10;
#X obj 15 104 table \$2_11;
#X obj 15 133 table \$2_12;
#X obj 14 160 table \$2_13;
#X obj 2570 -79 loadbang;
#X obj 2571 7 pack s s;
#X obj 2570 -47 t b b;
#X obj 2816 9 pack s s;
#X obj 2817 -47 t b b;
#X obj 3065 9 pack s s;
#X obj 3066 -47 t b b;
#X obj 3311 8 pack s s;
#X obj 3312 -48 t b b;
#X obj 2572 70 soundfiler;
#X msg 2572 43 read -resize \$1 \$2;
#X obj 2816 74 soundfiler;
#X msg 2816 48 read -resize \$1 \$2;
#X obj 2557 97 int;
#X obj 2801 107 int;
#X obj 3066 62 soundfiler;
#X msg 3066 35 read -resize \$1 \$2;
#X obj 3310 66 soundfiler;
#X msg 3310 40 read -resize \$1 \$2;
#X obj 3051 89 int;
#X obj 3295 99 int;
#X obj 3610 0 pack s s;
#X obj 3611 -56 t b b;
#X obj 3609 58 soundfiler;
#X msg 3609 32 read -resize \$1 \$2;
#X obj 3594 91 int;
#X obj 1533 -131 sel 0 1 2 3 4 5 6 7 8 9 10 11 12;
#X obj 2743 -20 symbol \$2_9;
#X obj 2983 -19 symbol \$2_10;
#X obj 3239 -19 symbol \$2_11;
#X obj 3478 -20 symbol \$2_12;
#X obj 3777 -28 symbol \$2_13;
#X obj 858 -15 symbol \$2_6;
#X obj 605 -16 symbol \$2_5;
#X obj 659 524 outlet;
#X obj 1242 710 outlet;
#X obj 534 -74 bng 15 250 50 0 empty empty empty 17 7 0 10 -262144
-1 -1;
#X obj 765 -72 bng 15 250 50 0 empty empty empty 17 7 0 10 -262144
-1 -1;
#X msg 1082 -146 1;
#X msg 1038 -145 0;
#X obj 199 647 sel 1 0;
#X obj 199 625 tgl 15 0 empty empty empty 17 7 0 10 -262144 -1 -1 0
1;
#X msg 189 676 1;
#X msg 225 677 0;
#X text 133 625 reverse;
#X obj 687 676 sel 1 0;
#X obj 688 643 tgl 15 0 empty empty empty 17 7 0 10 -262144 -1 -1 0
1;
#X msg 677 705 1;
#X msg 713 706 0;
#X text 622 643 reverse;
#X obj 198 590 tgl 15 0 empty empty empty 17 7 0 10 -262144 -1 -1 0
1;
#X obj 65 573 receive reverse;
#X obj 399 487 / 22.05;
#X obj 885 481 / 22.05;
#X obj 125 539 loadbang;
#X msg 195 559 0;
#X msg 594 435 0;
#X obj 327 724 spigot;
#X obj 394 717 spigot;
#X msg 393 749 5512 0 \, 0 250;
#X obj 828 701 spigot;
#X obj 888 705 spigot;
#X msg 890 735 5512 0 \, 0 250;
#X obj 383 -15 symbol ../assets/wavfiles/\$1_1.wav;
#X obj 686 -15 symbol ../assets/wavfiles/\$1_2.wav;
#X obj 935 -15 symbol ../assets/wavfiles/\$1_3.wav;
#X obj 1181 -16 symbol ../assets/wavfiles/\$1_4.wav;
#X obj 1467 -37 symbol ../assets/wavfiles/\$1_5.wav;
#X obj 1714 -36 symbol ../assets/wavfiles/\$1_6.wav;
#X obj 1963 -36 symbol ../assets/wavfiles/\$1_7.wav;
#X obj 2209 -37 symbol ../assets/wavfiles/\$1_8.wav;
#X obj 2570 -20 symbol ../assets/wavfiles/\$1_9.wav;
#X obj 2817 -19 symbol ../assets/wavfiles/\$1_10.wav;
#X obj 3066 -19 symbol ../assets/wavfiles/\$1_11.wav;
#X obj 3312 -20 symbol ../assets/wavfiles/\$1_12.wav;
#X obj 3613 -28 symbol ../assets/wavfiles/\$1_13.wav;
#X obj 340 810 line~;
#X obj 833 779 line~;
#X connect 0 0 16 0;
#X connect 0 0 27 0;
#X connect 0 0 29 0;
#X connect 0 0 31 0;
#X connect 1 0 49 0;
#X connect 2 0 8 0;
#X connect 3 0 96 0;
#X connect 4 0 97 0;
#X connect 4 0 98 0;
#X connect 5 0 162 0;
#X connect 5 0 163 0;
#X connect 6 0 181 0;
#X connect 7 0 5 0;
#X connect 8 0 85 0;
#X connect 8 0 87 0;
#X connect 9 0 181 0;
#X connect 10 0 5 0;
#X connect 10 1 9 0;
#X connect 11 0 5 1;
#X connect 12 0 11 1;
#X connect 12 0 7 0;
#X connect 12 0 13 0;
#X connect 13 0 11 0;
#X connect 14 0 15 0;
#X connect 15 0 12 0;
#X connect 16 0 172 0;
#X connect 16 1 17 0;
#X connect 17 0 1 1;
#X connect 17 0 47 0;
#X connect 26 0 53 0;
#X connect 27 0 173 0;
#X connect 27 1 32 0;
#X connect 28 0 57 0;
#X connect 29 0 174 0;
#X connect 29 1 33 0;
#X connect 30 0 59 0;
#X connect 31 0 175 0;
#X connect 31 1 34 0;
#X connect 32 0 26 1;
#X connect 32 0 47 0;
#X connect 33 0 28 1;
#X connect 33 0 47 0;
#X connect 34 0 30 1;
#X connect 34 0 47 0;
#X connect 35 0 51 0;
#X connect 36 0 168 0;
#X connect 36 1 138 0;
#X connect 37 0 63 0;
#X connect 38 0 169 0;
#X connect 38 1 137 0;
#X connect 39 0 70 0;
#X connect 40 0 170 0;
#X connect 40 1 43 0;
#X connect 41 0 67 0;
#X connect 42 0 171 0;
#X connect 42 1 44 0;
#X connect 43 0 39 1;
#X connect 43 0 47 0;
#X connect 44 0 41 1;
#X connect 44 0 47 0;
#X connect 47 0 92 0;
#X connect 47 0 94 0;
#X connect 48 0 54 1;
#X connect 49 0 48 0;
#X connect 50 0 72 1;
#X connect 51 0 50 0;
#X connect 52 0 55 1;
#X connect 53 0 52 0;
#X connect 54 0 4 0;
#X connect 55 0 4 0;
#X connect 56 0 60 1;
#X connect 57 0 56 0;
#X connect 58 0 61 1;
#X connect 59 0 58 0;
#X connect 60 0 4 0;
#X connect 61 0 4 0;
#X connect 62 0 64 1;
#X connect 63 0 62 0;
#X connect 64 0 4 0;
#X connect 65 0 68 1;
#X connect 66 0 69 1;
#X connect 67 0 66 0;
#X connect 68 0 4 0;
#X connect 69 0 4 0;
#X connect 70 0 65 0;
#X connect 71 0 36 0;
#X connect 71 0 38 0;
#X connect 71 0 40 0;
#X connect 71 0 42 0;
#X connect 72 0 4 0;
#X connect 73 0 74 0;
#X connect 73 0 158 0;
#X connect 74 0 165 0;
#X connect 74 0 166 0;
#X connect 75 0 182 0;
#X connect 76 0 74 0;
#X connect 77 0 182 0;
#X connect 78 0 74 1;
#X connect 79 0 78 1;
#X connect 79 0 76 0;
#X connect 79 0 80 0;
#X connect 80 0 78 0;
#X connect 81 0 82 0;
#X connect 82 0 79 0;
#X connect 85 0 10 0;
#X connect 86 0 74 0;
#X connect 86 1 77 0;
#X connect 87 0 86 0;
#X connect 88 0 89 0;
#X connect 88 0 161 0;
#X connect 89 0 90 0;
#X connect 89 0 93 0;
#X connect 90 0 85 1;
#X connect 90 0 98 1;
#X connect 91 0 87 1;
#X connect 91 0 97 1;
#X connect 92 0 46 0;
#X connect 93 0 92 1;
#X connect 94 0 84 0;
#X connect 95 0 94 1;
#X connect 96 0 8 0;
#X connect 96 1 131 0;
#X connect 96 2 90 0;
#X connect 96 2 93 0;
#X connect 96 2 95 0;
#X connect 96 2 91 0;
#X connect 97 0 73 0;
#X connect 97 0 74 0;
#X connect 97 0 140 0;
#X connect 98 0 99 0;
#X connect 98 0 5 0;
#X connect 98 0 139 0;
#X connect 99 0 157 0;
#X connect 105 0 107 0;
#X connect 105 0 109 0;
#X connect 105 0 111 0;
#X connect 105 0 113 0;
#X connect 105 0 127 0;
#X connect 106 0 115 0;
#X connect 107 0 176 0;
#X connect 107 1 132 0;
#X connect 108 0 117 0;
#X connect 109 0 177 0;
#X connect 109 1 133 0;
#X connect 110 0 121 0;
#X connect 111 0 178 0;
#X connect 111 1 134 0;
#X connect 112 0 123 0;
#X connect 113 0 179 0;
#X connect 113 1 135 0;
#X connect 114 0 118 1;
#X connect 115 0 114 0;
#X connect 116 0 119 1;
#X connect 117 0 116 0;
#X connect 118 0 4 0;
#X connect 119 0 4 0;
#X connect 120 0 124 1;
#X connect 121 0 120 0;
#X connect 122 0 125 1;
#X connect 123 0 122 0;
#X connect 124 0 4 0;
#X connect 125 0 4 0;
#X connect 126 0 129 0;
#X connect 127 0 180 0;
#X connect 127 1 136 0;
#X connect 128 0 130 1;
#X connect 129 0 128 0;
#X connect 130 0 4 0;
#X connect 131 0 72 0;
#X connect 131 0 138 0;
#X connect 131 1 64 0;
#X connect 131 1 137 0;
#X connect 131 2 43 0;
#X connect 131 2 68 0;
#X connect 131 3 44 0;
#X connect 131 3 69 0;
#X connect 131 4 17 0;
#X connect 131 4 54 0;
#X connect 131 5 32 0;
#X connect 131 5 55 0;
#X connect 131 6 33 0;
#X connect 131 6 60 0;
#X connect 131 7 34 0;
#X connect 131 7 61 0;
#X connect 131 8 118 0;
#X connect 131 8 132 0;
#X connect 131 9 119 0;
#X connect 131 9 133 0;
#X connect 131 10 124 0;
#X connect 131 10 134 0;
#X connect 131 11 125 0;
#X connect 131 11 135 0;
#X connect 131 12 130 0;
#X connect 131 12 136 0;
#X connect 132 0 106 1;
#X connect 132 0 47 0;
#X connect 133 0 108 1;
#X connect 133 0 47 0;
#X connect 134 0 110 1;
#X connect 134 0 47 0;
#X connect 135 0 112 1;
#X connect 135 0 47 0;
#X connect 136 0 126 1;
#X connect 136 0 47 0;
#X connect 137 0 37 1;
#X connect 137 0 47 0;
#X connect 138 0 35 1;
#X connect 138 0 47 0;
#X connect 141 0 36 0;
#X connect 142 0 38 0;
#X connect 143 0 131 0;
#X connect 144 0 131 0;
#X connect 145 0 148 0;
#X connect 145 1 147 0;
#X connect 146 0 145 0;
#X connect 146 0 163 1;
#X connect 147 0 162 1;
#X connect 148 0 162 1;
#X connect 150 0 153 0;
#X connect 150 1 152 0;
#X connect 151 0 150 0;
#X connect 151 0 166 1;
#X connect 152 0 165 1;
#X connect 153 0 165 1;
#X connect 155 0 146 0;
#X connect 155 0 151 0;
#X connect 156 0 155 0;
#X connect 157 0 7 0;
#X connect 157 0 11 0;
#X connect 158 0 76 0;
#X connect 158 0 78 0;
#X connect 159 0 160 0;
#X connect 160 0 155 0;
#X connect 161 0 91 0;
#X connect 161 0 95 0;
#X connect 162 0 6 0;
#X connect 163 0 164 0;
#X connect 164 0 181 0;
#X connect 165 0 75 0;
#X connect 166 0 167 0;
#X connect 167 0 182 0;
#X connect 168 0 35 0;
#X connect 169 0 37 0;
#X connect 170 0 39 0;
#X connect 171 0 41 0;
#X connect 172 0 1 0;
#X connect 173 0 26 0;
#X connect 174 0 28 0;
#X connect 175 0 30 0;
#X connect 176 0 106 0;
#X connect 177 0 108 0;
#X connect 178 0 110 0;
#X connect 179 0 112 0;
#X connect 180 0 126 0;
#X connect 181 0 45 0;
#X connect 182 0 83 0;
