#N canvas 1491 22 901 779 10;
#X floatatom 212 325 5 0 0 0 - - -;
#X obj 77 71 bng 15 250 50 0 empty empty empty 17 7 0 10 -262144 -1
-1;
#X obj 219 138 bng 15 250 50 0 empty empty empty 17 7 0 10 -262144
-1 -1;
#X obj 218 213 tabread modes;
#X obj 495 759 outlet~;
#X obj 221 541 hip~ 5;
#X obj 223 599 *~ 1;
#X obj 399 381 inlet;
#X obj 324 392 loadbang;
#X obj 129 493 tabread~;
#X obj 253 498 tabread~;
#X obj 258 168 i;
#X obj 288 62 * 100;
#X obj 279 129 tabread notes;
#X obj 279 105 i;
#X floatatom 347 57 5 0 0 0 - - -;
#X obj 681 530 hip~ 5;
#X obj 684 76 sel 0 1;
#X msg 700 118 1;
#X msg 741 121 0;
#X obj 633 340 tabplay~;
#X obj 684 294 bng 15 250 50 0 empty empty empty 17 7 0 10 -262144
-1 -1;
#X obj 686 484 *~;
#X obj 778 424 snapshot~;
#X floatatom 778 447 0 0 0 0 - - -;
#X obj 788 397 metro 100;
#X obj 801 364 tgl 15 0 empty empty empty 17 7 0 10 -262144 -1 -1 0
1;
#X msg 766 281 0;
#X obj 749 366 vline~;
#X msg 738 333 1 100 \, 1 1 100 \, 0 100 100;
#N canvas 0 22 450 300 testcounter 0;
#X floatatom 96 36 5 0 0 0 - - -;
#X obj 97 87 + 1;
#X floatatom 97 123 5 0 0 0 - - -;
#X obj 81 185 int;
#X obj 34 63 bng 15 250 50 0 empty empty empty 17 7 0 10 -262144 -1
-1;
#X msg 131 85 0;
#X obj 100 151 % 8;
#X obj 165 165 outlet;
#X obj 32 15 inlet;
#X connect 0 0 1 0;
#X connect 1 0 2 0;
#X connect 2 0 6 0;
#X connect 2 0 7 0;
#X connect 3 0 0 0;
#X connect 4 0 3 0;
#X connect 5 0 2 0;
#X connect 6 0 3 1;
#X connect 8 0 4 0;
#X restore 77 96 pd testcounter;
#X obj 229 350 modesampler_vs \$1 \$1\$2;
#X obj 47 312 osc~;
#X obj 126 458 *~;
#X obj 50 392 *~ 0.1;
#X obj 61 417 +~ 1;
#X msg 43 275 0.1;
#X msg 84 276 0;
#X obj 46 235 sel 0 1;
#X obj 44 200 tgl 15 0 empty empty empty 17 7 0 10 -262144 -1 -1 0
1;
#X obj 31 170 receive peyote;
#X obj 235 463 *~;
#X msg 117 278 0.25;
#X floatatom 71 138 5 0 0 0 - - -;
#X obj 560 30 inlet;
#X floatatom 526 67 5 0 0 0 - - -;
#X obj 528 88 t b f;
#X obj 14 111 loadbang;
#X msg 14 133 0;
#X obj 542 258 send reverse;
#X obj 539 213 tgl 15 0 empty empty empty 17 7 0 10 -262144 -1 -1 0
1;
#X obj 123 588 ys.snapshot;
#X floatatom 137 631 5 0 0 0 - - -;
#X msg 308 429 -1;
#X floatatom 542 135 5 0 0 0 - - -;
#X obj 542 113 * 8;
#X obj 645 207 tgl 15 0 empty empty empty 17 7 0 10 -262144 -1 -1 0
1;
#X obj 648 252 send peyote;
#X obj 231 279 + 0;
#X msg 380 271 5;
#X msg 418 271 7;
#X msg 336 269 0;
#X obj 342 235 bng 15 250 50 0 empty empty empty 17 7 0 10 -262144
-1 -1;
#X obj 378 233 bng 15 250 50 0 empty empty empty 17 7 0 10 -262144
-1 -1;
#X obj 416 235 bng 15 250 50 0 empty empty empty 17 7 0 10 -262144
-1 -1;
#X obj 377 146 r keychange;
#X obj 377 168 sel 0 1 2 3;
#X connect 0 0 31 0;
#X connect 1 0 30 0;
#X connect 1 0 2 0;
#X connect 2 0 11 0;
#X connect 3 0 58 0;
#X connect 5 0 6 0;
#X connect 6 0 4 0;
#X connect 7 0 6 1;
#X connect 8 0 53 0;
#X connect 9 0 5 0;
#X connect 10 0 5 0;
#X connect 11 0 3 0;
#X connect 12 0 14 0;
#X connect 13 0 11 1;
#X connect 14 0 13 0;
#X connect 15 0 14 0;
#X connect 16 0 4 0;
#X connect 17 0 18 0;
#X connect 17 0 21 0;
#X connect 17 1 19 0;
#X connect 20 0 22 0;
#X connect 21 0 29 0;
#X connect 21 0 20 0;
#X connect 22 0 16 0;
#X connect 23 0 24 0;
#X connect 25 0 23 0;
#X connect 26 0 25 0;
#X connect 27 0 28 0;
#X connect 28 0 22 1;
#X connect 28 0 23 0;
#X connect 29 0 28 0;
#X connect 30 0 3 0;
#X connect 30 0 43 0;
#X connect 31 0 33 0;
#X connect 31 1 9 0;
#X connect 31 1 20 0;
#X connect 31 3 41 0;
#X connect 31 4 10 0;
#X connect 31 4 20 0;
#X connect 32 0 34 0;
#X connect 33 0 9 0;
#X connect 34 0 35 0;
#X connect 35 0 33 1;
#X connect 35 0 41 1;
#X connect 36 0 32 0;
#X connect 37 0 32 0;
#X connect 38 0 37 0;
#X connect 38 0 42 0;
#X connect 38 1 36 0;
#X connect 39 0 38 0;
#X connect 40 0 39 0;
#X connect 41 0 10 0;
#X connect 42 0 32 1;
#X connect 44 0 45 0;
#X connect 45 0 46 0;
#X connect 46 0 2 0;
#X connect 46 1 55 0;
#X connect 46 1 12 0;
#X connect 47 0 48 0;
#X connect 48 0 39 0;
#X connect 50 0 49 0;
#X connect 51 0 52 0;
#X connect 53 0 41 1;
#X connect 53 0 33 1;
#X connect 55 0 54 0;
#X connect 56 0 57 0;
#X connect 58 0 0 0;
#X connect 59 0 58 1;
#X connect 60 0 58 1;
#X connect 61 0 58 1;
#X connect 62 0 61 0;
#X connect 63 0 59 0;
#X connect 64 0 60 0;
#X connect 65 0 66 0;
#X connect 66 0 62 0;
#X connect 66 1 63 0;
#X connect 66 2 62 0;
#X connect 66 3 64 0;
