#N canvas 415 240 594 480 10;
#X obj 151 299 dac~;
#X obj 179 6 notein;
#N canvas 364 60 1087 911 monomodes1 0;
#X obj 367 57 noise~;
#X obj 379 110 *~;
#X obj 416 79 line~;
#X obj -65 481 vcf~ 1;
#X msg 426 43 0 10;
#X obj 280 -7 mtof;
#X obj -71 435 *;
#X obj -88 526 *~;
#X obj 305 797 outlet~;
#X obj -113 336 log;
#X obj -117 389 *;
#X obj 279 -76 inlet;
#X obj 511 -82 inlet;
#X obj 471 54 float;
#X obj 448 2 t b b f;
#X obj -120 363 t f f;
#X obj 222 -42 moses 0.1;
#X obj 111 134 hsl 128 15 10 10000 1 1 empty empty empty -2 -8 0 10
-262144 -1 -1 5700 1;
#X obj 7 369 pow -1;
#X obj 8 347 * -1;
#X obj -31 326 t f f;
#X obj -60 404 +;
#X obj -67 368 clip 0 16;
#X obj 112 117 nbx 5 14 -16 16 0 1 empty empty empty 0 -8 0 10 -262144
-1 -1 -0.5 256;
#X obj 172 116 hsl 64 15 0 1 0 1 empty empty empty -2 -8 0 10 -262144
-1 -1 3400 1;
#X obj -183 422 *;
#X obj -137 476 *;
#X obj -116 436 float;
#X obj -182 398 t f f b;
#X obj 195 520 vcf~ 1;
#X obj 189 474 *;
#X obj 172 565 *~;
#X obj 147 375 log;
#X obj 143 428 *;
#X obj 140 402 t f f;
#X obj 111 174 hsl 128 15 10 10000 1 1 empty empty empty -2 -8 0 10
-262144 -1 -1 3100 1;
#X obj 267 408 pow -1;
#X obj 268 386 * -1;
#X obj 229 365 t f f;
#X obj 200 443 +;
#X obj 193 407 clip 0 16;
#X obj 112 157 nbx 5 14 -16 16 0 1 empty empty empty 0 -8 0 10 -262144
-1 -1 3.43 256;
#X obj 172 156 hsl 64 15 0 1 0 1 empty empty empty -2 -8 0 10 -262144
-1 -1 1900 1;
#X obj 77 461 *;
#X obj 123 515 *;
#X obj 144 475 float;
#X obj 78 437 t f f b;
#X obj 387 613 vcf~ 1;
#X obj 381 567 *;
#X obj 364 658 *~;
#X obj 339 468 log;
#X obj 335 521 *;
#X obj 332 495 t f f;
#X obj 111 214 hsl 128 15 10 10000 1 1 empty empty empty -2 -8 0 10
-262144 -1 -1 5600 1;
#X obj 459 501 pow -1;
#X obj 460 479 * -1;
#X obj 421 458 t f f;
#X obj 392 536 +;
#X obj 385 500 clip 0 16;
#X obj 112 197 nbx 5 14 -16 16 0 1 empty empty empty 0 -8 0 10 -262144
-1 -1 4.743 256;
#X obj 172 196 hsl 64 15 0 1 0 1 empty empty empty -2 -8 0 10 -262144
-1 -1 5200 1;
#X obj 269 554 *;
#X obj 315 608 *;
#X obj 336 568 float;
#X obj 270 530 t f f b;
#X obj 647 652 vcf~ 1;
#X obj 641 606 *;
#X obj 624 697 *~;
#X obj 599 507 log;
#X obj 595 560 *;
#X obj 592 534 t f f;
#X obj 111 254 hsl 128 15 10 10000 1 1 empty empty empty -2 -8 0 10
-262144 -1 -1 5700 1;
#X obj 719 540 pow -1;
#X obj 720 518 * -1;
#X obj 681 497 t f f;
#X obj 652 575 +;
#X obj 645 539 clip 0 16;
#X obj 112 237 nbx 5 14 -16 16 0 1 empty empty empty 0 -8 0 10 -262144
-1 -1 2.577 256;
#X obj 172 236 hsl 64 15 0 1 0 1 empty empty empty -2 -8 0 10 -262144
-1 -1 3200 1;
#X obj 529 593 *;
#X obj 575 647 *;
#X obj 596 607 float;
#X obj 530 569 t f f b;
#X obj 903 685 vcf~ 1;
#X obj 897 639 *;
#X obj 880 730 *~;
#X obj 855 540 log;
#X obj 851 593 *;
#X obj 848 567 t f f;
#X obj 111 293 hsl 128 15 10 10000 1 1 empty empty empty -2 -8 0 10
-262144 -1 -1 7800 1;
#X obj 975 573 pow -1;
#X obj 976 551 * -1;
#X obj 937 530 t f f;
#X obj 908 608 +;
#X obj 901 572 clip 0 16;
#X obj 112 276 nbx 5 14 -16 16 0 1 empty empty empty 0 -8 0 10 -262144
-1 -1 1.718 256;
#X obj 172 275 hsl 64 15 0 1 0 1 empty empty empty -2 -8 0 10 -262144
-1 -1 4300 1;
#X obj 785 626 *;
#X obj 831 680 *;
#X obj 852 640 float;
#X obj 786 602 t f f b;
#X obj 209 102 bng 10 250 50 0 empty empty rnd 17 7 0 10 -260097 -1
-1;
#X obj -87 -85 random 3200;
#X obj -81 -64 - 1600;
#X obj -78 -42 / 1000;
#X obj -126 -12 random 3200;
#X obj -120 9 - 1600;
#X obj -117 31 / 1000;
#X obj -140 63 random 3200;
#X obj -134 84 - 1600;
#X obj -131 106 / 1000;
#X obj -179 136 random 3200;
#X obj -173 157 - 1600;
#X obj -170 179 / 1000;
#X obj -193 208 random 3200;
#X obj -187 229 - 1600;
#X obj -184 251 / 1000;
#X text -85 -116 simple monophonic "modal synth" \, 7/2010 martin brinkmann
;
#X obj 496 -59 moses 0.0001;
#X connect 0 0 1 0;
#X connect 1 0 3 0;
#X connect 1 0 29 0;
#X connect 1 0 47 0;
#X connect 1 0 65 0;
#X connect 1 0 83 0;
#X connect 2 0 1 1;
#X connect 3 0 7 0;
#X connect 4 0 2 0;
#X connect 5 0 6 0;
#X connect 5 0 30 0;
#X connect 5 0 48 0;
#X connect 5 0 66 0;
#X connect 5 0 84 0;
#X connect 6 0 3 1;
#X connect 7 0 8 0;
#X connect 9 0 15 0;
#X connect 10 0 27 0;
#X connect 11 0 16 0;
#X connect 12 0 118 0;
#X connect 13 0 2 0;
#X connect 14 0 4 0;
#X connect 14 1 13 0;
#X connect 14 2 13 1;
#X connect 15 0 10 0;
#X connect 15 1 10 1;
#X connect 16 1 5 0;
#X connect 17 0 9 0;
#X connect 17 0 3 2;
#X connect 18 0 21 1;
#X connect 19 0 18 0;
#X connect 20 0 22 0;
#X connect 20 1 19 0;
#X connect 21 0 6 1;
#X connect 22 0 21 0;
#X connect 23 0 20 0;
#X connect 24 0 28 0;
#X connect 25 0 26 0;
#X connect 26 0 7 1;
#X connect 27 0 26 1;
#X connect 28 0 25 0;
#X connect 28 1 25 1;
#X connect 28 2 27 0;
#X connect 29 0 31 0;
#X connect 30 0 29 1;
#X connect 31 0 8 0;
#X connect 32 0 34 0;
#X connect 33 0 45 0;
#X connect 34 0 33 0;
#X connect 34 1 33 1;
#X connect 35 0 32 0;
#X connect 35 0 29 2;
#X connect 36 0 39 1;
#X connect 37 0 36 0;
#X connect 38 0 40 0;
#X connect 38 1 37 0;
#X connect 39 0 30 1;
#X connect 40 0 39 0;
#X connect 41 0 38 0;
#X connect 42 0 46 0;
#X connect 43 0 44 0;
#X connect 44 0 31 1;
#X connect 45 0 44 1;
#X connect 46 0 43 0;
#X connect 46 1 43 1;
#X connect 46 2 45 0;
#X connect 47 0 49 0;
#X connect 48 0 47 1;
#X connect 49 0 8 0;
#X connect 50 0 52 0;
#X connect 51 0 63 0;
#X connect 52 0 51 0;
#X connect 52 1 51 1;
#X connect 53 0 50 0;
#X connect 53 0 47 2;
#X connect 54 0 57 1;
#X connect 55 0 54 0;
#X connect 56 0 58 0;
#X connect 56 1 55 0;
#X connect 57 0 48 1;
#X connect 58 0 57 0;
#X connect 59 0 56 0;
#X connect 60 0 64 0;
#X connect 61 0 62 0;
#X connect 62 0 49 1;
#X connect 63 0 62 1;
#X connect 64 0 61 0;
#X connect 64 1 61 1;
#X connect 64 2 63 0;
#X connect 65 0 67 0;
#X connect 66 0 65 1;
#X connect 67 0 8 0;
#X connect 68 0 70 0;
#X connect 69 0 81 0;
#X connect 70 0 69 0;
#X connect 70 1 69 1;
#X connect 71 0 68 0;
#X connect 71 0 65 2;
#X connect 72 0 75 1;
#X connect 73 0 72 0;
#X connect 74 0 76 0;
#X connect 74 1 73 0;
#X connect 75 0 66 1;
#X connect 76 0 75 0;
#X connect 77 0 74 0;
#X connect 78 0 82 0;
#X connect 79 0 80 0;
#X connect 80 0 67 1;
#X connect 81 0 80 1;
#X connect 82 0 79 0;
#X connect 82 1 79 1;
#X connect 82 2 81 0;
#X connect 83 0 85 0;
#X connect 84 0 83 1;
#X connect 85 0 8 0;
#X connect 86 0 88 0;
#X connect 87 0 99 0;
#X connect 88 0 87 0;
#X connect 88 1 87 1;
#X connect 89 0 86 0;
#X connect 89 0 83 2;
#X connect 90 0 93 1;
#X connect 91 0 90 0;
#X connect 92 0 94 0;
#X connect 92 1 91 0;
#X connect 93 0 84 1;
#X connect 94 0 93 0;
#X connect 95 0 92 0;
#X connect 96 0 100 0;
#X connect 97 0 98 0;
#X connect 98 0 85 1;
#X connect 99 0 98 1;
#X connect 100 0 97 0;
#X connect 100 1 97 1;
#X connect 100 2 99 0;
#X connect 101 0 102 0;
#X connect 101 0 105 0;
#X connect 101 0 108 0;
#X connect 101 0 111 0;
#X connect 101 0 114 0;
#X connect 102 0 103 0;
#X connect 103 0 104 0;
#X connect 104 0 23 0;
#X connect 105 0 106 0;
#X connect 106 0 107 0;
#X connect 107 0 41 0;
#X connect 108 0 109 0;
#X connect 109 0 110 0;
#X connect 110 0 59 0;
#X connect 111 0 112 0;
#X connect 112 0 113 0;
#X connect 113 0 77 0;
#X connect 114 0 115 0;
#X connect 115 0 116 0;
#X connect 116 0 95 0;
#X connect 118 1 14 0;
#X coords 0 -1 1 1 150 210 1 100 100;
#X restore 162 62 pd monomodes1;
#X obj 268 28 / 128;
#X connect 1 0 2 0;
#X connect 1 1 3 0;
#X connect 2 0 0 0;
#X connect 2 0 0 1;
#X connect 3 0 2 1;
