#N canvas 1105 136 789 526 10;
#X obj 168 15 r fromOF;
#X obj 168 36 route list;
#X obj 400 111 bng 15 250 50 0 empty empty empty 17 7 0 10 -262144
-1 -1;
#X obj 405 216 dac~;
#X obj 398 137 sounds_pitch mountainbosson;
#X obj 159 62 route mountain_boss_kill mountain_boss_run mountain_boss_hit
mountain_boss_on;
#X obj 297 472 dac~;
#X obj 290 405 *~ 0.5;
#X obj 286 218 t b;
#X obj 287 317 bng 15 250 50 0 empty empty empty 17 7 0 10 -262144
-1 -1;
#X obj 438 318 * 0.01;
#X floatatom 440 348 5 0 0 0 - - -;
#X obj 287 243 t b b;
#X obj 367 292 loadbang;
#X msg 367 314 1;
#X obj 286 196 bng 15 250 50 0 empty empty empty 17 7 0 10 -262144
-1 -1;
#X obj 164 446 throw~ heavydelay;
#X obj 269 367 sounds_pitch mountainbosswalk;
#X obj 74 130 bng 15 250 50 0 empty empty empty 17 7 0 10 -262144 -1
-1;
#X obj 79 235 dac~;
#X obj 79 190 *~ 0.3;
#X obj 72 156 sounds_pitch mountainbosskill;
#X obj 544 354 *~ 0.5;
#X obj 527 421 dac~;
#X obj 577 138 t b;
#X obj 578 265 bng 15 250 50 0 empty empty empty 17 7 0 10 -262144
-1 -1;
#X obj 675 178 random 40;
#X obj 683 218 + 80;
#X obj 664 247 * 0.01;
#X floatatom 656 282 5 0 0 0 - - -;
#X obj 578 163 t b b;
#X obj 609 199 loadbang;
#X msg 601 241 1;
#X obj 582 112 bng 15 250 50 0 empty empty empty 17 7 0 10 -262144
-1 -1;
#X obj 577 138 t b;
#X obj 578 265 bng 15 250 50 0 empty empty empty 17 7 0 10 -262144
-1 -1;
#X obj 578 163 t b b;
#X obj 582 112 bng 15 250 50 0 empty empty empty 17 7 0 10 -262144
-1 -1;
#X obj 603 398 throw~ mediumdelay;
#X obj 553 302 sounds_pitch mountainbosshit;
#X obj 431 267 random 100;
#X obj 438 296 + 50;
#X obj 405 171 *~ 0.7;
#X connect 0 0 1 0;
#X connect 1 0 5 0;
#X connect 2 0 4 0;
#X connect 4 0 42 0;
#X connect 5 0 18 0;
#X connect 5 1 15 0;
#X connect 5 2 33 0;
#X connect 5 3 2 0;
#X connect 7 0 6 0;
#X connect 7 0 6 1;
#X connect 8 0 12 0;
#X connect 9 0 17 0;
#X connect 10 0 11 0;
#X connect 11 0 17 1;
#X connect 12 0 9 0;
#X connect 12 1 40 0;
#X connect 13 0 14 0;
#X connect 14 0 11 0;
#X connect 15 0 8 0;
#X connect 17 0 7 0;
#X connect 18 0 21 0;
#X connect 20 0 19 0;
#X connect 20 0 19 1;
#X connect 20 0 16 0;
#X connect 21 0 20 0;
#X connect 22 0 23 0;
#X connect 22 0 23 1;
#X connect 22 0 38 0;
#X connect 24 0 30 0;
#X connect 25 0 39 0;
#X connect 26 0 27 0;
#X connect 27 0 28 0;
#X connect 28 0 29 0;
#X connect 29 0 39 1;
#X connect 30 0 25 0;
#X connect 30 1 26 0;
#X connect 31 0 32 0;
#X connect 32 0 29 0;
#X connect 33 0 24 0;
#X connect 34 0 36 0;
#X connect 36 0 35 0;
#X connect 37 0 34 0;
#X connect 39 0 22 0;
#X connect 40 0 41 0;
#X connect 41 0 10 0;
#X connect 42 0 3 0;
#X connect 42 0 3 1;
