#N canvas 1056 77 1440 848 10;
#X floatatom 128 135 5 0 0 0 - - -;
#X obj 100 449 *~;
#X obj 154 418 osc~;
#X obj 125 33 inlet;
#X obj 205 418 phasor~;
#X obj 156 451 *~;
#X obj 128 108 mtof;
#X obj 98 487 *~ 0.1;
#X obj 313 849 outlet~;
#X floatatom 128 285 5 0 0 0 - - -;
#X obj 128 260 line;
#X obj 134 172 pack 0 0;
#X msg 130 229 \$1 \$2;
#X floatatom 178 151 5 0 0 0 - - -;
#X floatatom 577 394 5 0 0 0 - - -;
#X obj 354 557 vsl 8 128 1 129 1 1 s2p12 s2p12r empty 0 -8 0 8 -261681
-1 -1 2200 1;
#X obj 307 713 *~;
#X obj 307 734 clip~ -1 1;
#X obj 197 51 metro 400;
#X obj 202 83 random 100;
#X obj 194 16 tgl 15 0 empty empty empty 17 7 0 10 -262144 -1 -1 1
1;
#X floatatom 50 313 5 0 0 0 - - -;
#X obj 302 524 tgl 15 0 empty empty empty 17 7 0 10 -262144 -1 -1 1
1;
#X floatatom 251 524 5 0 0 0 - - -;
#X obj 231 481 loadbang;
#X msg 300 500 1;
#X obj 230 119 r portamento;
#X obj 313 788 *~ 0.3;
#X obj 205 374 * 1;
#X obj 159 486 *~ 0.06;
#X obj 24 227 r notelength\$1;
#X obj 225 555 ys.lpfilter2;
#X obj 98 417 line~;
#X msg 54 367 0 200;
#X msg 102 366 1;
#X obj 124 309 t b b f;
#X msg 246 507 4;
#X obj 557 168 inlet;
#X obj 556 209 * 40;
#X obj 564 245 + 80;
#X obj 575 355 line;
#X msg 573 306 \$1 200;
#X obj 146 61 - 12;
#X obj 101 551 ys.snapshot;
#X floatatom 101 573 5 0 0 0 - - -;
#X connect 0 0 11 0;
#X connect 1 0 7 0;
#X connect 2 0 1 0;
#X connect 3 0 42 0;
#X connect 4 0 5 0;
#X connect 5 0 29 0;
#X connect 6 0 0 0;
#X connect 7 0 31 0;
#X connect 9 0 35 0;
#X connect 9 0 31 1;
#X connect 10 0 9 0;
#X connect 11 0 12 0;
#X connect 12 0 10 0;
#X connect 13 0 11 1;
#X connect 14 0 31 1;
#X connect 15 0 16 1;
#X connect 16 0 17 0;
#X connect 17 0 27 0;
#X connect 18 0 19 0;
#X connect 19 0 6 0;
#X connect 20 0 18 0;
#X connect 22 0 31 3;
#X connect 23 0 31 2;
#X connect 24 0 25 0;
#X connect 24 0 36 0;
#X connect 25 0 22 0;
#X connect 26 0 13 0;
#X connect 27 0 8 0;
#X connect 28 0 4 0;
#X connect 29 0 31 0;
#X connect 31 0 16 0;
#X connect 32 0 1 1;
#X connect 32 0 5 1;
#X connect 33 0 32 0;
#X connect 34 0 32 0;
#X connect 35 0 33 0;
#X connect 35 1 34 0;
#X connect 35 2 28 0;
#X connect 35 2 2 0;
#X connect 36 0 23 0;
#X connect 37 0 38 0;
#X connect 38 0 39 0;
#X connect 39 0 41 0;
#X connect 40 0 14 0;
#X connect 41 0 40 0;
#X connect 42 0 6 0;
#X connect 43 0 44 0;
