#N canvas 868 149 974 819 10;
#X floatatom 228 244 5 0 0 0 - - -;
#X obj 219 138 bng 15 250 50 0 empty empty empty 17 7 0 10 -262144
-1 -1;
#X obj 210 10 inlet;
#X obj 218 213 tabread modes;
#X obj 495 759 outlet~;
#X obj 221 541 hip~ 5;
#X obj 452 403 loadbang;
#X obj 129 493 tabread~;
#X obj 253 498 tabread~;
#X obj 267 32 inlet;
#X obj 258 168 i;
#X obj 288 62 * 100;
#X obj 279 129 tabread notes;
#X obj 279 105 i;
#X floatatom 336 82 5 0 0 0 - - -;
#X obj 150 424 *~;
#X obj 234 421 *~;
#X msg 155 209 0;
#X msg 112 212 1;
#X obj 681 530 hip~ 5;
#X obj 684 76 sel 0 1;
#X msg 700 118 1;
#X msg 741 121 0;
#X obj 684 294 bng 15 250 50 0 empty empty empty 17 7 0 10 -262144
-1 -1;
#X msg 766 281 0;
#X obj 197 95 sel 1 0;
#X obj 225 312 modesampler_vs \$1 \$1\$2;
#X obj 267 683 *~;
#X obj 413 610 spigot;
#X obj 447 582 tgl 15 0 empty empty empty 17 7 0 10 -262144 -1 -1 0
1;
#X obj 487 609 spigot;
#X obj 521 581 tgl 15 0 empty empty empty 17 7 0 10 -262144 -1 -1 1
1;
#X obj 476 454 sel 1 0;
#X msg 466 483 1;
#X msg 502 484 0;
#X obj 529 353 receive reverse;
#X obj 126 458 *~;
#X obj 235 463 *~;
#X obj 560 30 inlet;
#X floatatom 526 67 5 0 0 0 - - -;
#X obj 528 88 t b f;
#X obj 135 128 loadbang;
#X obj 276 194 bng 15 250 50 0 empty empty empty 17 7 0 10 -262144
-1 -1;
#X obj 724 730 send reverse;
#X obj 723 704 tgl 15 0 empty empty empty 17 7 0 10 -262144 -1 -1 0
1;
#X obj 189 56 tgl 15 0 empty empty empty 17 7 0 10 -262144 -1 -1 0
1;
#X msg 538 484 1;
#X msg 569 483 0;
#X floatatom 314 26 5 0 0 0 - - -;
#X obj 542 113 * 14;
#X obj 542 142 i;
#X obj 415 652 line~;
#X obj 513 514 t b b;
#X msg 553 535 0;
#X obj 404 516 t b b;
#X msg 399 539 1 50;
#X msg 444 537 0;
#X msg 508 537 1 70;
#X obj 413 222 t b f;
#X obj 554 396 loadbang;
#X msg 554 418 1;
#X msg 834 158 5;
#X msg 872 158 7;
#X msg 790 156 0;
#X obj 796 122 bng 15 250 50 0 empty empty empty 17 7 0 10 -262144
-1 -1;
#X obj 832 120 bng 15 250 50 0 empty empty empty 17 7 0 10 -262144
-1 -1;
#X obj 870 122 bng 15 250 50 0 empty empty empty 17 7 0 10 -262144
-1 -1;
#X obj 794 73 r keychange;
#X obj 794 95 sel 0 1 2 3;
#X obj 779 198 + 0;
#X obj 779 220 % 13;
#X floatatom 779 242 5 0 0 0 - - -;
#X obj 826 200 + 0;
#X obj 826 222 % 13;
#X floatatom 826 244 5 0 0 0 - - -;
#X msg 416 478 1;
#X obj 375 20 bng 15 250 50 0 empty empty empty 17 7 0 10 -262144 -1
-1;
#N canvas 950 131 450 300 envelope 0;
#X msg 194 219 1 \$1;
#X msg 150 218 0 \$1;
#X obj 150 146 t b b;
#X obj 187 46 inlet attack;
#X obj 289 45 inlet decay;
#X obj 77 46 inlet trigger;
#X obj 187 87 t f f;
#X obj 150 196 f 50;
#X obj 194 197 f 50;
#X text 235 199 <-- default values 50 ms;
#X text 236 88 <-- set floats nicely;
#X obj 150 173 del 50;
#X text 151 9 envelope subpatch;
#X obj 175 243 line~;
#X obj 175 267 outlet~;
#X connect 0 0 13 0;
#X connect 1 0 13 0;
#X connect 2 0 11 0;
#X connect 2 1 8 0;
#X connect 3 0 6 0;
#X connect 4 0 7 1;
#X connect 5 0 2 0;
#X connect 6 0 11 1;
#X connect 6 1 8 1;
#X connect 7 0 1 0;
#X connect 8 0 0 0;
#X connect 11 0 7 0;
#X connect 13 0 14 0;
#X restore 297 637 pd envelope;
#X floatatom 315 599 5 0 0 0 - - -;
#X floatatom 355 612 5 0 0 0 - - -;
#X obj 302 545 loadbang;
#X msg 352 569 1000;
#X floatatom 248 352 5 0 0 0 - - -;
#X floatatom 353 356 5 0 0 0 - - -;
#X obj 321 425 / 22050;
#X obj 366 387 samplerate~;
#X obj 409 339 loadbang;
#X obj 321 447 * 1000;
#X floatatom 321 469 5 0 0 0 - - -;
#X msg 309 566 30;
#X connect 0 0 26 0;
#X connect 1 0 10 0;
#X connect 2 0 20 0;
#X connect 2 0 25 0;
#X connect 3 0 69 0;
#X connect 5 0 27 0;
#X connect 6 0 75 0;
#X connect 7 0 5 0;
#X connect 8 0 5 0;
#X connect 9 0 11 0;
#X connect 10 0 42 0;
#X connect 10 0 3 0;
#X connect 11 0 13 0;
#X connect 12 0 10 0;
#X connect 13 0 12 0;
#X connect 14 0 13 0;
#X connect 15 0 36 0;
#X connect 16 0 37 0;
#X connect 17 0 16 1;
#X connect 17 0 15 1;
#X connect 18 0 15 1;
#X connect 18 0 16 1;
#X connect 19 0 4 0;
#X connect 20 0 21 0;
#X connect 20 0 23 0;
#X connect 20 1 22 0;
#X connect 25 0 1 0;
#X connect 25 0 18 0;
#X connect 25 1 1 0;
#X connect 25 1 17 0;
#X connect 26 0 15 0;
#X connect 26 1 7 0;
#X connect 26 2 82 0;
#X connect 26 3 16 0;
#X connect 26 4 8 0;
#X connect 26 5 83 0;
#X connect 27 0 4 0;
#X connect 28 0 51 0;
#X connect 29 0 28 1;
#X connect 30 0 51 0;
#X connect 31 0 30 1;
#X connect 32 0 34 0;
#X connect 32 0 46 0;
#X connect 32 1 33 0;
#X connect 32 1 47 0;
#X connect 33 0 29 0;
#X connect 34 0 29 0;
#X connect 35 0 32 0;
#X connect 36 0 7 0;
#X connect 37 0 8 0;
#X connect 38 0 39 0;
#X connect 39 0 40 0;
#X connect 40 1 49 0;
#X connect 41 0 18 0;
#X connect 42 0 52 0;
#X connect 42 0 54 0;
#X connect 42 0 77 0;
#X connect 44 0 43 0;
#X connect 45 0 25 0;
#X connect 46 0 31 0;
#X connect 47 0 31 0;
#X connect 48 0 11 0;
#X connect 49 0 50 0;
#X connect 50 0 72 0;
#X connect 51 0 27 1;
#X connect 52 0 57 0;
#X connect 52 1 53 0;
#X connect 53 0 30 0;
#X connect 54 0 55 0;
#X connect 54 1 56 0;
#X connect 55 0 28 0;
#X connect 56 0 28 0;
#X connect 57 0 30 0;
#X connect 58 0 54 0;
#X connect 58 0 52 0;
#X connect 58 1 26 0;
#X connect 59 0 60 0;
#X connect 60 0 32 0;
#X connect 61 0 69 1;
#X connect 61 0 72 1;
#X connect 62 0 69 1;
#X connect 62 0 72 1;
#X connect 63 0 69 1;
#X connect 63 0 72 1;
#X connect 64 0 63 0;
#X connect 65 0 61 0;
#X connect 66 0 62 0;
#X connect 67 0 68 0;
#X connect 68 0 64 0;
#X connect 68 1 65 0;
#X connect 68 2 64 0;
#X connect 68 3 66 0;
#X connect 69 0 70 0;
#X connect 70 0 71 0;
#X connect 71 0 0 0;
#X connect 72 0 73 0;
#X connect 73 0 74 0;
#X connect 74 0 58 0;
#X connect 75 0 37 1;
#X connect 75 0 36 1;
#X connect 76 0 48 0;
#X connect 77 0 27 1;
#X connect 78 0 77 1;
#X connect 79 0 77 2;
#X connect 80 0 89 0;
#X connect 80 0 81 0;
#X connect 82 0 84 0;
#X connect 83 0 84 0;
#X connect 84 0 87 0;
#X connect 85 0 84 1;
#X connect 86 0 85 0;
#X connect 87 0 88 0;
#X connect 88 0 79 0;
#X connect 89 0 78 0;
