#N canvas 944 22 1440 577 10;
#X floatatom 264 -33 5 1 8 0 - - -;
#X obj 612 154 loadbang;
#X text 96 166 ionian;
#X text 271 165 dorian;
#X text 96 237 phrygian;
#X text 278 237 lydian;
#X text 442 170 mixolydian;
#X text 622 173 aeolian;
#X text 448 235 locrian;
#X text 611 237 harmonic minor;
#X obj 265 -14 sel 1 2 3 4 5 6 7 8;
#X obj 213 -84 inlet;
#X msg 99 186 \; modes 0 0 2 4 5 7 9 11 12 \;;
#X msg 646 198 \; modes 0 0 2 3 5 7 8 10 12 \;;
#X msg 444 194 \; modes 0 0 2 4 6 7 9 10 12 \;;
#X msg 98 256 \; modes 0 0 1 3 5 6 8 10 12 \;;
#X msg 269 255 \; modes 0 0 2 4 5 7 9 10 12 \;;
#X msg 445 261 \; modes 0 0 1 3 5 6 8 10 12 \;;
#X msg 612 261 \; modes 0 0 2 3 5 7 8 11 12 \;;
#X msg 947 193 \; bassmodes 0 0 4 7 12 \;;
#X msg 1078 192 \; bassmodes 0 0 3 7 12 \;;
#X msg 1210 193 \; bassmodes 0 0 3 6 12 \;;
#X obj 109 350 print ionian;
#X obj 271 350 print dorian;
#X obj 462 353 print mixolydian;
#X obj 635 363 print aeolian;
#X obj 106 420 print phrygian;
#X obj 278 427 print lydian;
#X obj 465 428 print locrian;
#X obj 644 425 print harmonic minor;
#X msg 269 184 \; modes 0 0 2 3 5 6 8 10 12 \;;
#X obj 500 -62 r worldnumber;
#X obj 500 -40 sel 0 1 2 3 4;
#X msg 493 -13 1;
#X msg 527 -14 2;
#X msg 557 -11 4;
#X obj 625 -13 8;
#X msg 586 -12 6;
#X floatatom 572 19 5 0 0 0 - - -;
#X connect 0 0 10 0;
#X connect 1 0 13 0;
#X connect 1 0 20 0;
#X connect 10 0 12 0;
#X connect 10 0 19 0;
#X connect 10 1 30 0;
#X connect 10 1 20 0;
#X connect 10 2 14 0;
#X connect 10 2 19 0;
#X connect 10 3 13 0;
#X connect 10 4 15 0;
#X connect 10 4 20 0;
#X connect 10 5 16 0;
#X connect 10 5 19 0;
#X connect 10 6 17 0;
#X connect 10 6 21 0;
#X connect 10 7 18 0;
#X connect 10 7 20 0;
#X connect 11 0 0 0;
#X connect 31 0 32 0;
#X connect 32 0 33 0;
#X connect 32 1 34 0;
#X connect 32 2 35 0;
#X connect 32 3 37 0;
#X connect 32 4 36 0;
#X connect 33 0 38 0;
#X connect 34 0 38 0;
#X connect 35 0 38 0;
#X connect 36 0 38 0;
#X connect 37 0 38 0;
#X connect 38 0 0 0;
