#N canvas 234 530 1231 593 10;
#X obj 249 -21 metro 5;
#X obj 249 58 sel 0;
#X obj 241 -45 tgl 15 0 empty empty empty 17 7 0 10 -262144 -1 -1 0
1;
#X obj 329 60 random 8;
#X obj 413 -22 metro 5;
#X obj 413 57 sel 0;
#X obj 405 -46 tgl 15 0 empty empty empty 17 7 0 10 -262144 -1 -1 0
1;
#X obj 469 54 * 0.01;
#X obj 496 30 random 100;
#X text 312 -43 randomizer;
#N canvas 0 22 450 300 (subpatch) 0;
#X array vol_\$1 16 float 3;
#A 0 0.83 0.44 0.66 0.36 0.93 0.62 0.93 0.07 0.54 0.05 0.94 0.45 0.02
0.27 0.88 0.03;
#X coords 0 1 16 0 200 140 1 0 0;
#X restore 810 -36 graph;
#N canvas 0 22 450 300 (subpatch) 0;
#X array notes_\$1 16 float 3;
#A 0 2 1 0 3 0 4 0 0 5 2 1 1 4 0 4 2;
#X coords 0 7 16 0 200 140 1 0 0;
#X restore 596 -38 graph;
#X floatatom 171 248 5 0 0 0 - - -;
#X floatatom 176 192 5 0 0 0 - - -;
#X obj 173 297 i;
#X floatatom 292 228 5 0 0 0 - - -;
#X obj 176 107 receive bpm;
#N canvas 0 22 450 300 banger 0;
#X obj 76 224 threshold~ 0.999 10 10 10;
#X obj 76 250 bng 15 250 50 0 empty empty empty 17 7 0 10 -262144 -1
-1;
#X obj 75 195 wrap~;
#X obj 74 167 *~ 8;
#X obj 78 18 inlet;
#X obj 76 276 outlet;
#X obj 210 53 switch~;
#X obj 215 27 inlet;
#X connect 0 0 1 0;
#X connect 1 0 5 0;
#X connect 2 0 0 0;
#X connect 3 0 2 0;
#X connect 7 0 6 0;
#X restore 158 78 pd banger;
#X obj 66 6 tgl 15 0 empty empty empty 17 7 0 10 -262144 -1 -1 1 1
;
#X text 87 5 start/stop;
#X obj 406 296 line~;
#X msg 403 266 \$1 10;
#X obj 171 226 tabread notes_\$1;
#X obj 292 206 tabread vol_\$1;
#X obj 491 332 *~;
#X obj 488 238 catch~ \$1_seq;
#X obj 479 365 outlet~;
#X obj 278 83 tabwrite notes_\$1;
#X obj 442 82 tabwrite vol_\$1;
#X obj 59 -38 inlet;
#X obj 238 -75 inlet;
#X obj 409 -71 inlet;
#X obj 104 153 spigot;
#X obj 59 341 modeplayer_vs \$1 seq \$2;
#X obj 272 261 > 0.5;
#X obj 287 285 tgl 15 0 empty empty empty 17 7 0 10 -262144 -1 -1 0
1;
#X obj 341 261 f;
#X obj 295 321 sel 0 1;
#X msg 345 294 0;
#X obj 159 -49 inlet;
#X msg 253 134 16;
#X obj 177 168 ys.counter \$3;
#X obj 286 31 ys.counter \$3;
#X obj 448 -1 ys.counter \$3;
#X obj 751 179 inlet;
#X obj 87 116 r bangs8;
#X obj 107 261 bng 15 250 50 0 empty empty empty 17 7 0 10 -262144
-1 -1;
#X obj 77 194 tgl 15 0 empty empty empty 17 7 0 10 -262144 -1 -1 0
1;
#X obj 74 223 metro 25;
#X floatatom 120 184 5 0 0 0 - - -;
#X connect 0 0 3 0;
#X connect 0 0 42 0;
#X connect 1 0 2 0;
#X connect 2 0 0 0;
#X connect 3 0 27 0;
#X connect 4 0 8 0;
#X connect 4 0 43 0;
#X connect 5 0 6 0;
#X connect 6 0 4 0;
#X connect 7 0 28 0;
#X connect 8 0 7 0;
#X connect 12 0 14 0;
#X connect 13 0 22 0;
#X connect 13 0 23 0;
#X connect 14 0 33 3;
#X connect 15 0 21 0;
#X connect 18 0 32 1;
#X connect 20 0 24 1;
#X connect 21 0 20 0;
#X connect 22 0 12 0;
#X connect 23 0 15 0;
#X connect 24 0 26 0;
#X connect 25 0 24 0;
#X connect 29 0 18 0;
#X connect 30 0 2 0;
#X connect 31 0 6 0;
#X connect 32 0 41 0;
#X connect 34 0 35 0;
#X connect 35 0 37 0;
#X connect 36 0 21 0;
#X connect 37 0 38 0;
#X connect 37 1 36 0;
#X connect 38 0 21 0;
#X connect 39 0 41 0;
#X connect 40 0 41 1;
#X connect 41 0 13 0;
#X connect 42 0 1 0;
#X connect 42 0 27 1;
#X connect 43 0 5 0;
#X connect 43 0 28 1;
#X connect 44 0 13 0;
#X connect 45 0 32 0;
#X connect 46 0 14 0;
#X connect 47 0 48 0;
#X connect 48 0 46 0;
#X connect 49 0 48 1;
