#N canvas 1236 334 450 300 10;
#X obj 66 206 soundfiler;
#X obj 69 36 loadbang;
#X obj 73 73 bng 15 250 50 0 empty empty empty 17 7 0 10 -262144 -1
-1;
#X obj 186 122 symbol \$1\$2_\$3;
#X obj 69 244 outlet;
#X obj 313 177 table \$1\$2_\$3;
#X floatatom 67 227 5 0 0 0 - - -;
#X obj 66 122 symbol \$1\$2 \$3;
#X obj 138 39 inlet;
#X obj 68 99 t b b b;
#X obj 65 149 pack s s f;
#X obj 284 122 i \$3;
#X obj 300 250 outlet;
#X msg 300 210 set \$1;
#X msg 334 228 gun1_1;
#X msg 64 178 read -resize ../assets/wavfiles/\$1_\$3.wav \$2;
#X connect 0 0 6 0;
#X connect 1 0 2 0;
#X connect 2 0 9 0;
#X connect 3 0 10 1;
#X connect 3 0 13 0;
#X connect 6 0 4 0;
#X connect 7 0 10 0;
#X connect 8 0 2 0;
#X connect 9 0 7 0;
#X connect 9 1 3 0;
#X connect 9 2 11 0;
#X connect 10 0 15 0;
#X connect 11 0 10 2;
#X connect 13 0 14 0;
#X connect 13 0 12 0;
#X connect 15 0 0 0;
