#N canvas 734 161 1167 713 10;
#X obj -158 53 / 60;
#X obj -189 44 t b;
#X msg -189 66 1;
#X obj -176 91 /;
#X floatatom -156 27 5 0 0 0 - - -;
#X obj -175 113 * 1000;
#X obj -153 0 r bpm;
#X floatatom -175 135 5 0 0 0 - - -;
#X obj -174 171 outlet;
#X connect 0 0 3 1;
#X connect 1 0 2 0;
#X connect 2 0 3 0;
#X connect 3 0 5 0;
#X connect 4 0 0 0;
#X connect 4 0 1 0;
#X connect 5 0 7 0;
#X connect 6 0 4 0;
#X connect 7 0 8 0;
