#N canvas 1340 342 1076 766 10;
#X floatatom 248 147 5 0 0 0 - - -;
#X obj 167 422 outlet~;
#X obj 106 17 inlet~;
#X obj 253 56 inlet;
#X obj 450 194 inlet;
#X obj 142 367 *~ 0;
#X obj 97 367 *~ 1;
#X obj 438 227 sel 0 1;
#X msg 400 271 1;
#X msg 440 271 0;
#X msg 481 273 1;
#X msg 524 276 0;
#X obj 184 55 inlet;
#X obj 127 255 bp~;
#X obj 297 102 loadbang;
#X obj 134 302 *~ 2;
#X msg 297 128 40;
#X obj 202 282 hip~;
#X floatatom 177 143 5 0 0 0 - - -;
#X connect 0 0 13 2;
#X connect 2 0 6 0;
#X connect 2 0 13 0;
#X connect 2 0 17 0;
#X connect 3 0 15 1;
#X connect 4 0 7 0;
#X connect 5 0 1 0;
#X connect 6 0 1 0;
#X connect 7 0 8 0;
#X connect 7 0 9 0;
#X connect 7 1 10 0;
#X connect 7 1 11 0;
#X connect 8 0 6 1;
#X connect 9 0 5 1;
#X connect 10 0 5 1;
#X connect 11 0 6 1;
#X connect 12 0 13 1;
#X connect 12 0 17 1;
#X connect 12 0 18 0;
#X connect 13 0 15 0;
#X connect 14 0 16 0;
#X connect 15 0 5 0;
#X connect 16 0 0 0;
#X connect 17 0 5 0;
