#N canvas 0 22 450 300 10;
#X obj 240 129 bng 15 250 50 0 empty empty empty 17 7 0 10 -262144
-1 -1;
#X obj 255 151 delay 140;
#X obj 274 176 delay 140;
#X obj 294 202 delay 140;
#X obj 313 228 delay 140;
#X obj 324 249 delay 140;
#X obj 257 78 inlet;
#X obj 252 286 outlet;
#X floatatom 355 89 5 0 0 0 - - -;
#X obj 355 48 inlet;
#X connect 0 0 1 0;
#X connect 0 0 7 0;
#X connect 1 0 2 0;
#X connect 1 0 7 0;
#X connect 2 0 3 0;
#X connect 2 0 7 0;
#X connect 3 0 4 0;
#X connect 3 0 7 0;
#X connect 4 0 5 0;
#X connect 4 0 7 0;
#X connect 5 0 7 0;
#X connect 6 0 0 0;
#X connect 8 0 1 1;
#X connect 8 0 2 1;
#X connect 8 0 3 1;
#X connect 8 0 4 1;
#X connect 8 0 5 1;
#X connect 9 0 8 0;
