#N canvas 1575 528 613 411 10;
#X obj 184 212 tgl 15 0 empty empty empty 17 7 0 10 -262144 -1 -1 1
1;
#X obj 227 391 dac~;
#X floatatom 278 238 5 0 127 0 - - -;
#X floatatom 318 255 5 0 0 0 - - -;
#X obj 325 202 loadbang;
#X msg 325 224 3;
#X obj 46 116 r start;
#X msg 170 172 1;
#X msg 229 172 0;
#X obj 291 28 r hotelsize;
#X obj 301 51 * 8;
#X obj 308 129 line;
#X msg 301 97 \$1 200;
#X obj 300 72 + 50;
#X obj -29 103 r unpause;
#X obj 301 153 moses 125;
#X obj 203 354 ys.rj.lp;
#X obj 182 246 ambientsub \$1;
#X obj 63 92 loadbang;
#X obj 103 276 line~;
#X obj 185 310 *~;
#X msg 60 225 1 100;
#X msg 104 224 0 100;
#X obj 176 139 loadbang;
#X obj 307 314 *~;
#X obj 341 313 *~;
#X obj 374 340 throw~ mediumdelay;
#X obj 327 365 dac~;
#X obj 109 134 r pause;
#X obj 114 104 r win;
#X obj 153 104 r lose;
#X obj 450 193 switch~;
#X obj 433 117 loadbang;
#X msg 446 154 1;
#X obj 201 103 r end;
#X connect 0 0 17 0;
#X connect 2 0 16 1;
#X connect 3 0 16 2;
#X connect 4 0 5 0;
#X connect 5 0 3 0;
#X connect 6 0 21 0;
#X connect 7 0 0 0;
#X connect 8 0 0 0;
#X connect 9 0 10 0;
#X connect 10 0 13 0;
#X connect 11 0 15 0;
#X connect 12 0 11 0;
#X connect 13 0 12 0;
#X connect 14 0 21 0;
#X connect 15 0 2 0;
#X connect 16 0 1 0;
#X connect 16 0 1 1;
#X connect 17 0 20 0;
#X connect 17 1 24 0;
#X connect 17 2 25 0;
#X connect 18 0 22 0;
#X connect 19 0 20 1;
#X connect 19 0 24 1;
#X connect 19 0 25 1;
#X connect 20 0 16 0;
#X connect 21 0 19 0;
#X connect 22 0 19 0;
#X connect 23 0 7 0;
#X connect 24 0 26 0;
#X connect 24 0 27 0;
#X connect 25 0 26 0;
#X connect 25 0 27 1;
#X connect 28 0 22 0;
#X connect 29 0 22 0;
#X connect 30 0 22 0;
#X connect 32 0 33 0;
#X connect 33 0 31 0;
