#N canvas 530 776 1498 597 10;
#X obj 579 466 pugglesynth arp;
#X floatatom 1156 260 5 0 0 0 - - -;
#X obj 1148 196 loadbang;
#X floatatom 622 442 5 0 0 0 - - -;
#X obj 746 541 throw~ reverb;
#X floatatom 716 341 5 0 0 0 - - -;
#X obj 193 334 tabread modes;
#X obj 410 417 + 0;
#X msg 483 369 5;
#X msg 521 369 7;
#X msg 439 367 0;
#X obj 445 333 bng 15 250 50 0 empty empty empty 17 7 0 10 -262144
-1 -1;
#X obj 481 331 bng 15 250 50 0 empty empty empty 17 7 0 10 -262144
-1 -1;
#X obj 519 333 bng 15 250 50 0 empty empty empty 17 7 0 10 -262144
-1 -1;
#X obj 451 277 r keychange;
#X obj 451 299 sel 0 1 2 3;
#X obj 294 397 + 72;
#X msg 181 274 0;
#X msg 213 274 2;
#X msg 247 269 4;
#X msg 284 268 7;
#X obj 153 15 r fromOF;
#X obj 153 36 route list;
#X obj 9 167 t b;
#X obj 12 221 tgl 15 0 empty empty empty 17 7 0 10 -262144 -1 -1 0
1;
#X obj 40 196 delay 300;
#X obj 21 257 spigot;
#X obj 354 75 / 60;
#X obj 323 66 t b;
#X msg 323 88 1;
#X obj 336 113 /;
#X floatatom 356 49 5 0 0 0 - - -;
#X obj 337 135 * 1000;
#X obj 359 22 r bpm;
#X floatatom 337 157 5 0 0 0 - - -;
#X obj 154 71 route gull_bullet_kill;
#X obj 153 95 t b;
#X msg 324 358 84;
#X msg 296 358 72;
#X obj 180 151 bng 15 250 50 0 empty empty empty 17 7 0 10 -262144
-1 -1;
#X obj 206 228 sel 0 1 2;
#X obj 181 175 random 3;
#X obj 335 232 sel 0 1 2;
#X msg 358 358 96;
#X obj 268 175 random 3;
#X obj 130 127 bng 15 250 50 0 empty empty empty 17 7 0 10 -262144
-1 -1;
#X obj 613 525 outlet~;
#X obj 66 91 r gullkill;
#X obj 85 172 * 2;
#X obj 199 105 print raw;
#X obj 626 240 tabread modes;
#X floatatom 629 212 5 0 0 0 - - -;
#X obj 627 152 bng 15 250 50 0 empty empty empty 17 7 0 10 -262144
-1 -1;
#X obj 630 0 r fromOF;
#X obj 630 21 route list;
#X obj 631 56 route enemyAdded;
#X obj 632 88 route GullEnemy KidEnemy;
#X obj 628 121 t b;
#X obj 760 236 bng 15 250 50 0 empty empty empty 17 7 0 10 -262144
-1 -1;
#X floatatom 762 465 5 0 0 0 - - -;
#X obj 750 130 r fromOF;
#X obj 750 151 route list;
#X obj 751 186 route gull_hit_building;
#X obj 752 212 t b;
#X obj 633 302 t f b;
#X obj 759 279 t f b;
#X obj 224 462 pugglesynth arp;
#X obj 120 205 r bangs4;
#X obj 832 362 tabread modes;
#X msg 818 337 0;
#X msg 850 337 2;
#X msg 884 332 4;
#X obj 829 307 sel 0 1 2;
#X obj 757 255 random 3;
#X obj 769 436 line 100 5;
#X msg 1149 231 300;
#X obj 720 495 pugglesynth gullhit;
#X obj 1155 282 s notelengthgullhit;
#X obj 947 97 r fromOF;
#X obj 947 118 route list;
#X obj 948 153 route gull_bullet_kill;
#X obj 947 177 t b;
#X floatatom 974 440 5 0 0 0 - - -;
#X obj 973 265 t f b;
#X obj 1044 337 tabread modes;
#X msg 1030 312 0;
#X msg 1062 312 2;
#X obj 1041 282 sel 0 1 2;
#X obj 972 241 random 3;
#X obj 1043 364 + 36;
#X obj 981 411 line 100 5;
#X msg 962 331 set 100;
#X msg 1048 389 \$1 50;
#X obj 932 470 pugglesynth gulldie;
#X floatatom 1176 411 5 0 0 0 - - -;
#X obj 1168 347 loadbang;
#X obj 1175 433 s notelengthgulldie;
#X msg 1169 382 100;
#X obj 995 211 bng 15 250 50 0 empty empty empty 17 7 0 10 -262144
-1 -1;
#X msg 1094 308 4;
#X msg 836 414 \$1 100;
#X obj 831 389 + 48;
#X obj 1084 106 r kill;
#X obj 851 74 r hit;
#X floatatom 40 393 5 0 0 0 - - -;
#X obj 32 329 loadbang;
#X msg 33 364 300;
#X obj 39 415 s notelengtharp;
#X obj 627 184 random 7;
#X obj 783 36 r;
#X msg 677 369 \$1 250;
#X obj 622 266 + 84;
#X obj 623 418 line 90 5;
#X msg 619 369 set 90;
#X obj 399 573 ys.masterdelay gulls\$1;
#X floatatom 517 538 5 0 0 0 - - -;
#X obj 517 472 loadbang;
#X msg 522 501 0.6;
#X msg 750 356 set 100;
#X connect 0 0 46 0;
#X connect 0 0 4 0;
#X connect 0 0 114 0;
#X connect 1 0 77 0;
#X connect 2 0 75 0;
#X connect 3 0 0 0;
#X connect 6 0 16 0;
#X connect 7 0 66 0;
#X connect 8 0 7 1;
#X connect 9 0 7 1;
#X connect 10 0 7 1;
#X connect 11 0 10 0;
#X connect 12 0 8 0;
#X connect 13 0 9 0;
#X connect 14 0 15 0;
#X connect 15 0 11 0;
#X connect 15 1 12 0;
#X connect 15 2 11 0;
#X connect 15 3 13 0;
#X connect 16 0 7 0;
#X connect 17 0 6 0;
#X connect 18 0 6 0;
#X connect 19 0 6 0;
#X connect 20 0 6 0;
#X connect 21 0 22 0;
#X connect 22 0 35 0;
#X connect 23 0 24 0;
#X connect 23 0 25 0;
#X connect 24 0 26 1;
#X connect 25 0 24 0;
#X connect 27 0 30 1;
#X connect 28 0 29 0;
#X connect 29 0 30 0;
#X connect 30 0 32 0;
#X connect 31 0 27 0;
#X connect 31 0 28 0;
#X connect 32 0 34 0;
#X connect 33 0 31 0;
#X connect 34 0 48 0;
#X connect 35 0 36 0;
#X connect 36 0 45 0;
#X connect 37 0 16 1;
#X connect 38 0 16 1;
#X connect 39 0 41 0;
#X connect 39 0 44 0;
#X connect 40 0 17 0;
#X connect 40 1 18 0;
#X connect 40 2 19 0;
#X connect 41 0 40 0;
#X connect 42 0 38 0;
#X connect 42 1 37 0;
#X connect 42 2 43 0;
#X connect 43 0 16 1;
#X connect 44 0 42 0;
#X connect 45 0 23 0;
#X connect 47 0 45 0;
#X connect 48 0 25 1;
#X connect 50 0 111 0;
#X connect 51 0 50 0;
#X connect 52 0 108 0;
#X connect 53 0 54 0;
#X connect 54 0 55 0;
#X connect 55 0 56 0;
#X connect 56 0 57 0;
#X connect 57 0 52 0;
#X connect 58 0 73 0;
#X connect 59 0 76 0;
#X connect 60 0 61 0;
#X connect 61 0 62 0;
#X connect 62 0 63 0;
#X connect 63 0 58 0;
#X connect 64 0 110 0;
#X connect 64 1 113 0;
#X connect 65 0 72 0;
#X connect 65 1 118 0;
#X connect 66 0 4 0;
#X connect 66 0 46 0;
#X connect 68 0 101 0;
#X connect 69 0 68 0;
#X connect 70 0 68 0;
#X connect 71 0 68 0;
#X connect 72 0 69 0;
#X connect 72 1 70 0;
#X connect 72 2 71 0;
#X connect 73 0 65 0;
#X connect 74 0 59 0;
#X connect 75 0 1 0;
#X connect 76 0 46 0;
#X connect 76 0 4 0;
#X connect 78 0 79 0;
#X connect 79 0 80 0;
#X connect 80 0 81 0;
#X connect 81 0 88 0;
#X connect 82 0 93 0;
#X connect 83 0 87 0;
#X connect 83 1 91 0;
#X connect 84 0 89 0;
#X connect 85 0 84 0;
#X connect 86 0 84 0;
#X connect 87 0 85 0;
#X connect 87 1 86 0;
#X connect 87 2 99 0;
#X connect 88 0 83 0;
#X connect 89 0 92 0;
#X connect 90 0 82 0;
#X connect 91 0 90 0;
#X connect 92 0 90 0;
#X connect 93 0 46 0;
#X connect 93 0 4 0;
#X connect 94 0 96 0;
#X connect 95 0 97 0;
#X connect 97 0 94 0;
#X connect 98 0 88 0;
#X connect 99 0 84 0;
#X connect 100 0 74 0;
#X connect 101 0 100 0;
#X connect 102 0 98 0;
#X connect 103 0 58 0;
#X connect 104 0 107 0;
#X connect 105 0 106 0;
#X connect 106 0 104 0;
#X connect 108 0 51 0;
#X connect 110 0 112 0;
#X connect 111 0 64 0;
#X connect 112 0 3 0;
#X connect 113 0 112 0;
#X connect 115 0 114 3;
#X connect 115 0 114 4;
#X connect 116 0 117 0;
#X connect 117 0 115 0;
#X connect 118 0 74 0;
