#N canvas 782 557 878 685 10;
#X obj 103 16 r fromOF;
#X obj 103 37 route list;
#X obj 202 115 t b;
#X obj 303 106 t b;
#X obj 303 165 t b;
#X obj 299 260 dac~;
#X obj 303 226 *~ 0.3;
#X obj 303 133 bng 15 250 50 0 empty empty empty 17 7 0 10 -262144
-1 -1;
#X obj 355 256 throw~ lightdelay;
#X obj 204 145 bng 15 250 50 0 empty empty empty 17 7 0 10 -262144
-1 -1;
#X obj 215 513 dac~;
#X obj 103 151 bng 15 250 50 0 empty empty empty 17 7 0 10 -262144
-1 -1;
#X obj 263 459 *~ 0.5;
#X obj 303 198 shooter gunboss 4;
#X obj 128 352 ambientsub 6;
#X obj 128 329 tgl 15 0 empty empty empty 17 7 0 10 -262144 -1 -1 0
1;
#X obj 104 66 route bomber_boss_on bomber_boss_kill bomber_boss_shoot
bomber_bomb;
#X obj 578 84 t b;
#X obj 527 421 dac~;
#X obj 577 138 t b;
#X obj 578 265 bng 15 250 50 0 empty empty empty 17 7 0 10 -262144
-1 -1;
#X obj 675 178 random 40;
#X obj 683 218 + 80;
#X obj 664 247 * 0.01;
#X floatatom 656 282 5 0 0 0 - - -;
#X obj 578 163 t b b;
#X obj 609 199 loadbang;
#X msg 601 241 1;
#X obj 582 112 bng 15 250 50 0 empty empty empty 17 7 0 10 -262144
-1 -1;
#X obj 577 138 t b;
#X obj 578 265 bng 15 250 50 0 empty empty empty 17 7 0 10 -262144
-1 -1;
#X obj 578 163 t b b;
#X obj 582 112 bng 15 250 50 0 empty empty empty 17 7 0 10 -262144
-1 -1;
#X obj 603 398 throw~ mediumdelay;
#X obj 544 354 *~ 0.2;
#X msg 128 306 1;
#X msg 197 284 1;
#X obj 195 254 loadbang;
#X obj 377 170 print bombshoot;
#X obj 494 305 sounds_pitch bomberbomb;
#X obj 247 310 sounds_pitch bomberkill;
#X obj 285 376 sounds_pitch bomberon;
#X obj 293 340 bng 15 250 50 0 empty empty empty 17 7 0 10 -262144
-1 -1;
#X obj 100 115 t b b;
#X obj 128 282 loadbang;
#X obj 8 341 line~;
#X obj 13 373 *~;
#X msg -35 290 1 100;
#X msg 9 289 0 100;
#X obj 14 199 r pause;
#X obj 67 200 r win;
#X obj 106 200 r lose;
#X connect 0 0 1 0;
#X connect 1 0 16 0;
#X connect 2 0 9 0;
#X connect 3 0 7 0;
#X connect 4 0 13 0;
#X connect 6 0 5 0;
#X connect 6 0 5 1;
#X connect 6 0 8 0;
#X connect 7 0 4 0;
#X connect 9 0 40 0;
#X connect 11 0 47 0;
#X connect 12 0 10 0;
#X connect 12 0 10 1;
#X connect 13 0 6 0;
#X connect 14 0 46 0;
#X connect 15 0 14 0;
#X connect 16 0 43 0;
#X connect 16 1 2 0;
#X connect 16 2 3 0;
#X connect 16 3 17 0;
#X connect 17 0 28 0;
#X connect 19 0 25 0;
#X connect 20 0 39 0;
#X connect 21 0 22 0;
#X connect 22 0 23 0;
#X connect 23 0 24 0;
#X connect 24 0 39 1;
#X connect 25 0 20 0;
#X connect 25 1 21 0;
#X connect 26 0 27 0;
#X connect 27 0 24 0;
#X connect 28 0 19 0;
#X connect 29 0 31 0;
#X connect 31 0 30 0;
#X connect 32 0 29 0;
#X connect 34 0 18 0;
#X connect 34 0 18 1;
#X connect 34 0 33 0;
#X connect 35 0 15 0;
#X connect 36 0 14 1;
#X connect 37 0 36 0;
#X connect 39 0 34 0;
#X connect 40 0 12 0;
#X connect 41 0 12 0;
#X connect 42 0 41 0;
#X connect 43 0 11 0;
#X connect 43 1 42 0;
#X connect 44 0 35 0;
#X connect 45 0 46 1;
#X connect 46 0 12 0;
#X connect 47 0 45 0;
#X connect 48 0 45 0;
#X connect 49 0 48 0;
#X connect 50 0 48 0;
#X connect 51 0 48 0;
