#N canvas 1480 58 980 607 10;
#X obj 54 73 r fromOF;
#X obj 52 102 route list;
#X obj 54 141 route bulletHit;
#X obj 54 163 t b;
#X obj 137 330 bng 15 250 50 0 empty empty empty 17 7 0 10 -262144
-1 -1;
#X obj 232 257 random 40;
#X obj 239 286 + 80;
#X obj 239 308 * 0.01;
#X floatatom 241 338 5 0 0 0 - - -;
#X obj 236 516 dac~;
#X obj 305 508 throw~ lightdelay;
#X obj 278 392 ys.rj.repeat;
#X obj 139 358 sounds_pitch bullet;
#X obj 145 199 bng 15 250 50 0 empty empty empty 17 7 0 10 -262144
-1 -1;
#X obj 137 228 t b b b;
#X obj 182 473 *~ 0.3;
#X obj 234 414 *~ 0.5;
#X connect 0 0 1 0;
#X connect 1 0 2 0;
#X connect 2 0 3 0;
#X connect 3 0 14 0;
#X connect 4 0 12 0;
#X connect 5 0 6 0;
#X connect 6 0 7 0;
#X connect 7 0 8 0;
#X connect 8 0 12 1;
#X connect 11 0 16 0;
#X connect 12 0 11 0;
#X connect 12 0 15 0;
#X connect 13 0 14 0;
#X connect 14 0 4 0;
#X connect 14 1 5 0;
#X connect 14 2 11 1;
#X connect 15 0 9 0;
#X connect 15 0 9 1;
#X connect 15 0 10 0;
#X connect 16 0 15 0;
