#N canvas 714 315 1274 766 10;
#X obj -422 -670 dac~;
#X obj 29 -618 *~;
#X obj 93 -512 dac~;
#X obj 34 -577 hip~ 100;
#X obj 81 -669 phasor~ 440;
#X obj 57 -913 tabread modes;
#X obj 76 -860 + 0;
#X obj 69 -883 + 72;
#X obj 52 -983 bng 15 250 50 0 empty empty empty 17 7 0 10 -262144
-1 -1;
#X floatatom 85 -828 5 0 0 0 - - -;
#X obj 53 -959 random 7;
#X obj 118 -578 hip~ 100;
#X obj 114 -619 *~;
#X obj 166 -670 phasor~ 440;
#X obj 131 -743 *~;
#X floatatom 154 -833 5 0 0 0 - - -;
#X obj -18 -513 throw~ lightdelay;
#X obj -356 -674 throw~ mediumdelay;
#X obj -7 -662 line~;
#X msg 32 -714 1;
#X obj 3 -773 t b b;
#X msg 150 -860 20;
#X obj 158 -905 loadbang;
#X obj 152 -809 ys.osc~;
#X obj 87 -785 mtof;
#X msg -26 -702 0;
#X obj -36 -745 delay 280;
#X obj -23 -844 ys.bpmtoms;
#X obj -19 -810 * 2;
#X obj -687 -668 dac~;
#X obj -654 -979 r cloudappear;
#X obj 51 -1044 r hitcloud;
#X obj -437 -1022 r shootcloud;
#X obj 167 -705 *~ 1.05;
#X obj -628 -667 throw~ mediumdelay;
#X obj 374 -682 dac~;
#X obj 440 -686 throw~ mediumdelay;
#X obj 339 -1046 r killcloud;
#X obj 289 -824 bng 15 250 50 0 empty empty empty 17 7 0 10 -262144
-1 -1;
#X obj 384 -897 random 40;
#X obj 391 -868 + 80;
#X obj 391 -846 * 0.01;
#X floatatom 393 -816 5 0 0 0 - - -;
#X obj 289 -926 t b b;
#X obj 321 -990 bng 15 250 50 0 empty empty empty 17 7 0 10 -262144
-1 -1;
#X obj 291 -796 sounds_pitch killcloud;
#X obj 334 -1020 t b;
#X obj -699 -769 bng 15 250 50 0 empty empty empty 17 7 0 10 -262144
-1 -1;
#X obj -604 -842 random 40;
#X obj -597 -813 + 80;
#X obj -597 -791 * 0.01;
#X floatatom -595 -761 5 0 0 0 - - -;
#X obj -699 -871 t b b;
#X obj -669 -899 bng 15 250 50 0 empty empty empty 17 7 0 10 -262144
-1 -1;
#X obj -697 -741 sounds_pitch cloudappear;
#X obj -667 -936 t b;
#X obj -417 -781 bng 15 250 50 0 empty empty empty 17 7 0 10 -262144
-1 -1;
#X obj -322 -854 random 40;
#X obj -315 -825 + 80;
#X obj -315 -803 * 0.01;
#X floatatom -313 -773 5 0 0 0 - - -;
#X obj -417 -883 t b b;
#X obj -387 -911 bng 15 250 50 0 empty empty empty 17 7 0 10 -262144
-1 -1;
#X obj -385 -948 t b;
#X obj -402 -723 *~ 0.4;
#X obj -415 -753 sounds_pitch shootcloud;
#X obj -684 -711 *~ 0.7;
#X obj 43 -546 *~ 0.06;
#X obj 127 -547 *~ 0.06;
#X obj 402 -754 *~ 0.3;
#X connect 1 0 3 0;
#X connect 3 0 67 0;
#X connect 4 0 1 0;
#X connect 5 0 7 0;
#X connect 6 0 9 0;
#X connect 7 0 6 0;
#X connect 8 0 10 0;
#X connect 8 0 20 0;
#X connect 9 0 24 0;
#X connect 10 0 5 0;
#X connect 11 0 68 0;
#X connect 12 0 11 0;
#X connect 13 0 12 0;
#X connect 14 0 4 0;
#X connect 14 0 33 0;
#X connect 15 0 23 0;
#X connect 18 0 1 1;
#X connect 18 0 12 1;
#X connect 19 0 18 0;
#X connect 20 0 26 0;
#X connect 20 1 19 0;
#X connect 21 0 15 0;
#X connect 22 0 21 0;
#X connect 23 0 14 1;
#X connect 24 0 14 0;
#X connect 25 0 18 0;
#X connect 26 0 25 0;
#X connect 27 0 28 0;
#X connect 28 0 26 1;
#X connect 30 0 55 0;
#X connect 31 0 8 0;
#X connect 32 0 63 0;
#X connect 33 0 13 0;
#X connect 37 0 46 0;
#X connect 38 0 45 0;
#X connect 39 0 40 0;
#X connect 40 0 41 0;
#X connect 41 0 42 0;
#X connect 42 0 45 1;
#X connect 43 0 38 0;
#X connect 43 1 39 0;
#X connect 44 0 43 0;
#X connect 45 0 69 0;
#X connect 46 0 44 0;
#X connect 47 0 54 0;
#X connect 48 0 49 0;
#X connect 49 0 50 0;
#X connect 50 0 51 0;
#X connect 51 0 54 1;
#X connect 52 0 47 0;
#X connect 52 1 48 0;
#X connect 53 0 52 0;
#X connect 54 0 66 0;
#X connect 55 0 53 0;
#X connect 56 0 65 0;
#X connect 57 0 58 0;
#X connect 58 0 59 0;
#X connect 59 0 60 0;
#X connect 60 0 65 1;
#X connect 61 0 56 0;
#X connect 61 1 57 0;
#X connect 62 0 61 0;
#X connect 63 0 62 0;
#X connect 64 0 0 0;
#X connect 64 0 0 1;
#X connect 64 0 17 0;
#X connect 65 0 64 0;
#X connect 66 0 29 0;
#X connect 66 0 29 1;
#X connect 66 0 34 0;
#X connect 67 0 2 0;
#X connect 67 0 16 0;
#X connect 68 0 2 1;
#X connect 69 0 35 0;
#X connect 69 0 35 1;
#X connect 69 0 36 0;
#X coords 0 0 5 5 0 0 0;
