#N canvas 1383 128 656 494 10;
#X obj 105 132 bng 15 250 50 0 empty empty empty 17 7 0 10 -262144
-1 -1;
#X obj 96 262 dac~;
#X obj 100 90 r freeze;
#X obj 268 91 r fromOF;
#X obj 266 120 route list;
#X obj 267 150 route freezeShoot;
#X obj 266 345 sounds_pitch freeze;
#X obj 268 177 bng 15 250 50 0 empty empty empty 17 7 0 10 -262144
-1 -1;
#X obj 265 204 t b b;
#X obj 364 232 random 50;
#X obj 355 277 * 0.01;
#X obj 359 299 + 1;
#X floatatom 359 321 5 0 0 0 - - -;
#X obj 365 254 - 25;
#X obj 259 397 dac~;
#X obj 310 398 throw~ mediumdelay;
#X obj 100 174 shooter freeze \$1;
#X obj 98 224 *~ 0.15;
#X obj 266 367 *~ 0.1;
#X connect 0 0 16 0;
#X connect 2 0 0 0;
#X connect 3 0 4 0;
#X connect 4 0 5 0;
#X connect 5 0 7 0;
#X connect 6 0 18 0;
#X connect 7 0 8 0;
#X connect 8 0 6 0;
#X connect 8 1 9 0;
#X connect 9 0 13 0;
#X connect 10 0 11 0;
#X connect 11 0 12 0;
#X connect 12 0 6 1;
#X connect 13 0 10 0;
#X connect 16 0 17 0;
#X connect 17 0 1 0;
#X connect 17 0 1 1;
#X connect 18 0 14 0;
#X connect 18 0 14 1;
#X connect 18 0 15 0;
