#N canvas 1015 346 593 538 10;
#X obj 150 165 r gun;
#X obj 291 207 t b;
#X obj 290 315 dac~;
#X obj 137 356 dac~;
#X obj 94 383 throw~ mediumdelay;
#X obj 294 281 *~ 0.3;
#X floatatom 203 194 5 0 0 0 - - -;
#X obj 191 109 random 40;
#X obj 198 160 * 0.01;
#X obj 190 77 metro 400;
#X obj 198 138 + 40;
#X obj 188 53 tgl 15 0 empty empty empty 17 7 0 10 -262144 -1 -1 0
1;
#X obj 213 224 t f b;
#X obj 86 333 *~ 0.2;
#X obj 292 182 bng 15 250 50 0 empty empty empty 17 7 0 10 -262144
-1 -1;
#X obj 346 311 throw~ lightdelay;
#X obj 265 286 t b;
#X obj 366 147 loadbang;
#X msg 366 169 1;
#X obj 365 200 tgl 15 0 empty empty empty 17 7 0 10 -262144 -1 -1 1
1;
#X obj 293 238 shooter gun \$1;
#X obj 138 314 *~ 0.7;
#X obj 168 285 r gunlevel;
#X obj 395 234 r gunfire;
#X obj 440 145 inlet;
#X obj 291 145 r gunshoot;
#X obj 91 258 modeplayer_vs glitch\$1 \$1;
#X connect 0 0 6 0;
#X connect 1 0 16 0;
#X connect 1 0 20 0;
#X connect 5 0 2 0;
#X connect 5 0 2 1;
#X connect 5 0 15 0;
#X connect 6 0 12 0;
#X connect 7 0 10 0;
#X connect 8 0 6 0;
#X connect 9 0 7 0;
#X connect 10 0 8 0;
#X connect 11 0 9 0;
#X connect 12 0 26 3;
#X connect 12 1 16 0;
#X connect 13 0 4 0;
#X connect 14 0 1 0;
#X connect 17 0 18 0;
#X connect 18 0 19 0;
#X connect 19 0 20 1;
#X connect 20 0 5 0;
#X connect 21 0 3 0;
#X connect 21 0 3 1;
#X connect 22 0 21 1;
#X connect 23 0 5 1;
#X connect 24 0 19 0;
#X connect 25 0 14 0;
#X connect 26 0 13 0;
#X connect 26 0 21 0;
