#N canvas 1120 259 987 779 10;
#X floatatom 359 474 5 0 0 0 - - -;
#X obj 366 677 dac~;
#X obj 358 501 sig~;
#X obj 364 592 *~;
#X obj 359 449 mtof;
#X obj 359 251 metro 100;
#X obj 346 209 tgl 15 0 empty empty empty 17 7 0 10 -262144 -1 -1 0
1;
#X obj 360 274 random 100;
#X obj 360 296 * 0.01;
#X obj 362 382 tabread modes;
#X floatatom 362 404 5 0 0 0 - - -;
#X floatatom 360 318 5 0 0 0 - - -;
#X obj 363 358 * 9;
#X obj 362 425 + 60;
#X obj 467 126 ys.bpmtoms;
#X obj 340 42 r fromOF;
#X obj 340 63 route list;
#X obj 340 85 route healRoom;
#X obj 341 135 t b;
#X obj 379 161 delay 300;
#X obj 372 115 bng 15 250 50 0 empty empty empty 17 7 0 10 -262144
-1 -1;
#X obj 410 218 / 2;
#X obj 403 678 throw~ reverb;
#X obj 302 289 r healer;
#X obj 440 129 * 2;
#X obj 255 282 bng 15 250 50 0 empty empty empty 17 7 0 10 -262144
-1 -1;
#X obj 69 144 switch~;
#X msg 54 70 1;
#X msg 105 74 0;
#X floatatom 63 113 5 0 0 0 - - -;
#X obj 109 106 t b;
#X obj 124 133 delay 800;
#X obj 366 622 ys.rj.lp;
#X floatatom 508 564 5 0 0 0 - - -;
#X floatatom 555 568 5 0 0 0 - - -;
#X obj 556 515 loadbang;
#X obj 502 518 line;
#X msg 503 489 \$1 200;
#X floatatom 288 258 5 0 0 0 - - -;
#X msg 338 174 1;
#X msg 375 183 0;
#X obj 364 529 tabosc4~ healertable;
#X obj 504 399 + 70;
#X obj 504 377 random 50;
#X msg 768 481 \; healertable read healerwave\$1.txt;
#X floatatom 767 453 5 0 0 0 - - -;
#X obj 768 411 r worldnumber;
#X obj 768 433 + 1;
#X obj 506 44 tgl 15 0 empty empty empty 17 7 0 10 -262144 -1 -1 0
1;
#X obj 505 62 metro 500;
#X obj 50 41 loadbang;
#X obj 244 328 t b b b b f;
#X obj 233 486 line~;
#X msg 294 412 0;
#X obj 282 535 *~;
#X obj 275 481 line~;
#X msg 255 411 1 20;
#X msg 224 412 1;
#X msg 184 418 0 100;
#X msg 559 541 6;
#X obj 366 646 *~ 0.08;
#X connect 0 0 2 0;
#X connect 2 0 41 0;
#X connect 3 0 32 0;
#X connect 4 0 0 0;
#X connect 5 0 7 0;
#X connect 6 0 5 0;
#X connect 7 0 8 0;
#X connect 8 0 11 0;
#X connect 8 0 51 0;
#X connect 9 0 10 0;
#X connect 10 0 13 0;
#X connect 12 0 9 0;
#X connect 13 0 4 0;
#X connect 14 0 21 0;
#X connect 14 0 24 0;
#X connect 15 0 16 0;
#X connect 16 0 17 0;
#X connect 17 0 18 0;
#X connect 18 0 19 0;
#X connect 18 0 39 0;
#X connect 18 0 43 0;
#X connect 19 0 40 0;
#X connect 20 0 18 0;
#X connect 21 0 5 1;
#X connect 23 0 51 0;
#X connect 24 0 19 1;
#X connect 25 0 51 0;
#X connect 27 0 29 0;
#X connect 27 0 30 0;
#X connect 29 0 26 0;
#X connect 30 0 31 0;
#X connect 31 0 28 0;
#X connect 32 0 60 0;
#X connect 33 0 32 1;
#X connect 34 0 32 2;
#X connect 35 0 59 0;
#X connect 36 0 33 0;
#X connect 37 0 36 0;
#X connect 38 0 51 0;
#X connect 39 0 6 0;
#X connect 40 0 6 0;
#X connect 41 0 3 0;
#X connect 42 0 37 0;
#X connect 43 0 42 0;
#X connect 45 0 44 0;
#X connect 46 0 47 0;
#X connect 47 0 45 0;
#X connect 48 0 49 0;
#X connect 49 0 20 0;
#X connect 50 0 27 0;
#X connect 51 0 58 0;
#X connect 51 1 43 0;
#X connect 51 1 57 0;
#X connect 51 2 56 0;
#X connect 51 3 53 0;
#X connect 51 4 12 0;
#X connect 52 0 54 0;
#X connect 53 0 55 0;
#X connect 54 0 3 1;
#X connect 55 0 54 1;
#X connect 56 0 55 0;
#X connect 57 0 52 0;
#X connect 58 0 52 0;
#X connect 59 0 34 0;
#X connect 60 0 1 0;
#X connect 60 0 1 1;
#X connect 60 0 22 0;
