#N canvas 1159 65 1285 552 10;
#X obj 203 374 dac~;
#X obj 191 122 bng 15 250 50 0 empty empty empty 17 7 0 10 -262144
-1 -1;
#X obj 186 86 r hotel;
#X obj 199 341 *~ 0.3;
#X floatatom 282 188 5 0 127 0 - - -;
#X floatatom 322 205 5 0 0 0 - - -;
#X obj 114 19 r hotelsize;
#X obj 113 47 * 8;
#X obj 120 125 line;
#X msg 113 93 \$1 200;
#X obj 329 152 loadbang;
#X obj 263 89 metro 400;
#X obj 265 63 tgl 15 0 empty empty empty 17 7 0 10 -262144 -1 -1 0
1;
#X msg 329 174 3;
#X obj 112 68 + 50;
#X obj 113 149 moses 125;
#X obj 220 312 ys.rj.lp;
#X obj 191 183 bassdrums \$1;
#X obj 255 231 moses 5;
#X connect 1 0 17 0;
#X connect 2 0 1 0;
#X connect 3 0 0 0;
#X connect 3 0 0 1;
#X connect 4 0 18 0;
#X connect 5 0 16 2;
#X connect 6 0 7 0;
#X connect 7 0 14 0;
#X connect 8 0 15 0;
#X connect 9 0 8 0;
#X connect 10 0 13 0;
#X connect 11 0 1 0;
#X connect 12 0 11 0;
#X connect 13 0 5 0;
#X connect 14 0 9 0;
#X connect 15 0 4 0;
#X connect 16 0 3 0;
#X connect 17 0 16 0;
#X connect 18 1 16 1;
