#N canvas 778 323 1221 848 10;
#X obj 327 526 *~;
#X obj 306 607 outlet~;
#X obj 308 562 *~ 0.06;
#X obj 223 106 inlet;
#X obj 197 174 t b f;
#X floatatom 279 81 5 0 0 0 - - -;
#X obj 268 243 pack 0 0;
#X msg 267 267 \$1 \$2;
#X obj 326 165 \$2;
#X obj 332 119 loadbang;
#X floatatom 344 198 5 0 0 0 - - -;
#X obj 93 334 \$1;
#X obj 78 300 loadbang;
#X text 88 33 arguments: notelength \, portamento length;
#X obj 419 422 *~;
#X obj 461 422 line~;
#X obj 343 453 cos~;
#X obj 343 428 +~;
#X obj 461 399 pack 0 50;
#X floatatom 461 351 0 0 0 0 - - -;
#X obj 461 375 / 100;
#X obj 343 403 phasor~;
#X obj 342 487 hip~;
#X text 496 351 index (x100);
#X floatatom 349 306 3 0 15 0 - - -;
#X obj 343 379 *~;
#X obj 355 242 loadbang;
#X msg 352 275 15;
#X msg 456 296 113;
#X obj 179 482 line~;
#X msg 151 436 1 20;
#X msg 191 430 0 250;
#X obj 196 410 delay;
#X floatatom 204 371 5 0 0 0 - - -;
#X obj 268 291 line~;
#X obj 403 54 metro 200;
#X obj 417 26 tgl 15 0 empty empty empty 17 7 0 10 -262144 -1 -1 1
1;
#X obj 403 76 random 80;
#X obj 421 109 + 30;
#X obj 404 383 ys.osc~;
#X obj 266 215 mtof;
#X connect 0 0 2 0;
#X connect 2 0 1 0;
#X connect 3 0 4 0;
#X connect 4 0 32 0;
#X connect 4 0 30 0;
#X connect 4 1 40 0;
#X connect 5 0 4 0;
#X connect 6 0 7 0;
#X connect 7 0 34 0;
#X connect 8 0 6 1;
#X connect 8 0 10 0;
#X connect 9 0 8 0;
#X connect 11 0 33 0;
#X connect 12 0 11 0;
#X connect 14 0 17 1;
#X connect 15 0 14 1;
#X connect 16 0 22 0;
#X connect 17 0 16 0;
#X connect 18 0 15 0;
#X connect 19 0 20 0;
#X connect 20 0 18 0;
#X connect 21 0 17 0;
#X connect 22 0 0 0;
#X connect 24 0 25 0;
#X connect 25 0 21 0;
#X connect 26 0 27 0;
#X connect 26 0 28 0;
#X connect 27 0 24 0;
#X connect 28 0 19 0;
#X connect 29 0 0 1;
#X connect 30 0 29 0;
#X connect 31 0 29 0;
#X connect 32 0 31 0;
#X connect 33 0 32 1;
#X connect 34 0 25 1;
#X connect 34 0 39 1;
#X connect 35 0 37 0;
#X connect 36 0 35 0;
#X connect 37 0 38 0;
#X connect 38 0 5 0;
#X connect 39 0 14 0;
#X connect 40 0 6 0;
