#N canvas 760 275 1224 756 10;
#X obj 28 119 s seqlength;
#X floatatom 23 95 5 0 0 0 - - -;
#X obj 25 36 loadbang;
#X msg 25 58 16;
#X obj 110 122 s bpm;
#X floatatom 107 93 5 0 0 0 - - -;
#X obj 27 196 scalechooser;
#X obj 29 147 loadbang;
#N canvas 816 493 1240 742 tables 0;
#X obj -62 180 table modes;
#X obj -62 204 table bassmodes;
#X obj -52 270 table notes;
#X obj -57 301 table desertnotes;
#N canvas 0 22 450 300 (subpatch) 0;
#X array mtof 130 float 1;
#A 0 8.1758 8.66196 9.17702 9.72272 10.3009 10.9134 11.5623 12.2499
12.9783 13.75 14.5676 15.4339 16.3516 17.3239 18.354 19.4454 20.6017
21.8268 23.1247 24.4997 25.9565 27.5 29.1352 30.8677 32.7032 34.6478
36.7081 38.8909 41.2034 43.6535 46.2493 48.9994 51.9131 55 58.2705
61.7354 65.4064 69.2957 73.4162 77.7817 82.4069 87.3071 92.4986 97.9989
103.826 110 116.541 123.471 130.813 138.591 146.832 155.563 164.814
174.614 184.997 195.998 207.652 220 233.082 246.942 261.626 277.183
293.665 311.127 329.628 349.228 369.994 391.995 415.305 440 466.164
493.883 523.251 554.365 587.33 622.254 659.255 698.456 739.989 783.991
830.609 880 932.328 987.767 1046.5 1108.73 1174.66 1244.51 1318.51
1396.91 1479.98 1567.98 1661.22 1760 1864.66 1975.53 2093 2217.46 2349.32
2489.02 2637.02 2793.83 2959.96 3135.96 3322.44 3520 3729.31 3951.07
4186.01 4434.92 4698.64 4978.03 5274.04 5587.65 5919.91 6271.93 6644.88
7040 7458.62 7902.13 8372.02 8869.84 9397.27 9956.06 10548.1 11175.3
11839.8 12543.9 13289.8 14080;
#X coords 0 12000 130 0 200 100 1;
#X restore -59 59 graph;
#X floatatom 474 435 5 0 0 0 - - -;
#X floatatom 522 434 5 0 0 0 - - -;
#X obj 473 462 tabwrite notes;
#X obj 470 382 random 8;
#X obj 455 202 bng 15 250 50 0 empty empty empty 17 7 0 10 -262144
-1 -1;
#X floatatom 589 240 5 0 0 0 - - -;
#X obj 589 261 + 1;
#X floatatom 589 292 5 0 0 0 - - -;
#X obj 574 353 int;
#X obj 574 199 bng 15 250 50 0 empty empty empty 17 7 0 10 -262144
-1 -1;
#X msg 639 240 0;
#X obj 589 319 % 100;
#X obj 589 123 tgl 15 0 empty empty empty 17 7 0 10 -262144 -1 -1 0
1;
#X obj 611 352 sel 0;
#X msg 674 266 seed \$1;
#X obj 590 157 metro 10;
#X floatatom 674 243 5 0 0 0 - - -;
#X obj 641 19 loadbang;
#X obj 333 461 tabwrite desertnotes;
#X obj 334 365 random 9;
#X msg 220 88 \; notes bounds 0 0 100 7 \;;
#X msg 375 89 \; desertnotes bounds 0 0 100 8 \;;
#X obj 220 50 loadbang;
#X obj 588 23 inlet;
#X obj 641 90 t b f;
#X msg 639 57 1;
#X obj 74 365 table synth1;
#X obj 76 401 table synth2;
#X obj 76 432 table synth3;
#X obj 73 461 table synth4;
#X obj 75 497 table synth5;
#X obj 75 528 table synth6;
#X obj 73 560 table synth7;
#X obj 73 591 table synth8;
#X msg -91 439 \; synth1 0 1 0 0 0 0 0 0 0;
#X msg -91 471 \; synth2 0 0 1 0 0 0 0 0 0;
#X msg -91 504 \; synth3 0 0 0 1 0 0 0 0 0;
#X msg -91 538 \; synth4 0 0 0 0 1 0 0 0 0;
#X obj -117 375 loadbang;
#X msg -91 572 \; synth5 0 0 0 0 0 1 0 0 0;
#X msg -91 604 \; synth6 0 0 0 0 0 0 1 0 0;
#X msg -91 637 \; synth7 0 0 0 0 0 0 0 1 0;
#X msg -91 671 \; synth8 0 0 0 0 0 0 0 0 1;
#X obj 625 551 metro 5;
#X obj 625 630 sel 0;
#X obj 617 527 tgl 15 0 empty empty empty 17 7 0 10 -262144 -1 -1 0
1;
#X obj 681 627 * 0.01;
#X obj 708 603 random 100;
#X obj 654 655 tabwrite synthfilter;
#N canvas 0 22 450 300 (subpatch) 0;
#X array synthfilter 100 float 3;
#A 0 0.65 0.75 0.88 0.61 0.5 0.93 0.18 0.88 0.8 0.13 0.17 0.1 0.54
0.76 0.56 0.56 0 0 0 0 0 0 0 0 0 0 0 0 0 0 0 0 0 0 0 0 0 0 0 0 0 0
0 0 0 0 0 0 0 0 0 0 0 0 0 0 0 0 0 0 0 0 0 0 0 0 0 0 0 0 0 0 0 0 0 0
0 0 0 0 0 0 0 0 0 0 0 0 0 0 0 0 0 0 0 0 0 0 0 0;
#X coords 0 1 99 -1 200 140 1;
#X restore 739 388 graph;
#X obj 615 477 bng 15 250 50 0 empty empty empty 17 7 0 10 -262144
-1 -1;
#X obj 660 572 ys.counter 16;
#X obj 620 422 loadbang;
#N canvas 0 22 450 300 (subpatch) 0;
#X array pitchmod14 131 float 1;
#A 0 0.847385 0.847385 0.847385 0.847385 0.847385 0.847385 0.847385
0.847385 0.847385 0.847385 0.847385 0.847385 0.847385 0.847385 0.863077
0.863077 0.863077 0.863077 0.863077 0.863077 0.863077 0.863077 0.863077
0.863077 0.863077 0.863077 0.863077 0.863077 0.863077 0.863077 0.863077
0.863077 0.863077 0.863077 0.863077 0.863077 0.831692 0.847385 0.847385
0.847385 0.847385 0.847385 0.847385 0.847385 0.847385 0.847385 0.847385
0.847385 0.847385 0.847385 0.847385 0.847385 0.847385 0.847385 0.847385
0.847385 0.863077 0.847385 0.847385 0.847385 0.847385 0.847385 0.847385
-0.800308 -0.784615 -0.784615 -0.784615 -0.784615 -0.784615 -0.784615
-0.784615 -0.784615 -0.784615 -0.784615 -0.784615 -0.784615 -0.784615
-0.784615 -0.784615 -0.784615 -0.784615 -0.784615 -0.784615 -0.784615
-0.784615 -0.784615 -0.784615 -0.784615 -0.784615 -0.784615 -0.784615
-0.784615 -0.784615 -0.784615 -0.768923 -0.784615 -0.784615 -0.784615
-0.784615 -0.784615 -0.784615 -0.784615 -0.784615 -0.784615 -0.784615
-0.784615 -0.784615 -0.784615 -0.768923 -0.784615 -0.784615 -0.784615
-0.784615 -0.784615 -0.784615 -0.784615 -0.784615 -0.784615 -0.784615
-0.784615 -0.784615 -0.784615 -0.784615 -0.784615 -0.800308 -0.800308
-0.800308 -0.800308 -0.800308 -0.800308 -0.800308;
#X coords 0 1.02 130 -1.02 258 130 1;
#X restore 760 111 graph;
#X floatatom 507 531 5 0 0 0 - - -;
#X obj 510 619 *~ 0.3;
#X obj 511 654 dac~;
#X obj 508 567 tabosc4~ sine;
#N canvas 0 22 450 278 (subpatch) 0;
#X array sine 67 float 3;
#A 0 -0.0980171 0 0.0980171 0.19509 0.290284 0.382683 0.471396 0.55557
0.634393 0.707106 0.77301 0.831469 0.881921 0.923879 0.95694 0.980785
0.995185 1 0.995185 0.980786 0.956941 0.92388 0.881922 0.831471 0.773012
0.707108 0.634395 0.555572 0.471399 0.382686 0.290287 0.195093 0.0980197
2.65359e-06 -0.0980144 -0.195088 -0.290282 -0.382681 -0.471394 -0.555568
-0.634391 -0.707104 -0.773008 -0.831468 -0.88192 -0.923878 -0.956939
-0.980785 -0.995184 -1 -0.995185 -0.980786 -0.956942 -0.923881 -0.881923
-0.831472 -0.773013 -0.70711 -0.634397 -0.555574 -0.471401 -0.382688
-0.29029 -0.195095 -0.0980223 -5.30718e-06 0.0980118;
#X coords 0 1 67 -1 200 140 1;
#X restore 265 556 graph;
#X obj 233 442 loadbang;
#X msg 234 489 \; sine sinesum 64 1;
#X connect 5 0 7 0;
#X connect 6 0 7 1;
#X connect 8 0 5 0;
#X connect 9 0 8 0;
#X connect 9 0 15 0;
#X connect 9 0 24 0;
#X connect 10 0 11 0;
#X connect 11 0 12 0;
#X connect 12 0 16 0;
#X connect 13 0 10 0;
#X connect 13 0 6 0;
#X connect 13 0 23 1;
#X connect 14 0 13 0;
#X connect 14 0 8 0;
#X connect 14 0 24 0;
#X connect 15 0 12 0;
#X connect 16 0 13 1;
#X connect 16 0 18 0;
#X connect 17 0 20 0;
#X connect 18 0 17 0;
#X connect 19 0 8 0;
#X connect 19 0 24 0;
#X connect 20 0 14 0;
#X connect 21 0 19 0;
#X connect 22 0 30 0;
#X connect 24 0 23 0;
#X connect 27 0 25 0;
#X connect 27 0 26 0;
#X connect 28 0 29 0;
#X connect 29 0 9 0;
#X connect 29 1 21 0;
#X connect 30 0 29 0;
#X connect 43 0 39 0;
#X connect 43 0 40 0;
#X connect 43 0 41 0;
#X connect 43 0 42 0;
#X connect 43 0 44 0;
#X connect 43 0 45 0;
#X connect 43 0 46 0;
#X connect 43 0 47 0;
#X connect 48 0 52 0;
#X connect 48 0 56 0;
#X connect 49 0 50 0;
#X connect 50 0 48 0;
#X connect 51 0 53 0;
#X connect 52 0 51 0;
#X connect 55 0 50 0;
#X connect 56 0 49 0;
#X connect 56 0 53 1;
#X connect 57 0 55 0;
#X connect 59 0 62 0;
#X connect 60 0 61 0;
#X connect 60 0 61 1;
#X connect 64 0 65 0;
#X restore 27 220 pd tables;
#X obj 335 334 s reverse;
#X obj 340 299 tgl 15 0 empty empty empty 17 7 0 10 -262144 -1 -1 0
1;
#X obj 201 459 s peyote;
#X obj 199 423 tgl 15 0 empty empty empty 17 7 0 10 -262144 -1 -1 0
1;
#X floatatom 85 172 5 0 0 0 - - -;
#X obj 244 690 catch~ sounds;
#X obj 246 759 dac~;
#X obj 390 23 r fromOF;
#X obj 390 44 route list;
#X obj 823 84 route monoMode;
#X obj 364 497 s notelength;
#X floatatom 21 400 5 0 0 0 - - -;
#X obj 21 316 loadbang;
#X obj 614 413 tgl 15 0 empty empty empty 17 7 0 10 -262144 -1 -1 0
1;
#X obj 777 413 tgl 15 0 empty empty empty 17 7 0 10 -262144 -1 -1 0
1;
#X obj 937 406 tgl 15 0 empty empty empty 17 7 0 10 -262144 -1 -1 0
1;
#X obj 744 413 bng 15 250 50 0 empty empty empty 17 7 0 10 -262144
-1 -1;
#X obj 908 410 bng 15 250 50 0 empty empty empty 17 7 0 10 -262144
-1 -1;
#X obj 1067 406 bng 15 250 50 0 empty empty empty 17 7 0 10 -262144
-1 -1;
#X obj 106 441 s portamento;
#X floatatom 106 402 5 0 0 0 - - -;
#X obj 629 327 loadbang;
#X msg 623 356 0;
#X msg 106 371 100;
#X obj 390 78 route explosion;
#X obj 387 115 t b;
#X msg 21 370 250;
#X obj 608 496 dac~;
#X obj 762 509 dac~;
#X obj 951 514 dac~;
#X obj 633 257 bng 15 250 50 0 empty empty empty 17 7 0 10 -262144
-1 -1;
#X obj 1221 507 dac~;
#X obj 950 108 print raw;
#N canvas 603 30 710 444 threevoiceroute 0;
#X obj 161 333 outlet;
#X obj 223 333 outlet;
#X obj 104 333 outlet;
#X obj 88 37 inlet;
#X obj 267 94 / 128;
#X obj 156 66 unpack 0 0;
#X obj 104 126 + 1;
#X obj 63 108 bng 15 250 50 0 empty empty empty 17 7 0 10 -262144 -1
-1;
#X obj 63 126 float;
#X floatatom 63 146 5 0 0 0 - - -;
#X obj 125 191 pack 0 0 0;
#X obj 127 227 route 0;
#X obj 323 220 route 2;
#X obj 200 226 route 1;
#X obj 63 163 % 3;
#X obj 126 255 unpack 0 0;
#X obj 234 252 unpack 0 0;
#X obj 333 253 unpack 0 0;
#X connect 3 0 5 0;
#X connect 4 0 10 2;
#X connect 5 0 10 1;
#X connect 5 0 7 0;
#X connect 5 1 4 0;
#X connect 6 0 8 1;
#X connect 7 0 8 0;
#X connect 8 0 9 0;
#X connect 8 0 6 0;
#X connect 9 0 14 0;
#X connect 10 0 11 0;
#X connect 10 0 13 0;
#X connect 10 0 12 0;
#X connect 11 0 15 0;
#X connect 12 0 17 0;
#X connect 13 0 16 0;
#X connect 14 0 10 0;
#X connect 15 0 2 0;
#X connect 16 0 0 0;
#X connect 17 0 1 0;
#X restore 1393 359 pd threevoiceroute;
#X obj 492 222 bng 15 250 50 0 empty empty empty 17 7 0 10 -262144
-1 -1;
#X floatatom 426 339 5 0 0 0 - - -;
#X obj 428 365 s keychange;
#X obj 1513 283 random 100;
#X obj 1516 314 * 0.01;
#X obj 823 113 route 0 1 2 3 4 5;
#X obj 487 283 % 4;
#X obj 531 243 + 1;
#X obj 490 243 float;
#X floatatom 490 263 5 0 0 0 - - -;
#X obj 442 749 mountain \$1;
#X obj 534 712 tgl 15 0 empty empty empty 17 7 0 10 -262144 -1 -1 1
1;
#X obj 427 778 *~ 0.08;
#X obj 533 686 loadbang 1;
#X obj 454 819 dac~;
#X obj 498 774 *~ 0.08;
#X obj 635 285 sounds_pitch explode;
#X obj 728 184 random 40;
#X obj 735 213 + 80;
#X obj 735 235 * 0.01;
#X floatatom 737 265 5 0 0 0 - - -;
#X obj 633 155 t b b;
#X obj 364 90 bng 15 250 50 0 empty empty empty 17 7 0 10 -262144 -1
-1;
#X msg 107 64 350;
#X obj 357 416 * 50;
#X obj 361 444 + 400;
#X floatatom 365 475 5 0 0 0 - - -;
#X obj 450 489 s softphasor;
#X obj 506 404 * 0.1;
#X obj 535 580 s softdist;
#X obj 536 468 + 1;
#X obj 523 433 wrap;
#X floatatom 544 409 5 0 0 0 - - -;
#X msg 522 209 1;
#X obj 566 191 loadbang;
#X obj 559 309 loadbang;
#X msg 582 334 0;
#X obj 247 717 *~ 0.2;
#X obj 21 440 s notelength;
#X obj 1246 99 route currentAim;
#X obj 883 327 route aimShoot;
#X obj 1450 779 dac~;
#X obj 1405 643 bng 15 250 50 0 empty empty empty 17 7 0 10 -262144
-1 -1;
#X obj 1248 167 s hhmod;
#X obj 1248 142 * 70;
#X obj 158 67 route bpm;
#X obj 353 242 random 3;
#X obj 350 274 sel 1;
#X obj 358 190 bng 15 250 50 0 empty empty empty 17 7 0 10 -262144
-1 -1;
#X obj 1515 258 metro 200;
#X obj 1511 228 tgl 15 0 empty empty empty 17 7 0 10 -262144 -1 -1
0 1;
#X obj 423 685 catch~ reverb;
#X obj 824 20 r fromOF;
#X obj 822 49 route list;
#X obj 1246 14 r fromOF;
#X obj 1246 35 route list;
#X obj 1488 646 bng 15 250 50 0 empty empty empty 17 7 0 10 -262144
-1 -1;
#X obj 883 284 r fromOF;
#X obj 890 305 route list;
#X obj 161 16 r fromOF;
#X obj 161 37 route list;
#X obj 306 401 loadbang;
#X msg 307 436 200;
#X obj 1405 520 r fromOF;
#X obj 1405 541 route list;
#X obj 1405 563 route healRoom;
#X obj 1405 595 t b;
#X obj 1488 609 loadbang;
#X obj 1304 529 tgl 15 0 empty empty empty 17 7 0 10 -262144 -1 -1
0 1;
#X obj 1316 583 r bangs8;
#X obj 1299 613 spigot;
#X obj 1319 139 print aim;
#X floatatom 1586 598 5 0 0 0 - - -;
#X obj 1585 620 s notelengthfmsynth;
#X msg 1579 569 350;
#X floatatom 1614 414 5 0 0 0 - - -;
#X obj 1606 350 loadbang;
#X obj 1613 436 s notelengthsoftsynth;
#X obj 1201 364 bng 15 250 50 0 empty empty empty 17 7 0 10 -262144
-1 -1;
#X obj 1182 258 tgl 15 0 empty empty empty 17 7 0 10 -262144 -1 -1
0 1;
#X obj 1194 312 r bangs8;
#X obj 1177 342 spigot;
#X msg 1607 384 150;
#X msg 29 171 8;
#X obj 1071 333 bng 15 250 50 0 empty empty empty 17 7 0 10 -262144
-1 -1;
#X obj 1069 210 r fromOF;
#X obj 1069 231 route list;
#X obj 1068 261 route sounds;
#X obj 1070 290 route click;
#X obj 163 101 print bpm;
#X obj 600 56 r hit;
#X obj 957 620 gull 1;
#N canvas 295 130 879 497 bangs 0;
#X floatatom -109 -182 5 0 0 0 - - -;
#X floatatom -113 -133 5 0 0 0 - - -;
#X obj -114 -106 phasor~;
#X obj -109 -159 / 240;
#X obj -110 -208 r bpm;
#X obj -122 16 threshold~ 0.999 10 10 10;
#X obj -122 42 bng 15 250 50 0 empty empty empty 17 7 0 10 -262144
-1 -1;
#X obj -125 -13 wrap~;
#X obj -114 -69 *~ 8;
#X obj -28 -61 *~ 4;
#X obj 60 27 bng 15 250 50 0 empty empty empty 17 7 0 10 -262144 -1
-1;
#X obj -122 68 send bangs16;
#X obj 48 68 send bangs8;
#X obj 138 16 threshold~ 0.999 10 10 10;
#X obj 138 42 bng 15 250 50 0 empty empty empty 17 7 0 10 -262144 -1
-1;
#X obj 137 -13 wrap~;
#X obj 138 68 send bangs4;
#X obj 133 -57 *~ 1;
#X msg -41 -148 0;
#X obj 326 35 bng 15 250 50 0 empty empty empty 17 7 0 10 -262144 -1
-1;
#X obj 325 -20 wrap~;
#X obj 326 9 threshold~ 0.499 10 10 10;
#X obj 326 61 send bangs4a;
#X obj -19 66 send toOF;
#X obj -33 -12 threshold~ 0.999 10 10 10;
#X obj -34 -41 wrap~;
#X connect 0 0 3 0;
#X connect 1 0 2 0;
#X connect 2 0 8 0;
#X connect 2 0 9 0;
#X connect 2 0 17 0;
#X connect 3 0 1 0;
#X connect 4 0 0 0;
#X connect 5 0 6 0;
#X connect 6 0 11 0;
#X connect 7 0 5 0;
#X connect 8 0 7 0;
#X connect 9 0 25 0;
#X connect 10 0 12 0;
#X connect 10 0 23 0;
#X connect 13 0 14 0;
#X connect 14 0 16 0;
#X connect 15 0 13 0;
#X connect 17 0 15 0;
#X connect 17 0 20 0;
#X connect 18 0 2 0;
#X connect 19 0 22 0;
#X connect 20 0 21 0;
#X connect 21 0 19 0;
#X connect 24 0 10 0;
#X connect 25 0 24 0;
#X restore 43 526 pd bangs;
#X obj 1641 557 * 2;
#X obj 910 622 kid 1;
#X obj 1019 618 cloud;
#N canvas 451 22 487 754 win 1;
#X obj -570 52 r fromOF;
#X obj -570 73 route list;
#X obj -570 95 route levelWon;
#X floatatom -528 567 5 0 0 0 - - -;
#X obj -380 712 dac~;
#X obj -554 497 tabread modes;
#X msg -552 468 0;
#X msg -518 467 2;
#X msg -485 465 4;
#X msg -454 465 7;
#X obj -527 541 + 84;
#X obj -539 245 + 1;
#X floatatom -539 281 5 0 0 0 - - -;
#X obj -555 343 int;
#X obj -566 287 bng 15 250 50 0 empty empty empty 17 7 0 10 -262144
-1 -1;
#X msg -505 243 0;
#X obj -536 309 % 5;
#X floatatom -549 381 5 0 0 0 - - -;
#X obj -497 379 sel 4;
#X obj -564 123 t b;
#X obj -561 148 bng 15 250 50 0 empty empty empty 17 7 0 10 -262144
-1 -1;
#X msg -558 170 1;
#X obj -553 212 spigot;
#X obj -547 409 sel 0 1 2 3 4;
#X obj -631 170 r bangs8;
#X obj -380 492 + 2;
#X obj -378 554 tabread modes;
#X floatatom -386 612 5 0 0 0 - - -;
#X obj -385 586 + 84;
#X obj -379 525 % 7;
#X obj -490 712 throw~ lightdelay;
#X obj -530 594 sigsynth 300 100;
#X obj -383 640 sigsynth 300 100;
#X obj -473 156 s win;
#X obj -372 268 switch~;
#X msg -387 194 1;
#X msg -336 198 0;
#X floatatom -378 237 5 0 0 0 - - -;
#X obj -332 230 t b;
#X obj -317 257 delay 2000;
#X obj -452 662 *~ 0.4;
#X obj -427 154 s end;
#X obj -421 18 r fromOF;
#X obj -421 39 route list;
#X obj -415 89 t b;
#X obj -412 114 bng 15 250 50 0 empty empty empty 17 7 0 10 -262144
-1 -1;
#X obj -421 61 route levelLose;
#X connect 0 0 1 0;
#X connect 1 0 2 0;
#X connect 2 0 19 0;
#X connect 3 0 31 0;
#X connect 5 0 10 0;
#X connect 6 0 5 0;
#X connect 6 0 25 0;
#X connect 7 0 5 0;
#X connect 7 0 25 0;
#X connect 8 0 5 0;
#X connect 8 0 25 0;
#X connect 9 0 5 0;
#X connect 9 0 25 0;
#X connect 10 0 3 0;
#X connect 11 0 12 0;
#X connect 12 0 16 0;
#X connect 13 0 17 0;
#X connect 13 0 11 0;
#X connect 14 0 13 0;
#X connect 15 0 12 0;
#X connect 15 0 22 1;
#X connect 16 0 13 1;
#X connect 17 0 18 0;
#X connect 17 0 23 0;
#X connect 18 0 15 0;
#X connect 19 0 20 0;
#X connect 20 0 21 0;
#X connect 20 0 33 0;
#X connect 20 0 35 0;
#X connect 20 0 41 0;
#X connect 21 0 22 1;
#X connect 22 0 14 0;
#X connect 23 0 7 0;
#X connect 23 1 6 0;
#X connect 23 2 7 0;
#X connect 23 3 8 0;
#X connect 23 4 9 0;
#X connect 24 0 22 0;
#X connect 25 0 29 0;
#X connect 26 0 28 0;
#X connect 27 0 32 0;
#X connect 28 0 27 0;
#X connect 29 0 26 0;
#X connect 31 0 40 0;
#X connect 32 0 40 0;
#X connect 35 0 37 0;
#X connect 35 0 38 0;
#X connect 36 0 37 0;
#X connect 37 0 34 0;
#X connect 38 0 39 0;
#X connect 39 0 36 0;
#X connect 40 0 4 0;
#X connect 40 0 4 1;
#X connect 40 0 30 0;
#X connect 42 0 43 0;
#X connect 43 0 46 0;
#X connect 44 0 45 0;
#X connect 45 0 41 0;
#X connect 46 0 44 0;
#X restore 852 732 pd win;
#X obj 829 509 throw~ lightdelay;
#X obj 331 655 catch~ lightdelay;
#N canvas 268 326 600 504 lightdelay 0;
#X floatatom -39 410 5 0 0.8 0 - - -;
#X obj -46 366 loadbang;
#X msg -39 388 0.1;
#X obj -157 252 inlet~;
#X obj -99 388 + 5;
#X obj -121 335 ys.bpmtoms;
#X obj -170 440 ys.masterdelay lightdelay;
#X connect 0 0 6 3;
#X connect 0 0 6 4;
#X connect 1 0 2 0;
#X connect 2 0 0 0;
#X connect 3 0 6 0;
#X connect 4 0 6 2;
#X connect 5 0 4 0;
#X connect 5 0 6 1;
#X restore 330 742 pd lightdelay;
#N canvas 0 22 1284 796 mediumdelay 0;
#X floatatom 172 226 5 0 0 0 - - -;
#X obj 172 160 loadbang;
#X obj 112 216 + 5;
#X msg 177 189 0.4;
#X obj 60 62 inlet~;
#X obj 90 163 ys.bpmtoms;
#X obj 54 261 ys.masterdelay mediumdelay;
#X connect 0 0 6 3;
#X connect 0 0 6 4;
#X connect 1 0 3 0;
#X connect 2 0 6 2;
#X connect 3 0 0 0;
#X connect 4 0 6 0;
#X connect 5 0 2 0;
#X connect 5 0 6 1;
#X restore 614 771 pd mediumdelay;
#X obj 614 726 catch~ mediumdelay;
#X obj 1059 25 r fromOF;
#X obj 1059 46 route list;
#X obj 1060 77 route levelStart;
#X obj 1058 137 s start;
#X obj 1061 112 t b;
#X obj 1282 331 r start;
#X obj 997 403 r start;
#X obj 843 413 r start;
#X obj 677 406 r start;
#X obj 269 148 r start;
#X obj 1099 114 bng 15 250 50 0 empty empty empty 17 7 0 10 -262144
-1 -1;
#X obj 941 431 drumsequencer hats 16 16;
#X obj 1567 180 ys.bpmtoms;
#X obj 1642 516 ys.bpmtoms;
#N canvas 0 22 450 300 clip 0;
#X obj 151 -198 *~;
#X obj 149 -159 clip~ -1 1;
#X floatatom 260 -225 5 0 0 0 - - -;
#X obj 166 -252 r softdist;
#X floatatom 183 -231 5 0 0 0 - - -;
#X obj 144 -299 inlet~;
#X obj 153 -101 outlet~;
#X obj 230 -118 throw~ reverb;
#X obj 157 -137 *~ 0.7;
#X connect 0 0 1 0;
#X connect 1 0 8 0;
#X connect 2 0 0 1;
#X connect 3 0 4 0;
#X connect 4 0 0 1;
#X connect 5 0 0 0;
#X connect 8 0 6 0;
#X connect 8 0 7 0;
#X restore 1222 476 pd clip;
#N canvas 822 472 450 300 clip 0;
#X obj 119 -322 clip~ -1 1;
#X obj 111 -392 *~ 0.5;
#X obj 119 -343 *~ 7.5;
#X obj 108 -428 inlet~;
#X obj 132 -226 outlet~;
#X obj 197 -243 throw~ reverb;
#X obj 125 -268 *~ 0.12;
#X connect 0 0 6 0;
#X connect 1 0 2 0;
#X connect 2 0 0 0;
#X connect 3 0 1 0;
#X connect 6 0 4 0;
#X connect 6 0 5 0;
#X restore 1425 731 pd clip;
#X obj 765 480 *~ 0.4;
#X obj 962 477 *~ 0.7;
#X obj 1566 225 * 2;
#X obj 614 808 catch~ heavydelay;
#N canvas 0 22 1284 796 heavydelay 0;
#X floatatom 173 227 5 0 0 0 - - -;
#X obj 172 160 loadbang;
#X obj 112 216 + 5;
#X obj 60 62 inlet~;
#X obj 90 163 ys.bpmtoms;
#X msg 177 189 0.6;
#X obj 54 261 ys.masterdelay heavydelay;
#X connect 0 0 6 3;
#X connect 0 0 6 4;
#X connect 1 0 5 0;
#X connect 2 0 6 2;
#X connect 3 0 6 0;
#X connect 4 0 2 0;
#X connect 4 0 6 1;
#X connect 5 0 0 0;
#X restore 614 853 pd heavydelay;
#X obj 511 56 print all;
#X obj 601 467 *~ 0.4;
#X msg 542 542 0.3;
#X obj 1116 673 bng 15 250 50 0 empty empty empty 17 7 0 10 -262144
-1 -1;
#X obj 1066 779 dac~;
#X obj 930 670 mine mine 4;
#X floatatom 1200 114 5 0 0 0 - - -;
#X obj 776 439 drumsequencer snare 4 4a;
#X obj 615 439 drumsequencer bass 4 4;
#X obj 890 350 t b;
#X obj 1243 64 route aimShoot;
#X obj 1135 115 print;
#X obj 1061 750 *~ 0.3;
#X obj 1121 762 throw~ lightdelay;
#X floatatom 1319 659 5 0 0 0 - - -;
#N canvas 49 22 1003 729 enemytriggers 0;
#X obj 574 145 bng 15 250 50 0 empty empty empty 17 7 0 10 -262144
-1 -1;
#X obj 71 153 bng 15 250 50 0 empty empty empty 17 7 0 10 -262144 -1
-1;
#X obj 65 37 r fromOF;
#X obj 65 58 route list;
#X obj 588 35 r fromOF;
#X obj 588 56 route list;
#X obj 68 176 s hitgull;
#X obj 567 166 s killgull;
#X obj 184 154 bng 15 250 50 0 empty empty empty 17 7 0 10 -262144
-1 -1;
#X obj 181 177 s hitkid;
#X obj 662 148 bng 15 250 50 0 empty empty empty 17 7 0 10 -262144
-1 -1;
#X obj 589 91 route gull_bullet_kill kid_kill;
#X obj 646 167 s killkid;
#X obj 180 120 t b b;
#X obj 667 116 t b b;
#X obj 230 147 s kidon;
#X obj 692 143 s kidon;
#X obj 88 234 r fromOF;
#X obj 88 255 route list;
#X obj 89 290 route enemyAdded;
#X obj 95 482 bng 15 250 50 0 empty empty empty 17 7 0 10 -262144 -1
-1;
#X obj 208 483 bng 15 250 50 0 empty empty empty 17 7 0 10 -262144
-1 -1;
#X obj 204 449 t b b;
#X obj 254 476 s kidon;
#X obj 92 505 s gullappear;
#X obj 205 506 s kidappear;
#X obj 90 322 route GullEnemy KidEnemy CloudEnemy GullAngryEnemy KidAngryEnemy
CloudAngryEnemy;
#X obj 275 427 bng 15 250 50 0 empty empty empty 17 7 0 10 -262144
-1 -1;
#X obj 271 393 t b b;
#X obj 272 450 s cloudappear;
#X obj 405 440 bng 15 250 50 0 empty empty empty 17 7 0 10 -262144
-1 -1;
#X obj 401 406 t b b;
#X obj 402 463 s gullangryappear;
#X obj 523 444 bng 15 250 50 0 empty empty empty 17 7 0 10 -262144
-1 -1;
#X obj 519 410 t b b;
#X obj 569 437 s kidon;
#X obj 520 467 s kidangryappear;
#X obj 641 449 bng 15 250 50 0 empty empty empty 17 7 0 10 -262144
-1 -1;
#X obj 637 415 t b b;
#X obj 638 472 s cloudangryappear;
#X obj 687 442 s cloudon;
#X obj 442 443 s gullon;
#X obj 311 176 bng 15 250 50 0 empty empty empty 17 7 0 10 -262144
-1 -1;
#X obj 307 142 t b b;
#X obj 308 199 s hitcloud;
#X obj 66 93 route gull_hit_building kid_hit_building lightning_hit
;
#X obj 434 91 route lightning_shoot;
#X obj 437 181 bng 15 250 50 0 empty empty empty 17 7 0 10 -262144
-1 -1;
#X obj 433 147 t b b;
#X obj 434 204 s shootcloud;
#X obj 337 122 bng 15 250 50 0 empty empty empty 17 7 0 10 -262144
-1 -1;
#X obj 357 169 s cloudon;
#X obj 483 174 s cloudon;
#X obj 234 119 bng 15 250 50 0 empty empty empty 17 7 0 10 -262144
-1 -1;
#X obj 321 420 s cloudon;
#X obj 486 125 bng 15 250 50 0 empty empty empty 17 7 0 10 -262144
-1 -1;
#X obj 647 378 bng 15 250 50 0 empty empty empty 17 7 0 10 -262144
-1 -1;
#X obj 296 360 bng 15 250 50 0 empty empty empty 17 7 0 10 -262144
-1 -1;
#X obj 67 119 t b b;
#X obj 588 115 t b b;
#X obj 91 448 t b b;
#X obj 100 148 s gullon;
#X obj 605 137 s gullon;
#X obj 120 470 s gullon;
#X obj 120 424 bng 15 250 50 0 empty empty empty 17 7 0 10 -262144
-1 -1;
#X obj 123 117 bng 15 250 50 0 empty empty empty 17 7 0 10 -262144
-1 -1;
#X connect 0 0 7 0;
#X connect 1 0 6 0;
#X connect 2 0 3 0;
#X connect 3 0 45 0;
#X connect 3 0 46 0;
#X connect 4 0 5 0;
#X connect 5 0 11 0;
#X connect 8 0 9 0;
#X connect 10 0 12 0;
#X connect 11 0 59 0;
#X connect 11 1 14 0;
#X connect 13 0 8 0;
#X connect 13 1 15 0;
#X connect 14 0 10 0;
#X connect 14 1 16 0;
#X connect 17 0 18 0;
#X connect 18 0 19 0;
#X connect 19 0 26 0;
#X connect 20 0 24 0;
#X connect 21 0 25 0;
#X connect 22 0 21 0;
#X connect 22 1 23 0;
#X connect 26 0 60 0;
#X connect 26 1 22 0;
#X connect 26 2 28 0;
#X connect 26 3 31 0;
#X connect 26 4 34 0;
#X connect 26 5 38 0;
#X connect 27 0 29 0;
#X connect 28 0 27 0;
#X connect 28 1 54 0;
#X connect 30 0 32 0;
#X connect 31 0 30 0;
#X connect 31 1 41 0;
#X connect 33 0 36 0;
#X connect 34 0 33 0;
#X connect 34 1 35 0;
#X connect 37 0 39 0;
#X connect 38 0 37 0;
#X connect 38 1 40 0;
#X connect 42 0 44 0;
#X connect 43 0 42 0;
#X connect 43 1 51 0;
#X connect 45 0 58 0;
#X connect 45 1 13 0;
#X connect 45 2 43 0;
#X connect 46 0 48 0;
#X connect 47 0 49 0;
#X connect 48 0 47 0;
#X connect 48 1 52 0;
#X connect 50 0 43 0;
#X connect 53 0 13 0;
#X connect 55 0 48 0;
#X connect 56 0 38 0;
#X connect 57 0 28 0;
#X connect 58 0 1 0;
#X connect 58 1 61 0;
#X connect 59 0 0 0;
#X connect 59 1 62 0;
#X connect 60 0 20 0;
#X connect 60 1 63 0;
#X connect 64 0 60 0;
#X connect 65 0 58 0;
#X restore 916 557 pd enemytriggers;
#X obj 1362 680 synthsequencer synth7 mode 4 fmsynth;
#X msg 264 186 1;
#X obj 822 146 s hotel;
#X obj 749 365 r hotel;
#X obj 903 148 s healer;
#X obj 801 363 r healer;
#X obj 843 176 s room;
#X obj 1390 323 r room;
#X obj 885 166 s gun;
#X obj 1061 383 r gun;
#X obj 958 172 s mine;
#X obj 1270 659 r mine;
#X obj 1267 443 synthsequencer synth6 mode 16 softsynth;
#X obj 1055 706 synthsequencer minesynth1 mode 16 pugglesynth;
#X obj 1214 421 synthsequencer synth5 mode 16 softsynth;
#X obj 1160 385 synthsequencer synth4 mode 16 softsynth;
#X obj 1481 148 ambient;
#X obj 1479 47 r start;
#X obj 1552 45 r end;
#X msg 1481 80 1;
#X msg 1552 79 0;
#X obj 1543 124 print start;
#X connect 1 0 0 0;
#X connect 2 0 3 0;
#X connect 2 0 66 0;
#X connect 3 0 1 0;
#X connect 5 0 4 0;
#X connect 7 0 126 0;
#X connect 10 0 9 0;
#X connect 12 0 11 0;
#X connect 13 0 6 0;
#X connect 14 0 80 0;
#X connect 16 0 17 0;
#X connect 17 0 33 0;
#X connect 18 0 48 0;
#X connect 20 0 81 0;
#X connect 21 0 32 0;
#X connect 21 0 35 0;
#X connect 22 0 174 0;
#X connect 23 0 173 0;
#X connect 24 0 156 0;
#X connect 25 0 174 4;
#X connect 26 0 173 4;
#X connect 27 0 156 4;
#X connect 29 0 28 0;
#X connect 30 0 31 0;
#X connect 31 0 22 0;
#X connect 31 0 23 0;
#X connect 31 0 24 0;
#X connect 32 0 29 0;
#X connect 33 0 34 0;
#X connect 34 0 43 0;
#X connect 34 0 64 0;
#X connect 34 0 89 0;
#X connect 35 0 20 0;
#X connect 39 0 59 0;
#X connect 42 0 197 5;
#X connect 42 1 196 5;
#X connect 42 2 194 5;
#X connect 43 0 51 0;
#X connect 44 0 45 0;
#X connect 46 0 47 0;
#X connect 47 0 42 0;
#X connect 48 0 184 0;
#X connect 48 1 188 0;
#X connect 48 2 190 0;
#X connect 48 3 192 0;
#X connect 48 4 186 0;
#X connect 49 0 44 0;
#X connect 50 0 51 1;
#X connect 51 0 52 0;
#X connect 51 0 50 0;
#X connect 52 0 49 0;
#X connect 52 0 71 0;
#X connect 53 0 55 0;
#X connect 53 1 58 0;
#X connect 54 0 53 1;
#X connect 55 0 57 0;
#X connect 56 0 54 0;
#X connect 58 0 57 1;
#X connect 60 0 61 0;
#X connect 61 0 62 0;
#X connect 62 0 63 0;
#X connect 63 0 59 1;
#X connect 64 0 39 0;
#X connect 64 1 60 0;
#X connect 65 0 34 0;
#X connect 66 0 5 0;
#X connect 67 0 68 0;
#X connect 68 0 69 0;
#X connect 69 0 19 0;
#X connect 71 0 74 0;
#X connect 74 0 73 0;
#X connect 75 0 74 0;
#X connect 76 0 51 1;
#X connect 77 0 76 0;
#X connect 78 0 79 0;
#X connect 79 0 75 0;
#X connect 79 0 168 0;
#X connect 80 0 15 0;
#X connect 80 0 15 1;
#X connect 80 0 142 0;
#X connect 82 0 87 0;
#X connect 82 0 114 0;
#X connect 83 0 175 0;
#X connect 85 0 182 1;
#X connect 87 0 86 0;
#X connect 88 0 5 0;
#X connect 88 0 132 0;
#X connect 89 0 90 0;
#X connect 90 0 10 0;
#X connect 91 0 89 0;
#X connect 92 0 46 0;
#X connect 93 0 92 0;
#X connect 94 0 142 0;
#X connect 94 0 53 0;
#X connect 95 0 96 0;
#X connect 96 0 18 0;
#X connect 97 0 98 0;
#X connect 98 0 176 0;
#X connect 99 0 182 2;
#X connect 99 0 182 3;
#X connect 100 0 101 0;
#X connect 101 0 83 0;
#X connect 102 0 103 0;
#X connect 103 0 88 0;
#X connect 104 0 105 0;
#X connect 105 0 69 0;
#X connect 106 0 107 0;
#X connect 107 0 108 0;
#X connect 108 0 109 0;
#X connect 109 0 85 0;
#X connect 110 0 99 0;
#X connect 111 0 113 1;
#X connect 112 0 113 0;
#X connect 113 0 85 0;
#X connect 115 0 116 0;
#X connect 117 0 115 0;
#X connect 118 0 120 0;
#X connect 119 0 125 0;
#X connect 121 0 197 1;
#X connect 122 0 124 1;
#X connect 123 0 124 0;
#X connect 124 0 121 0;
#X connect 125 0 118 0;
#X connect 126 0 6 0;
#X connect 127 0 121 0;
#X connect 128 0 129 0;
#X connect 129 0 130 0;
#X connect 130 0 131 0;
#X connect 131 0 127 0;
#X connect 136 0 115 0;
#X connect 141 0 142 0;
#X connect 144 0 143 0;
#X connect 145 0 146 0;
#X connect 146 0 147 0;
#X connect 147 0 149 0;
#X connect 147 0 177 0;
#X connect 149 0 148 0;
#X connect 150 0 197 2;
#X connect 150 0 197 3;
#X connect 151 0 156 2;
#X connect 151 0 156 3;
#X connect 152 0 173 2;
#X connect 152 0 173 3;
#X connect 153 0 174 2;
#X connect 153 0 174 3;
#X connect 154 0 183 0;
#X connect 155 0 149 0;
#X connect 156 0 162 0;
#X connect 157 0 163 0;
#X connect 158 0 136 0;
#X connect 159 0 40 0;
#X connect 159 0 40 1;
#X connect 160 0 84 0;
#X connect 160 0 84 1;
#X connect 161 0 37 0;
#X connect 161 0 37 1;
#X connect 161 0 140 0;
#X connect 162 0 38 0;
#X connect 162 0 38 1;
#X connect 162 0 140 0;
#X connect 163 0 92 1;
#X connect 164 0 165 0;
#X connect 167 0 36 0;
#X connect 167 0 36 1;
#X connect 167 0 140 0;
#X connect 168 0 72 0;
#X connect 169 0 195 1;
#X connect 172 0 87 0;
#X connect 173 0 161 0;
#X connect 174 0 167 0;
#X connect 175 0 26 0;
#X connect 176 0 82 0;
#X connect 178 0 170 0;
#X connect 178 0 170 1;
#X connect 178 0 179 0;
#X connect 180 0 195 5;
#X connect 182 0 160 0;
#X connect 185 0 25 0;
#X connect 187 0 25 0;
#X connect 189 0 42 0;
#X connect 191 0 27 0;
#X connect 193 0 195 5;
#X connect 194 0 159 0;
#X connect 195 0 178 0;
#X connect 196 0 159 0;
#X connect 197 0 159 0;
#X connect 199 0 201 0;
#X connect 200 0 202 0;
#X connect 201 0 198 0;
#X connect 201 0 203 0;
#X connect 202 0 198 0;
