#N canvas 1410 281 854 594 10;
#X floatatom 187 167 5 0 0 0 - - -;
#X obj 187 146 tabread modes;
#X obj 198 58 * 100;
#X obj 189 125 tabread notes;
#X obj 189 101 i;
#X floatatom 198 38 5 0 0 0 - - -;
#X obj 323 628 outlet~;
#X obj 169 342 bng 15 250 50 0 empty empty empty 17 7 0 10 -262144
-1 -1;
#X obj 205 365 + 1;
#X obj 164 365 float;
#X floatatom 164 385 5 0 0 0 - - -;
#X floatatom 161 427 5 0 0 0 - - -;
#X obj 172 323 t b f;
#X obj 194 7 inlet;
#X obj 198 273 + 1;
#X obj 313 85 random 100;
#X obj 321 11 tgl 15 0 empty empty empty 17 7 0 10 -262144 -1 -1 0
1;
#X obj 93 555 dynamicplayer \$1 1;
#N canvas 0 22 450 300 (subpatch) 0;
#X array vol_\$1 16 float 3;
#A 0 0 0 1 0 1 0 0 1 1 0 0 0 1 0 1 1;
#X coords 0 1 16 0 200 140 1 0 0;
#X restore 301 230 graph;
#X obj 268 396 tabread vol_\$1;
#X floatatom 269 421 5 0 0 0 - - -;
#X obj 94 524 t l f;
#X obj 270 515 t l f;
#X obj 646 150 metro 5;
#X obj 635 223 sel 0;
#X obj 638 126 tgl 15 0 empty empty empty 17 7 0 10 -262144 -1 -1 0
1;
#X obj 679 181 ys.counter 16;
#X obj 637 83 t b b;
#X obj 677 327 tabwrite vol_\$1;
#X obj 702 252 random 2;
#X obj 674 42 loadbang;
#X obj 636 25 r start;
#X obj 324 -15 inlet;
#X obj 63 247 + 0;
#X msg 64 192 5;
#X msg 102 192 7;
#X msg 20 190 0;
#X obj 26 156 bng 15 250 50 0 empty empty empty 17 7 0 10 -262144 -1
-1;
#X obj 62 154 bng 15 250 50 0 empty empty empty 17 7 0 10 -262144 -1
-1;
#X obj 100 156 bng 15 250 50 0 empty empty empty 17 7 0 10 -262144
-1 -1;
#X obj 61 67 r keychange;
#X obj 61 89 sel 0 1 2 3;
#X obj 317 41 metro 400;
#X obj 424 23 inlet;
#X obj 270 550 dynamicplayer \$1 2;
#X floatatom 310 133 5 0 0 0 - - -;
#X obj 164 445 pack 0 0 0;
#X obj 101 591 *~ 0.3;
#X obj 268 590 *~ 0.3;
#X obj 161 405 % 2;
#X obj 162 470 route 0 1;
#X connect 0 0 14 0;
#X connect 1 0 0 0;
#X connect 2 0 4 0;
#X connect 3 0 1 0;
#X connect 4 0 3 0;
#X connect 5 0 2 0;
#X connect 7 0 9 0;
#X connect 8 0 9 1;
#X connect 9 0 10 0;
#X connect 9 0 8 0;
#X connect 10 0 49 0;
#X connect 11 0 46 0;
#X connect 12 0 7 0;
#X connect 12 1 46 2;
#X connect 13 0 5 0;
#X connect 14 0 12 0;
#X connect 14 0 19 0;
#X connect 15 0 4 0;
#X connect 15 0 45 0;
#X connect 16 0 42 0;
#X connect 17 0 47 0;
#X connect 19 0 20 0;
#X connect 20 0 46 1;
#X connect 21 0 17 0;
#X connect 22 0 44 0;
#X connect 23 0 26 0;
#X connect 23 0 29 0;
#X connect 24 0 25 0;
#X connect 25 0 23 0;
#X connect 26 0 24 0;
#X connect 26 0 28 1;
#X connect 27 0 25 0;
#X connect 29 0 28 0;
#X connect 30 0 27 0;
#X connect 31 0 27 0;
#X connect 32 0 16 0;
#X connect 34 0 33 1;
#X connect 35 0 33 1;
#X connect 36 0 33 1;
#X connect 37 0 36 0;
#X connect 38 0 34 0;
#X connect 39 0 35 0;
#X connect 40 0 41 0;
#X connect 41 0 37 0;
#X connect 41 1 38 0;
#X connect 41 2 37 0;
#X connect 41 3 39 0;
#X connect 42 0 15 0;
#X connect 43 0 15 0;
#X connect 44 0 48 0;
#X connect 46 0 50 0;
#X connect 47 0 6 0;
#X connect 48 0 6 0;
#X connect 49 0 11 0;
#X connect 50 0 21 0;
#X connect 50 1 22 0;
