#N canvas 1491 22 901 779 10;
#X floatatom 228 244 5 0 0 0 - - -;
#X obj 77 71 bng 15 250 50 0 empty empty empty 17 7 0 10 -262144 -1
-1;
#X obj 219 138 bng 15 250 50 0 empty empty empty 17 7 0 10 -262144
-1 -1;
#X obj 215 31 inlet;
#X obj 218 213 tabread modes;
#X obj 495 759 outlet~;
#X obj 221 541 hip~ 5;
#X obj 223 599 *~ 1;
#X obj 416 406 inlet;
#X obj 469 406 loadbang;
#X obj 129 493 tabread~;
#X obj 253 498 tabread~;
#X obj 267 32 inlet;
#X obj 258 168 i;
#X obj 288 62 * 100;
#X obj 279 129 tabread notes;
#X obj 279 105 i;
#X floatatom 336 82 5 0 0 0 - - -;
#X obj 168 306 *~;
#X obj 252 303 *~;
#X msg 155 209 0;
#X msg 112 212 1;
#X obj 681 530 hip~ 5;
#X obj 684 76 sel 0 1;
#X msg 700 118 1;
#X msg 741 121 0;
#X obj 633 340 tabplay~;
#X obj 684 294 bng 15 250 50 0 empty empty empty 17 7 0 10 -262144
-1 -1;
#X obj 686 484 *~;
#X obj 778 424 snapshot~;
#X floatatom 778 447 0 0 0 0 - - -;
#X obj 788 397 metro 100;
#X obj 801 364 tgl 15 0 empty empty empty 17 7 0 10 -262144 -1 -1 0
1;
#X msg 766 281 0;
#X obj 749 366 vline~;
#X msg 738 333 1 100 \, 1 1 100 \, 0 100 100;
#X obj 197 95 sel 1 0;
#N canvas 0 22 450 300 testcounter 0;
#X floatatom 96 36 5 0 0 0 - - -;
#X obj 97 87 + 1;
#X floatatom 97 123 5 0 0 0 - - -;
#X obj 81 185 int;
#X obj 34 63 bng 15 250 50 0 empty empty empty 17 7 0 10 -262144 -1
-1;
#X msg 131 85 0;
#X obj 100 151 % 8;
#X obj 165 165 outlet;
#X obj 32 15 inlet;
#X connect 0 0 1 0;
#X connect 1 0 2 0;
#X connect 2 0 6 0;
#X connect 2 0 7 0;
#X connect 3 0 0 0;
#X connect 4 0 3 0;
#X connect 5 0 2 0;
#X connect 6 0 3 1;
#X connect 8 0 4 0;
#X restore 77 96 pd testcounter;
#X obj 236 263 modesampler_vs \$1 \$1\$2;
#X obj 367 705 *~;
#X obj 413 610 spigot;
#X obj 447 582 tgl 15 0 empty empty empty 17 7 0 10 -262144 -1 -1 0
1;
#X obj 487 609 spigot;
#X obj 521 581 tgl 15 0 empty empty empty 17 7 0 10 -262144 -1 -1 1
1;
#X obj 476 454 sel 1 0;
#X msg 466 483 1;
#X msg 502 484 0;
#X obj 529 405 receive reverse;
#X obj 47 312 osc~;
#X obj 126 458 *~;
#X obj 50 392 *~ 0.1;
#X obj 61 417 +~ 1;
#X msg 43 275 0.1;
#X msg 84 276 0;
#X obj 46 235 sel 0 1;
#X obj 44 200 tgl 15 0 empty empty empty 17 7 0 10 -262144 -1 -1 0
1;
#X obj 31 170 receive peyote;
#X obj 235 463 *~;
#X msg 117 278 0.25;
#X floatatom 71 138 5 0 0 0 - - -;
#X obj 560 30 inlet;
#X floatatom 526 67 5 0 0 0 - - -;
#X obj 528 88 t b f;
#X obj 135 128 loadbang;
#X obj 14 111 loadbang;
#X msg 14 133 0;
#X obj 276 194 bng 15 250 50 0 empty empty empty 17 7 0 10 -262144
-1 -1;
#X obj 381 101 symbol \$3;
#X obj 387 71 loadbang;
#X obj 415 137 sel mode bass;
#X msg 375 164 1;
#X msg 406 167 0;
#X obj 367 210 spigot;
#X msg 446 165 1;
#X msg 477 168 0;
#X obj 438 211 spigot;
#X obj 439 241 tabread bassmodes;
#X obj 575 248 send reverse;
#X obj 572 203 tgl 15 0 empty empty empty 17 7 0 10 -262144 -1 -1 0
1;
#X msg 416 478 -1;
#X obj 189 56 tgl 15 0 empty empty empty 17 7 0 10 -262144 -1 -1 0
1;
#X msg 538 484 1;
#X msg 569 483 0;
#X floatatom 314 26 5 0 0 0 - - -;
#X obj 542 113 * 14;
#X obj 542 142 i;
#X obj 415 652 line~;
#X obj 513 514 t b b;
#X msg 553 535 0;
#X obj 404 516 t b b;
#X msg 399 539 1 50;
#X msg 444 537 0;
#X msg 508 537 1 70;
#X obj 534 203 t b f;
#X obj 562 429 loadbang;
#X msg 562 451 1;
#X msg 834 158 5;
#X msg 872 158 7;
#X msg 790 156 0;
#X obj 796 122 bng 15 250 50 0 empty empty empty 17 7 0 10 -262144
-1 -1;
#X obj 832 120 bng 15 250 50 0 empty empty empty 17 7 0 10 -262144
-1 -1;
#X obj 870 122 bng 15 250 50 0 empty empty empty 17 7 0 10 -262144
-1 -1;
#X obj 831 33 r keychange;
#X obj 831 55 sel 0 1 2 3;
#X obj 779 198 + 0;
#X obj 779 220 % 13;
#X floatatom 779 242 5 0 0 0 - - -;
#X obj 826 200 + 0;
#X obj 826 222 % 13;
#X floatatom 826 244 5 0 0 0 - - -;
#X connect 0 0 38 0;
#X connect 1 0 37 0;
#X connect 1 0 2 0;
#X connect 2 0 13 0;
#X connect 3 0 23 0;
#X connect 3 0 36 0;
#X connect 4 0 104 0;
#X connect 6 0 7 0;
#X connect 7 0 39 0;
#X connect 8 0 7 1;
#X connect 9 0 79 0;
#X connect 10 0 6 0;
#X connect 11 0 6 0;
#X connect 12 0 14 0;
#X connect 13 0 66 0;
#X connect 13 0 72 0;
#X connect 13 0 75 0;
#X connect 13 0 4 0;
#X connect 14 0 16 0;
#X connect 15 0 13 0;
#X connect 16 0 15 0;
#X connect 17 0 16 0;
#X connect 18 0 49 0;
#X connect 19 0 57 0;
#X connect 20 0 19 1;
#X connect 20 0 18 1;
#X connect 21 0 18 1;
#X connect 21 0 19 1;
#X connect 22 0 5 0;
#X connect 23 0 24 0;
#X connect 23 0 27 0;
#X connect 23 1 25 0;
#X connect 26 0 28 0;
#X connect 27 0 35 0;
#X connect 27 0 26 0;
#X connect 28 0 22 0;
#X connect 29 0 30 0;
#X connect 31 0 29 0;
#X connect 32 0 31 0;
#X connect 33 0 34 0;
#X connect 34 0 28 1;
#X connect 34 0 29 0;
#X connect 35 0 34 0;
#X connect 36 0 2 0;
#X connect 36 0 21 0;
#X connect 36 1 2 0;
#X connect 36 1 20 0;
#X connect 37 0 4 0;
#X connect 37 0 59 0;
#X connect 38 0 18 0;
#X connect 38 1 10 0;
#X connect 38 1 26 0;
#X connect 38 3 19 0;
#X connect 38 4 11 0;
#X connect 38 4 26 0;
#X connect 39 0 5 0;
#X connect 40 0 86 0;
#X connect 41 0 40 1;
#X connect 42 0 86 0;
#X connect 43 0 42 1;
#X connect 44 0 46 0;
#X connect 44 0 81 0;
#X connect 44 1 45 0;
#X connect 44 1 82 0;
#X connect 45 0 41 0;
#X connect 46 0 41 0;
#X connect 47 0 44 0;
#X connect 48 0 50 0;
#X connect 49 0 10 0;
#X connect 50 0 51 0;
#X connect 51 0 49 1;
#X connect 51 0 57 1;
#X connect 52 0 48 0;
#X connect 53 0 48 0;
#X connect 54 0 53 0;
#X connect 54 0 58 0;
#X connect 54 1 52 0;
#X connect 55 0 54 0;
#X connect 56 0 55 0;
#X connect 57 0 11 0;
#X connect 58 0 48 1;
#X connect 60 0 61 0;
#X connect 61 0 62 0;
#X connect 62 1 84 0;
#X connect 63 0 21 0;
#X connect 64 0 65 0;
#X connect 65 0 55 0;
#X connect 66 0 87 0;
#X connect 66 0 89 0;
#X connect 67 0 69 0;
#X connect 68 0 67 0;
#X connect 69 0 70 0;
#X connect 69 0 71 0;
#X connect 69 1 73 0;
#X connect 69 1 74 0;
#X connect 70 0 72 1;
#X connect 71 0 75 1;
#X connect 72 0 4 0;
#X connect 73 0 75 1;
#X connect 74 0 72 1;
#X connect 75 0 76 0;
#X connect 76 0 104 0;
#X connect 78 0 77 0;
#X connect 79 0 57 1;
#X connect 79 0 49 1;
#X connect 80 0 36 0;
#X connect 81 0 43 0;
#X connect 82 0 43 0;
#X connect 83 0 14 0;
#X connect 84 0 85 0;
#X connect 85 0 107 0;
#X connect 86 0 39 1;
#X connect 87 0 92 0;
#X connect 87 1 88 0;
#X connect 88 0 42 0;
#X connect 89 0 90 0;
#X connect 89 1 91 0;
#X connect 90 0 40 0;
#X connect 91 0 40 0;
#X connect 92 0 42 0;
#X connect 93 0 89 0;
#X connect 93 0 87 0;
#X connect 93 1 38 0;
#X connect 94 0 95 0;
#X connect 95 0 44 0;
#X connect 96 0 104 1;
#X connect 96 0 107 1;
#X connect 97 0 104 1;
#X connect 97 0 107 1;
#X connect 98 0 104 1;
#X connect 98 0 107 1;
#X connect 99 0 98 0;
#X connect 100 0 96 0;
#X connect 101 0 97 0;
#X connect 102 0 103 0;
#X connect 103 0 99 0;
#X connect 103 1 100 0;
#X connect 103 2 99 0;
#X connect 103 3 101 0;
#X connect 104 0 105 0;
#X connect 105 0 106 0;
#X connect 106 0 0 0;
#X connect 107 0 108 0;
#X connect 108 0 109 0;
#X connect 109 0 93 0;
