#N canvas 646 174 1496 901 10;
#X floatatom 128 135 5 0 0 0 - - -;
#X obj 126 332 t b f;
#X obj 101 420 *~;
#X obj 99 388 vline~;
#X obj 155 389 osc~;
#X obj 128 79 inlet;
#X obj 206 389 phasor~;
#X obj 157 422 *~;
#X obj 128 108 mtof;
#X obj 194 370 * 1;
#X obj 99 458 *~ 0.1;
#X obj 160 457 *~ 0.1;
#X obj 983 734 outlet~;
#X obj 349 85 inlet;
#X floatatom 128 285 5 0 0 0 - - -;
#X obj 128 260 line;
#X obj 134 172 pack 0 0;
#X msg 130 229 \$1 \$2;
#X floatatom 178 151 5 0 0 0 - - -;
#X obj 419 119 pack 0 0;
#X msg 415 176 \$1 \$2;
#X floatatom 468 80 5 0 0 0 - - -;
#X obj 522 71 loadbang 30;
#X obj 840 226 inlet~;
#X obj 954 496 mtof~;
#X obj 1011 169 vsl 8 128 20 120 0 1 s2p13 s2p13r empty 0 -8 0 8 -225280
-1 -1 6500 1;
#X obj 1042 200 vsl 8 128 0.5 10 0 1 s2p14 s2p14r empty 0 -8 0 8 -262131
-1 -1 9700 1;
#X text 934 170 <- pitch in;
#X obj 976 409 +;
#X msg 968 327 bang;
#X floatatom 961 362 5 0 0 0 - - -;
#X obj 967 56 vsl 8 129 -0.5 0.5 0 1 s2p17 s2p17r empty 0 -8 0 8 -262144
-1 -1 8900 1;
#X obj 948 229 *;
#X obj 1087 200 vsl 8 128 1 129 1 1 s2p12 s2p12r empty 0 -8 0 8 -261681
-1 -1 0 1;
#X obj 970 663 *~;
#X obj 970 684 clip~ -1 1;
#X obj 1251 243 inlet;
#X obj 981 437 +;
#N canvas 497 136 1076 837 fexprlopass4 0;
#X obj -43 392 inlet~;
#X obj -4 634 outlet~;
#X obj 105 93 inlet~;
#X obj 345 55 inlet;
#X obj -1 581 fexpr~ $x2[0]*$x1[0] + $x3[0]*$x1[-1] + $x4[0]*$x1[-2]
- $x5[0]*$y1[-1] - $x6[0]*$y1[-2];
#X obj 87 200 sig~ 1;
#X obj 121 249 /~;
#X obj 226 132 samplerate~;
#X text 13 559 biquad \, a1 \, 2 \, 3 b1 \, 2 = x2[0] \, x3[0] \, x4[0]
\, x5[0] \, x6[0];
#X obj 296 199 * 1.41421;
#X obj 110 376 sig~ 1;
#X obj 147 408 /~;
#X obj 214 340 +~;
#X obj 187 310 sig~ 1;
#X obj 251 318 *~;
#X obj 181 375 +~;
#X obj 112 295 *~;
#X obj 145 507 *~ 2;
#X text 125 505 a2;
#X text 41 356 a1/a3;
#X obj 222 407 sig~ 1;
#X obj 296 433 -~;
#X obj 299 457 *~ 2;
#X obj 297 518 *~;
#X obj 409 334 *~;
#X text 276 435 b1;
#X text 384 379 b2;
#X obj 361 397 sig~ 1;
#X obj 392 429 -~;
#X obj 377 512 *~;
#X text 99 246 c;
#X obj 397 462 +~;
#X obj 147 222 expr~ tan($v1);
#X obj 151 194 /~ 44100;
#X obj 129 153 *~ 3.14159;
#X obj 333 138 -;
#X msg 332 107 1;
#X obj 345 86 t b f;
#X text 400 56 resonance 0..1;
#X text 156 94 cutoff (hz);
#X text 560 187 a2= 2*a1 \, a3=a1;
#X text 559 119 cookbook-like 4 pole lp;
#X text 560 151 c= 1/tan(pi*cutf/samplerate);
#X text 562 169 a1= 1/(1+res*c+c*c);
#X text 561 205 b1= 2*(1-c*c)*a1;
#X text 561 221 b2= (1-res*c+c*c)*a1;
#X obj 107 117 clip~ 10 15000;
#X connect 0 0 4 0;
#X connect 2 0 46 0;
#X connect 3 0 37 0;
#X connect 4 0 1 0;
#X connect 5 0 6 0;
#X connect 6 0 14 0;
#X connect 6 0 16 0;
#X connect 6 0 16 1;
#X connect 6 0 24 0;
#X connect 7 0 33 1;
#X connect 9 0 14 1;
#X connect 9 0 24 1;
#X connect 10 0 11 0;
#X connect 11 0 4 1;
#X connect 11 0 17 0;
#X connect 11 0 4 3;
#X connect 11 0 23 1;
#X connect 11 0 29 0;
#X connect 12 0 15 1;
#X connect 13 0 12 0;
#X connect 14 0 12 1;
#X connect 15 0 11 1;
#X connect 16 0 15 0;
#X connect 16 0 21 1;
#X connect 16 0 31 1;
#X connect 17 0 4 2;
#X connect 20 0 21 0;
#X connect 21 0 22 0;
#X connect 22 0 23 0;
#X connect 23 0 4 4;
#X connect 24 0 28 1;
#X connect 27 0 28 0;
#X connect 28 0 31 0;
#X connect 29 0 4 5;
#X connect 31 0 29 1;
#X connect 32 0 6 1;
#X connect 33 0 32 0;
#X connect 34 0 33 0;
#X connect 35 0 9 0;
#X connect 36 0 35 0;
#X connect 37 0 36 0;
#X connect 37 1 35 1;
#X connect 46 0 34 0;
#X restore 895 581 pd fexprlopass4;
#X obj 1002 525 / 10;
#X obj 197 51 metro 400;
#X obj 202 83 random 100;
#X obj 194 16 tgl 15 0 empty empty empty 17 7 0 10 -262144 -1 -1 0
1;
#X obj 494 218 line;
#X floatatom 1264 287 5 0 0 0 - - -;
#X floatatom 50 313 5 0 0 0 - - -;
#X msg 54 358 1 25 \, 0 1 \$1;
#X obj 46 333 i;
#X obj 47 257 r notelength;
#X obj 170 524 osc~ 200;
#X connect 0 0 16 0;
#X connect 1 0 47 0;
#X connect 1 1 4 0;
#X connect 1 1 9 0;
#X connect 2 0 10 0;
#X connect 3 0 2 1;
#X connect 3 0 7 1;
#X connect 4 0 2 0;
#X connect 5 0 8 0;
#X connect 6 0 7 0;
#X connect 7 0 11 0;
#X connect 8 0 0 0;
#X connect 9 0 6 0;
#X connect 10 0 38 0;
#X connect 11 0 38 0;
#X connect 13 0 19 0;
#X connect 14 0 1 0;
#X connect 15 0 14 0;
#X connect 16 0 17 0;
#X connect 17 0 15 0;
#X connect 18 0 16 1;
#X connect 19 0 20 0;
#X connect 20 0 43 0;
#X connect 21 0 19 1;
#X connect 22 0 21 0;
#X connect 23 0 38 0;
#X connect 24 0 38 1;
#X connect 25 0 28 1;
#X connect 25 0 29 0;
#X connect 26 0 39 0;
#X connect 28 0 37 0;
#X connect 29 0 30 0;
#X connect 30 0 28 0;
#X connect 31 0 32 1;
#X connect 32 0 30 0;
#X connect 33 0 34 1;
#X connect 34 0 35 0;
#X connect 35 0 12 0;
#X connect 36 0 29 0;
#X connect 36 0 37 1;
#X connect 37 0 24 0;
#X connect 38 0 34 0;
#X connect 39 0 38 2;
#X connect 40 0 41 0;
#X connect 41 0 8 0;
#X connect 41 0 32 0;
#X connect 42 0 40 0;
#X connect 43 0 29 0;
#X connect 43 0 28 1;
#X connect 44 0 29 0;
#X connect 44 0 37 1;
#X connect 45 0 47 1;
#X connect 46 0 3 0;
#X connect 47 0 46 0;
#X connect 48 0 45 0;
