#N canvas 962 433 1576 939 10;
#X obj 126 533 dac~;
#X floatatom 175 272 5 0 0 0 - - -;
#X obj 275 176 r room;
#X obj 220 483 throw~ heavydelay;
#X obj 215 443 *~ 0.2;
#X obj 130 123 random 40;
#X obj 130 176 * 0.01;
#X obj 130 91 metro 400;
#X obj 130 154 + 40;
#X obj 130 67 tgl 15 0 empty empty empty 17 7 0 10 -262144 -1 -1 0
1;
#X obj 139 461 *~ 0.2;
#X obj 275 410 r roomdelay;
#X obj 216 357 r roomlevel;
#X obj 130 43 inlet;
#X floatatom 233 271 5 0 0 0 - - -;
#X obj 350 61 inlet;
#X obj 283 235 spigot;
#X obj 349 142 sel 0 1;
#X msg 344 170 0;
#X msg 378 172 1;
#X msg 411 172 1;
#X msg 443 174 0;
#X obj 339 235 spigot;
#X obj 469 78 loadbang;
#X msg 469 100 0;
#X obj 353 91 tgl 15 0 empty empty empty 17 7 0 10 -262144 -1 -1 0
1;
#X floatatom 565 607 5 0 0 0 - - -;
#X obj 969 401 metro 5;
#X obj 955 469 sel 0;
#X obj 961 377 tgl 15 0 empty empty empty 17 7 0 10 -262144 -1 -1 0
1;
#X obj 1002 432 ys.counter 16;
#X obj 960 334 t b b;
#X obj 1025 503 random 2;
#X obj 997 293 loadbang;
#X obj 959 276 r start;
#N canvas 0 22 450 278 (subpatch) 0;
#X array roomvolume\$1 100 float 3;
#A 0 0 0 1 1 0 1 1 1 1 1 1 0 1 0 0 1 0 0 0 0 0 0 0 0 0 0 0 0 0 0 0
0 0 0 0 0 0 0 0 0 0 0 0 0 0 0 0 0 0 0 0 0 0 0 0 0 0 0 0 0 0 0 0 0 0
0 0 0 0 0 0 0 0 0 0 0 0 0 0 0 0 0 0 0 0 0 0 0 0 0 0 0 0 0 0 0 0 0 0
0;
#X coords 0 1 99 -1 200 140 1;
#X restore 690 30 graph;
#X obj 1000 578 tabwrite roomvolume\$1;
#X obj 545 469 tabread roomvolume\$1;
#X floatatom 545 446 5 0 0 0 - - -;
#X obj 545 397 bng 15 250 50 0 empty empty empty 17 7 0 10 -262144
-1 -1;
#X obj 545 421 ys.counter 16;
#X obj 562 627 s reverse;
#X obj 170 304 t f b b;
#X obj 233 290 t f b b;
#X obj 572 491 inlet;
#X obj 544 543 spigot;
#X obj 578 519 tgl 15 0 empty empty empty 17 7 0 10 -262144 -1 -1 1
1;
#X obj 603 551 sel 0;
#X msg 601 577 0;
#X text 705 400 reverse or no;
#X text 344 32 modal/chromatic;
#X obj 114 335 roomplayer room\$1 1;
#X connect 1 0 42 0;
#X connect 2 0 16 0;
#X connect 2 0 22 0;
#X connect 4 0 3 0;
#X connect 5 0 8 0;
#X connect 6 0 16 0;
#X connect 6 0 22 0;
#X connect 7 0 5 0;
#X connect 8 0 6 0;
#X connect 9 0 7 0;
#X connect 10 0 0 0;
#X connect 10 0 0 1;
#X connect 11 0 4 1;
#X connect 12 0 10 1;
#X connect 13 0 9 0;
#X connect 14 0 43 0;
#X connect 15 0 25 0;
#X connect 16 0 1 0;
#X connect 17 0 19 0;
#X connect 17 0 18 0;
#X connect 17 1 20 0;
#X connect 17 1 21 0;
#X connect 18 0 22 1;
#X connect 19 0 16 1;
#X connect 20 0 22 1;
#X connect 21 0 16 1;
#X connect 22 0 14 0;
#X connect 23 0 24 0;
#X connect 24 0 17 0;
#X connect 25 0 17 0;
#X connect 26 0 41 0;
#X connect 27 0 30 0;
#X connect 27 0 32 0;
#X connect 28 0 29 0;
#X connect 29 0 27 0;
#X connect 30 0 28 0;
#X connect 30 0 36 1;
#X connect 31 0 29 0;
#X connect 32 0 36 0;
#X connect 33 0 31 0;
#X connect 34 0 31 0;
#X connect 37 0 45 0;
#X connect 38 0 37 0;
#X connect 39 0 40 0;
#X connect 40 0 38 0;
#X connect 42 0 51 1;
#X connect 42 2 39 0;
#X connect 43 0 51 2;
#X connect 43 2 39 0;
#X connect 44 0 46 0;
#X connect 45 0 26 0;
#X connect 46 0 45 1;
#X connect 46 0 47 0;
#X connect 47 0 48 0;
#X connect 48 0 26 0;
#X connect 51 0 10 0;
#X connect 51 0 4 0;
