#N canvas 260 252 974 726 10;
#X floatatom 313 275 5 0 0 0 - - -;
#X obj 302 151 tabread notes_\$1;
#X floatatom 301 131 5 0 0 0 - - -;
#X floatatom 302 173 5 0 0 0 - - -;
#X obj 660 269 metro 5;
#X obj 649 342 sel 0;
#X obj 644 243 tgl 15 0 empty empty empty 17 7 0 10 -262144 -1 -1 0
1;
#X obj 754 481 random 8;
#X obj 737 523 tabwrite notes_\$1;
#X obj 524 -18 inlet;
#X obj 696 153 loadbang;
#X obj 693 300 ys.counter 16;
#X floatatom 311 232 5 0 0 0 - - -;
#X obj 314 249 + 1;
#X obj 530 24 r bangs8;
#X obj 534 53 bng 15 250 50 0 empty empty empty 17 7 0 10 -262144 -1
-1;
#X obj 543 90 bng 15 250 50 0 empty empty empty 17 7 0 10 -262144 -1
-1;
#X obj 585 112 + 1;
#X obj 541 111 float;
#X floatatom 541 131 5 0 0 0 - - -;
#X obj 538 151 % 16;
#X floatatom 538 173 5 0 0 0 - - -;
#X obj 279 341 bng 15 250 50 0 empty empty empty 17 7 0 10 -262144
-1 -1;
#X obj 315 364 + 1;
#X obj 274 364 float;
#X floatatom 274 384 5 0 0 0 - - -;
#X floatatom 271 426 5 0 0 0 - - -;
#X obj 318 313 t b f;
#X obj 272 469 route 0 1 2;
#X obj 271 404 % 3;
#X obj 411 707 outlet~;
#X obj 451 116 spigot;
#X obj 486 87 tgl 15 0 empty empty empty 17 7 0 10 -262144 -1 -1 0
1;
#X obj 524 480 bng 15 250 50 0 empty empty empty 17 7 0 10 -262144
-1 -1;
#X obj 643 161 inlet;
#X obj 807 233 loadbang;
#X obj 808 259 random 2000;
#X msg 779 389 seed \$1;
#X floatatom 808 281 5 0 0 0 - - -;
#X obj 793 316 +;
#X obj 765 181 r hotelsize;
#X msg 787 432 seed 1;
#X msg 838 434 seed 2;
#X obj 780 363 i;
#N canvas 0 22 450 300 (subpatch) 0;
#X array notes_\$1 16 float 3;
#A 0 2 7 2 0 6 5 2 2 0 7 3 4 1 2 3 6;
#X coords 0 7 16 0 200 140 1 0 0;
#X restore 41 -4 graph;
#N canvas 0 22 450 300 (subpatch) 0;
#X array vol_\$1 16 float 3;
#A 0 0 0 1 1 0 1 1 1 0 1 1 0 1 0 0 0;
#X coords 0 1 16 0 200 140 1 0 0;
#X restore 33 167 graph;
#X obj 473 640 *~;
#X obj 473 263 tabread vol_\$1;
#X floatatom 473 285 5 0 0 0 - - -;
#X msg 473 315 \$1 20;
#X obj 472 350 line~;
#X obj 918 270 metro 5;
#X obj 907 343 sel 0;
#X obj 910 246 tgl 15 0 empty empty empty 17 7 0 10 -262144 -1 -1 0
1;
#X obj 951 301 ys.counter 16;
#X obj 1065 234 loadbang;
#X obj 1066 260 random 2000;
#X msg 1037 390 seed \$1;
#X floatatom 1066 282 5 0 0 0 - - -;
#X obj 1051 317 +;
#X obj 1023 182 r hotelsize;
#X msg 1045 433 seed 1;
#X msg 1096 435 seed 2;
#X obj 909 203 t b b;
#X obj 1038 364 i;
#X obj 987 557 tabwrite vol_\$1;
#X obj 1012 482 random 2;
#X obj 366 558 dynamicplayer \$1 2;
#X obj 274 444 pack 0 0 0;
#X obj 210 507 t l;
#X obj 370 515 t l;
#X obj 523 515 t l;
#X obj 521 557 dynamicplayer \$1 3;
#X obj 221 558 dynamicplayer \$1 1;
#X msg 255 524 0 3;
#X obj 311 210 tabread bassmodes;
#X floatatom 754 503 5 0 0 0 - - -;
#X obj 651 202 t b b;
#X floatatom 849 387 5 0 0 0 - - -;
#X connect 0 0 27 0;
#X connect 1 0 3 0;
#X connect 2 0 1 0;
#X connect 3 0 75 0;
#X connect 4 0 11 0;
#X connect 4 0 7 0;
#X connect 5 0 6 0;
#X connect 6 0 4 0;
#X connect 7 0 8 0;
#X connect 7 0 76 0;
#X connect 9 0 32 0;
#X connect 10 0 77 0;
#X connect 11 0 5 0;
#X connect 11 0 8 1;
#X connect 12 0 13 0;
#X connect 13 0 0 0;
#X connect 14 0 15 0;
#X connect 15 0 16 0;
#X connect 16 0 18 0;
#X connect 17 0 18 1;
#X connect 18 0 19 0;
#X connect 18 0 17 0;
#X connect 19 0 20 0;
#X connect 20 0 21 0;
#X connect 21 0 31 0;
#X connect 21 0 47 0;
#X connect 22 0 24 0;
#X connect 23 0 24 1;
#X connect 24 0 25 0;
#X connect 24 0 23 0;
#X connect 25 0 29 0;
#X connect 26 0 68 0;
#X connect 27 0 22 0;
#X connect 27 1 68 2;
#X connect 28 0 69 0;
#X connect 28 1 70 0;
#X connect 28 2 71 0;
#X connect 29 0 26 0;
#X connect 31 0 2 0;
#X connect 32 0 31 1;
#X connect 33 0 71 0;
#X connect 34 0 63 0;
#X connect 34 0 77 0;
#X connect 35 0 36 0;
#X connect 36 0 38 0;
#X connect 37 0 7 0;
#X connect 38 0 39 1;
#X connect 39 0 43 1;
#X connect 40 0 39 0;
#X connect 41 0 7 0;
#X connect 42 0 7 0;
#X connect 43 0 37 0;
#X connect 43 0 78 0;
#X connect 46 0 30 0;
#X connect 47 0 48 0;
#X connect 48 0 49 0;
#X connect 49 0 50 0;
#X connect 50 0 46 1;
#X connect 51 0 54 0;
#X connect 51 0 66 0;
#X connect 52 0 53 0;
#X connect 53 0 51 0;
#X connect 54 0 52 0;
#X connect 54 0 65 1;
#X connect 55 0 56 0;
#X connect 56 0 58 0;
#X connect 57 0 66 0;
#X connect 58 0 59 1;
#X connect 59 0 64 1;
#X connect 60 0 59 0;
#X connect 61 0 66 0;
#X connect 62 0 66 0;
#X connect 63 0 53 0;
#X connect 63 1 64 0;
#X connect 64 0 57 0;
#X connect 66 0 65 0;
#X connect 67 0 30 0;
#X connect 68 0 28 0;
#X connect 69 0 73 0;
#X connect 70 0 67 0;
#X connect 71 0 72 0;
#X connect 72 0 30 0;
#X connect 73 0 30 0;
#X connect 74 0 73 0;
#X connect 75 0 12 0;
#X connect 77 0 6 0;
#X connect 77 1 43 0;
