#N canvas 1424 377 739 492 10;
#X floatatom 156 73 5 0 0 0 - - -;
#X obj 135 140 bng 15 250 50 0 empty empty empty 17 7 0 10 -262144
-1 -1;
#X floatatom 127 225 5 0 0 0 - - -;
#X obj 109 433 outlet~;
#X obj 66 306 t l;
#X msg 111 323 0 3;
#X obj 153 49 random 8;
#X obj 154 27 bng 15 250 50 0 empty empty empty 17 7 0 10 -262144 -1
-1;
#X obj 128 5 inlet;
#X obj 161 92 + 1;
#X obj 243 182 random 2;
#X obj 161 111 t b f b;
#X floatatom 243 204 5 0 0 0 - - -;
#X obj 130 244 pack 0 0 0;
#X obj 302 237 spigot;
#X obj 333 75 tgl 15 0 empty empty empty 17 7 0 10 -262144 -1 -1 1
1;
#X obj 340 40 inlet;
#X obj 127 203 % 1;
#X obj 128 268 route 0;
#X obj 84 358 dynamicplayer \$1 \$2;
#X obj 171 163 + 1;
#X obj 130 163 float;
#X floatatom 130 183 5 0 0 0 - - -;
#X connect 0 0 9 0;
#X connect 1 0 21 0;
#X connect 2 0 13 0;
#X connect 4 0 19 0;
#X connect 5 0 19 0;
#X connect 6 0 0 0;
#X connect 7 0 6 0;
#X connect 8 0 7 0;
#X connect 9 0 11 0;
#X connect 10 0 12 0;
#X connect 11 0 1 0;
#X connect 11 1 13 2;
#X connect 11 2 10 0;
#X connect 12 0 14 0;
#X connect 13 0 18 0;
#X connect 14 0 13 1;
#X connect 15 0 14 1;
#X connect 16 0 15 0;
#X connect 17 0 2 0;
#X connect 18 0 4 0;
#X connect 19 0 3 0;
#X connect 20 0 21 1;
#X connect 21 0 22 0;
#X connect 21 0 20 0;
#X connect 22 0 17 0;
