#N canvas 976 174 1440 848 10;
#X obj 101 420 *~;
#X obj 206 389 phasor~;
#X obj 157 422 *~;
#X obj 99 458 *~ 0.1;
#X obj 223 584 outlet~;
#X floatatom 14 263 5 0 0 0 - - -;
#X obj 291 492 tgl 15 0 empty empty empty 17 7 0 10 -262144 -1 -1 1
1;
#X floatatom 249 497 5 0 0 0 - - -;
#X obj 243 434 loadbang;
#X msg 290 461 1;
#X obj 330 494 mtof;
#X obj 160 457 *~ 0.06;
#X obj 366 360 line;
#X obj 223 106 inlet;
#X obj 197 174 t b f;
#X floatatom 279 81 5 0 0 0 - - -;
#X obj 268 243 pack 0 0;
#X msg 267 267 \$1 \$2;
#X obj 326 165 \$2;
#X obj 332 119 loadbang;
#X floatatom 344 198 5 0 0 0 - - -;
#X obj 13 243 \$1;
#X obj 14 219 loadbang;
#X text 88 33 arguments: notelength \, portamento length;
#X obj -5 382 line~;
#X msg -34 350 1 20;
#X msg 6 353 0 250;
#X obj 16 326 delay;
#X floatatom 24 287 5 0 0 0 - - -;
#X obj 265 301 line~;
#X floatatom 289 185 5 0 0 0 - - -;
#X obj 403 54 metro 200;
#X obj 417 26 tgl 15 0 empty empty empty 17 7 0 10 -262144 -1 -1 1
1;
#X obj 403 76 random 80;
#X obj 421 109 + 30;
#X floatatom 336 435 5 0 0 0 - - -;
#X msg 247 464 4;
#X msg 362 292 \$1 400;
#X obj 336 389 loadbang;
#X msg 336 411 100;
#X obj 230 527 ys.lpfilter2;
#X obj 117 393 ys.osc~;
#X obj 246 202 mtof;
#X connect 0 0 3 0;
#X connect 1 0 2 0;
#X connect 2 0 11 0;
#X connect 3 0 40 0;
#X connect 5 0 28 0;
#X connect 6 0 40 3;
#X connect 7 0 40 2;
#X connect 8 0 9 0;
#X connect 8 0 36 0;
#X connect 9 0 6 0;
#X connect 10 0 40 1;
#X connect 11 0 40 0;
#X connect 13 0 14 0;
#X connect 14 0 27 0;
#X connect 14 0 25 0;
#X connect 14 1 42 0;
#X connect 15 0 14 0;
#X connect 16 0 17 0;
#X connect 16 0 37 0;
#X connect 17 0 29 0;
#X connect 18 0 16 1;
#X connect 18 0 20 0;
#X connect 19 0 18 0;
#X connect 21 0 5 0;
#X connect 22 0 21 0;
#X connect 24 0 0 1;
#X connect 24 0 2 1;
#X connect 25 0 24 0;
#X connect 26 0 24 0;
#X connect 27 0 26 0;
#X connect 28 0 27 1;
#X connect 29 0 1 0;
#X connect 29 0 41 1;
#X connect 30 0 16 1;
#X connect 31 0 33 0;
#X connect 32 0 31 0;
#X connect 33 0 34 0;
#X connect 34 0 15 0;
#X connect 35 0 10 0;
#X connect 36 0 7 0;
#X connect 37 0 12 0;
#X connect 38 0 39 0;
#X connect 39 0 35 0;
#X connect 40 0 4 0;
#X connect 41 0 0 0;
#X connect 42 0 16 0;
