#N canvas 1233 58 623 997 10;
#X floatatom 127 183 5 0 0 0 - - -;
#X obj 126 332 t b f;
#X obj 130 628 *~;
#X obj 119 45 inlet;
#X obj 235 597 phasor~;
#X obj 186 630 *~;
#X obj 127 156 mtof;
#X obj 191 921 outlet~;
#X floatatom 128 285 5 0 0 0 - - -;
#X obj 128 260 line;
#X obj 197 51 metro 400;
#X obj 194 16 tgl 15 0 empty empty empty 17 7 0 10 -262144 -1 -1 0
1;
#X obj 230 119 r portamento;
#X obj 225 470 * 1;
#X obj 185 706 +~;
#X obj 189 665 *~ 0.01;
#X obj 118 74 + 12;
#X floatatom 301 605 5 0 0 0 - - -;
#X obj 293 472 r softphasor;
#X obj 219 691 *~ 0.5;
#X obj 379 312 r notelength\$1;
#X obj 196 106 + 27;
#X obj 203 81 random 80;
#X obj 128 573 line~;
#X msg 100 527 1 20;
#X obj 201 387 delay;
#X floatatom 354 344 5 0 0 0 - - -;
#X msg 140 521 0 150;
#X obj 129 666 *~ 0.7;
#X obj 184 596 ys.osc~;
#X obj 266 289 loadbang;
#X msg 268 313 120;
#X obj 459 556 switch~;
#X obj 450 440 delay;
#X msg 457 464 0;
#X msg 420 462 1;
#X floatatom 453 513 5 0 0 0 - - -;
#X obj 477 391 loadbang;
#X obj 135 114 t f b;
#X msg 477 413 400;
#X obj 418 404 loadbang;
#X connect 0 0 9 0;
#X connect 1 0 25 0;
#X connect 1 0 24 0;
#X connect 1 1 13 0;
#X connect 1 1 29 0;
#X connect 2 0 28 0;
#X connect 3 0 16 0;
#X connect 4 0 5 0;
#X connect 5 0 15 0;
#X connect 6 0 0 0;
#X connect 8 0 1 0;
#X connect 9 0 8 0;
#X connect 10 0 22 0;
#X connect 11 0 10 0;
#X connect 13 0 4 0;
#X connect 14 0 7 0;
#X connect 15 0 19 0;
#X connect 16 0 38 0;
#X connect 17 0 15 1;
#X connect 18 0 17 0;
#X connect 19 0 14 1;
#X connect 21 0 38 0;
#X connect 22 0 21 0;
#X connect 23 0 2 1;
#X connect 23 0 5 1;
#X connect 24 0 23 0;
#X connect 25 0 27 0;
#X connect 26 0 25 1;
#X connect 27 0 23 0;
#X connect 28 0 14 0;
#X connect 29 0 2 0;
#X connect 30 0 31 0;
#X connect 31 0 25 1;
#X connect 33 0 34 0;
#X connect 35 0 36 0;
#X connect 36 0 32 0;
#X connect 37 0 39 0;
#X connect 38 0 6 0;
#X connect 39 0 33 1;
#X connect 40 0 35 0;
