#N canvas 1463 143 993 616 10;
#X obj 68 162 pack s s;
#X obj 68 106 t b b;
#X obj 68 218 soundfiler;
#X msg 68 190 read -resize \$1 \$2;
#X obj 68 78 loadbang;
#X obj 68 134 symbol ../assets/sounds/\$1.wav;
#X obj 262 134 symbol \$1;
#X obj 56 283 table \$1;
#X obj 422 34 inlet;
#X floatatom 148 250 5 0 0 0 - - -;
#X obj 211 275 / 22050;
#X obj 225 307 * 1000;
#X obj 392 208 f;
#X obj 391 173 bng 15 250 50 0 empty empty empty 17 7 0 10 -262144
-1 -1;
#X obj 455 389 *~;
#X obj 452 413 tabread~ \$1;
#X obj 438 220 * 1;
#X floatatom 458 167 5 0 0 0 - - -;
#X obj 400 351 sig~;
#X obj 348 120 samplerate~;
#X floatatom 348 142 5 0 0 0 - - -;
#X obj 354 83 bng 15 250 50 0 empty empty empty 17 7 0 10 -262144 -1
-1;
#X obj 353 22 loadbang;
#X obj 479 40 inlet;
#X obj 449 351 line~;
#X msg 496 325 0;
#X obj 452 62 bng 15 250 50 0 empty empty empty 17 7 0 10 -262144 -1
-1;
#X floatatom 530 101 5 0 0 0 - - -;
#X obj 552 328 delay;
#X msg 559 352 0;
#X obj 444 95 t b b;
#X msg 514 180 1;
#X floatatom 597 404 5 0 0 0 - - -;
#X obj 257 542 outlet~;
#X obj 583 251 loadbang;
#X msg 583 273 1000;
#X floatatom 225 329 5 0 0 0 - - -;
#X msg 441 329 1 \$1;
#X obj 257 513 *~;
#X obj 441 254 t f f b f;
#N canvas 950 131 450 300 envelope 0;
#X msg 194 219 1 \$1;
#X msg 150 218 0 \$1;
#X obj 150 146 t b b;
#X obj 187 46 inlet attack;
#X obj 289 45 inlet decay;
#X obj 77 46 inlet trigger;
#X obj 187 87 t f f;
#X obj 150 196 f 50;
#X obj 194 197 f 50;
#X text 235 199 <-- default values 50 ms;
#X text 236 88 <-- set floats nicely;
#X obj 150 173 del 50;
#X text 151 9 envelope subpatch;
#X obj 175 243 line~;
#X obj 175 267 outlet~;
#X connect 0 0 13 0;
#X connect 1 0 13 0;
#X connect 2 0 11 0;
#X connect 2 1 8 0;
#X connect 3 0 6 0;
#X connect 4 0 7 1;
#X connect 5 0 2 0;
#X connect 6 0 11 1;
#X connect 6 1 8 1;
#X connect 7 0 1 0;
#X connect 8 0 0 0;
#X connect 11 0 7 0;
#X connect 13 0 14 0;
#X restore 254 464 pd envelope;
#X floatatom 272 426 5 0 0 0 - - -;
#X floatatom 312 439 5 0 0 0 - - -;
#X obj 259 372 loadbang;
#X msg 309 396 500;
#X obj 349 398 t b f;
#X msg 267 394 20;
#X connect 0 0 3 0;
#X connect 1 0 5 0;
#X connect 1 1 6 0;
#X connect 2 0 9 0;
#X connect 3 0 2 0;
#X connect 4 0 1 0;
#X connect 5 0 0 0;
#X connect 6 0 0 1;
#X connect 8 0 30 0;
#X connect 9 0 10 0;
#X connect 9 0 18 0;
#X connect 10 0 11 0;
#X connect 11 0 12 1;
#X connect 11 0 36 0;
#X connect 12 0 16 0;
#X connect 13 0 12 0;
#X connect 14 0 15 0;
#X connect 15 0 38 0;
#X connect 16 0 39 0;
#X connect 17 0 16 1;
#X connect 18 0 14 1;
#X connect 19 0 20 0;
#X connect 20 0 10 1;
#X connect 21 0 19 0;
#X connect 22 0 21 0;
#X connect 22 0 31 0;
#X connect 23 0 17 0;
#X connect 24 0 14 0;
#X connect 25 0 24 0;
#X connect 26 0 30 0;
#X connect 28 0 29 0;
#X connect 29 0 32 0;
#X connect 30 0 13 0;
#X connect 30 1 27 0;
#X connect 30 1 31 0;
#X connect 31 0 32 0;
#X connect 34 0 35 0;
#X connect 35 0 28 1;
#X connect 37 0 24 0;
#X connect 38 0 33 0;
#X connect 39 1 37 0;
#X connect 39 2 25 0;
#X connect 39 2 28 0;
#X connect 39 3 45 0;
#X connect 40 0 38 1;
#X connect 41 0 40 1;
#X connect 42 0 40 2;
#X connect 43 0 46 0;
#X connect 43 0 44 0;
#X connect 44 0 42 0;
#X connect 45 0 40 0;
#X connect 45 1 42 0;
#X connect 46 0 41 0;
