#N canvas 504 220 1280 673 10;
#X obj 249 -21 metro 5;
#X obj 249 58 sel 0;
#X obj 241 -45 tgl 15 0 empty empty empty 17 7 0 10 -262144 -1 -1 0
1;
#X obj 329 60 random 8;
#X obj 413 -22 metro 5;
#X obj 413 57 sel 0;
#X obj 405 -46 tgl 15 0 empty empty empty 17 7 0 10 -262144 -1 -1 0
1;
#X obj 469 54 * 0.01;
#X obj 496 30 random 100;
#X text 312 -43 randomizer;
#N canvas 0 22 450 300 (subpatch) 0;
#X array notes_\$1 16 float 3;
#A 0 4 2 3 4 7 1 5 4 7 6 1 2 2 3 7 1;
#X coords 0 7 16 0 200 140 1 0 0;
#X restore 596 -38 graph;
#X obj 66 6 tgl 15 0 empty empty empty 17 7 0 10 -262144 -1 -1 0 1
;
#X text 87 5 start/stop;
#X obj 942 500 outlet~;
#X obj 278 83 tabwrite notes_\$1;
#X obj 442 82 tabwrite vol_\$1;
#X obj 59 -38 inlet;
#X obj 217 -75 inlet;
#X obj 409 -71 inlet;
#X obj 104 153 spigot;
#X obj 87 116 r bangs\$3;
#X obj 155 -6 inlet;
#X obj 286 31 ys.counter \$3;
#X obj 448 -1 ys.counter \$3;
#X obj 664 275 tabread modes;
#X obj 666 347 + 48;
#X floatatom 289 132 5 0 0 0 - - -;
#X msg 762 290 36;
#X msg 802 289 48;
#X msg 851 288 60;
#N canvas 0 22 450 300 (subpatch) 0;
#X array vol_\$1 16 float 3;
#A 0 0.22 0.13 0.12 0.66 0.13 0.45 0.26 0.63 0.41 0.07 0.58 0.09 0.04
0.87 0.78 0.97;
#X coords 0 1 16 0 200 140 1 0 0;
#X restore 810 -36 graph;
#X obj 575 109 inlet;
#X obj 924 425 + 0;
#X msg 925 370 5;
#X msg 963 370 7;
#X msg 881 368 0;
#X obj 887 334 bng 15 250 50 0 empty empty empty 17 7 0 10 -262144
-1 -1;
#X obj 195 99 bng 15 250 50 0 empty empty empty 17 7 0 10 -262144 -1
-1;
#X obj 715 130 inlet;
#X obj 801 248 t b;
#X obj 851 250 t b;
#X floatatom 672 153 5 0 0 0 - - -;
#X obj 662 209 * 16;
#X floatatom 664 253 5 0 0 0 - - -;
#X msg 644 115 0.6;
#X msg 683 114 0.82;
#X obj 809 207 moses 0.75;
#X obj 675 177 t f f f;
#X obj 310 -66 loadbang;
#X obj 923 332 bng 15 250 50 0 empty empty empty 17 7 0 10 -262144
-1 -1;
#X obj 961 334 bng 15 250 50 0 empty empty empty 17 7 0 10 -262144
-1 -1;
#X obj 922 245 r keychange;
#X obj 922 267 sel 0 1 2 3;
#X floatatom 524 115 5 0 0 0 - - -;
#X obj 190 166 bng 15 250 50 0 empty empty empty 17 7 0 10 -262144
-1 -1;
#X obj 229 187 + 1;
#X obj 188 187 float;
#X floatatom 188 207 5 0 0 0 - - -;
#X obj 185 227 % 8;
#X obj 531 160 tabread notes_\$1;
#X obj 923 464 \$4 \$4;
#X obj 664 231 % 8;
#X obj 336 214 \$3;
#X obj 337 190 bng 15 250 50 0 empty empty empty 17 7 0 10 -262144
-1 -1;
#X floatatom 338 242 5 0 0 0 - - -;
#X obj 337 170 loadbang;
#X obj 900 164 tabread vol_\$1;
#X connect 0 0 3 0;
#X connect 0 0 22 0;
#X connect 1 0 2 0;
#X connect 2 0 0 0;
#X connect 3 0 14 0;
#X connect 4 0 8 0;
#X connect 4 0 23 0;
#X connect 5 0 6 0;
#X connect 6 0 4 0;
#X connect 7 0 15 0;
#X connect 8 0 7 0;
#X connect 11 0 19 1;
#X connect 16 0 11 0;
#X connect 17 0 2 0;
#X connect 18 0 6 0;
#X connect 20 0 19 0;
#X connect 21 0 54 0;
#X connect 22 0 1 0;
#X connect 22 0 14 1;
#X connect 23 0 5 0;
#X connect 23 0 15 1;
#X connect 24 0 25 0;
#X connect 25 0 32 0;
#X connect 27 0 25 1;
#X connect 28 0 25 1;
#X connect 29 0 25 1;
#X connect 31 0 59 0;
#X connect 32 0 60 0;
#X connect 33 0 32 1;
#X connect 34 0 32 1;
#X connect 35 0 32 1;
#X connect 36 0 35 0;
#X connect 38 0 41 0;
#X connect 39 0 28 0;
#X connect 40 0 27 0;
#X connect 41 0 47 0;
#X connect 42 0 61 0;
#X connect 43 0 24 0;
#X connect 43 0 66 0;
#X connect 44 0 41 0;
#X connect 45 0 41 0;
#X connect 46 0 39 0;
#X connect 46 1 40 0;
#X connect 47 0 42 0;
#X connect 47 1 46 0;
#X connect 48 0 2 0;
#X connect 48 0 6 0;
#X connect 49 0 33 0;
#X connect 50 0 34 0;
#X connect 51 0 52 0;
#X connect 52 0 36 0;
#X connect 52 1 49 0;
#X connect 52 2 36 0;
#X connect 52 3 50 0;
#X connect 53 0 59 0;
#X connect 54 0 56 0;
#X connect 55 0 56 1;
#X connect 56 0 57 0;
#X connect 56 0 55 0;
#X connect 57 0 58 0;
#X connect 58 0 59 0;
#X connect 59 0 43 0;
#X connect 60 0 13 0;
#X connect 61 0 43 0;
#X connect 62 0 64 0;
#X connect 63 0 62 0;
#X connect 64 0 58 1;
#X connect 65 0 63 0;
