#N canvas 1073 432 1391 673 10;
#X obj 249 -21 metro 5;
#X obj 249 58 sel 0;
#X obj 241 -45 tgl 15 0 empty empty empty 17 7 0 10 -262144 -1 -1 0
1;
#X obj 329 60 random 8;
#X obj 413 -22 metro 5;
#X obj 413 57 sel 0;
#X obj 405 -46 tgl 15 0 empty empty empty 17 7 0 10 -262144 -1 -1 0
1;
#X obj 469 54 * 0.01;
#X obj 496 30 random 100;
#X text 312 -43 randomizer;
#N canvas 0 22 450 300 (subpatch) 0;
#X array notes_\$1 16 float 3;
#A 0 5 3 3 1 1 6 4 7 6 4 3 3 0 7 6 1;
#X coords 0 7 16 0 200 140 1 0 0;
#X restore 596 -38 graph;
#X floatatom 141 244 5 0 0 0 - - -;
#X floatatom 176 192 5 0 0 0 - - -;
#X obj 66 6 tgl 15 0 empty empty empty 17 7 0 10 -262144 -1 -1 0 1
;
#X text 87 5 start/stop;
#X obj 176 217 tabread notes_\$1;
#X obj 559 231 tabread vol_\$1;
#X obj 536 645 outlet~;
#X obj 278 83 tabwrite notes_\$1;
#X obj 442 82 tabwrite vol_\$1;
#X obj 59 -38 inlet;
#X obj 217 -75 inlet;
#X obj 409 -71 inlet;
#X obj 104 153 spigot;
#X obj 87 116 r bangs\$3;
#X obj 155 -6 inlet;
#X msg 253 134 16;
#X obj 177 168 ys.counter \$3;
#X obj 286 31 ys.counter \$3;
#X obj 448 -1 ys.counter \$3;
#X obj 140 331 tabread modes;
#X obj 144 419 + 48;
#X floatatom 289 132 5 0 0 0 - - -;
#X obj 542 337 * 100;
#X obj 569 365 + 27;
#X obj 289 295 + 2;
#X obj 288 338 tabread modes;
#X obj 284 418 + 48;
#X floatatom 307 258 5 0 0 0 - - -;
#X obj 394 337 tabread modes;
#X obj 400 422 + 48;
#X floatatom 416 254 5 0 0 0 - - -;
#X msg 161 374 36;
#X msg 197 373 48;
#X msg 231 375 60;
#X msg 295 376 36;
#X msg 331 375 48;
#X msg 365 377 60;
#X msg 426 376 36;
#X msg 462 375 48;
#X msg 496 377 60;
#X obj 398 291 + 4;
#N canvas 0 22 450 300 (subpatch) 0;
#X array vol_\$1 16 float 3;
#A 0 0.05 0.75 0.7 0.82 0.16 0.1 0.63 0.09 0.97 0.34 0.51 0.75 0.72
0.51 0.27 0.18;
#X coords 0 1 16 0 200 140 1 0 0;
#X restore 810 -36 graph;
#N canvas 0 22 450 300 (subpatch) 0;
#X array onoff_\$1 16 float 3;
#A 0 0 1 1 0 0 0 1 0 1 1 0 1 0 1 1 0;
#X coords 0 1 15 -1 200 140 1;
#X restore 1016 -34 graph;
#X obj 670 116 metro 5;
#X obj 670 195 sel 0;
#X obj 646 107 tgl 15 0 empty empty empty 17 7 0 10 -262144 -1 -1 0
1;
#X obj 705 137 ys.counter \$3;
#X obj 699 220 tabwrite onoff_\$1;
#X obj 753 168 random 2;
#X obj 905 210 inlet;
#X floatatom 664 400 5 0 0 0 - - -;
#X floatatom 99 376 5 0 0 0 - - -;
#X obj 654 565 pugglesynth;
#X obj 264 515 + 0;
#X msg 260 478 5;
#X msg 298 478 7;
#X obj 398 514 + 0;
#X msg 394 477 5;
#X msg 432 477 7;
#X obj 616 508 + 0;
#X msg 612 471 5;
#X msg 650 471 7;
#X msg 221 458 0;
#X msg 364 450 0;
#X msg 583 455 0;
#X obj 791 393 bng 15 250 50 0 empty empty empty 17 7 0 10 -262144
-1 -1;
#X obj 842 394 bng 15 250 50 0 empty empty empty 17 7 0 10 -262144
-1 -1;
#X obj 884 394 bng 15 250 50 0 empty empty empty 17 7 0 10 -262144
-1 -1;
#X obj 531 570 pugglesynth;
#X obj 431 564 pugglesynth;
#X obj 195 99 bng 15 250 50 0 empty empty empty 17 7 0 10 -262144 -1
-1;
#X floatatom 91 314 5 0 0 0 - - -;
#X connect 0 0 3 0;
#X connect 0 0 28 0;
#X connect 1 0 2 0;
#X connect 2 0 0 0;
#X connect 3 0 18 0;
#X connect 4 0 8 0;
#X connect 4 0 29 0;
#X connect 5 0 6 0;
#X connect 6 0 4 0;
#X connect 7 0 19 0;
#X connect 8 0 7 0;
#X connect 11 0 30 0;
#X connect 11 0 35 0;
#X connect 11 0 51 0;
#X connect 12 0 15 0;
#X connect 12 0 16 0;
#X connect 13 0 23 1;
#X connect 15 0 11 0;
#X connect 16 0 33 0;
#X connect 20 0 13 0;
#X connect 21 0 2 0;
#X connect 22 0 6 0;
#X connect 22 0 56 0;
#X connect 23 0 27 0;
#X connect 24 0 23 0;
#X connect 25 0 27 0;
#X connect 26 0 27 1;
#X connect 27 0 12 0;
#X connect 28 0 1 0;
#X connect 28 0 18 1;
#X connect 29 0 5 0;
#X connect 29 0 19 1;
#X connect 30 0 62 0;
#X connect 30 0 31 0;
#X connect 31 0 64 0;
#X connect 32 0 27 1;
#X connect 33 0 34 0;
#X connect 34 0 61 0;
#X connect 34 0 63 1;
#X connect 34 0 79 1;
#X connect 34 0 80 1;
#X connect 35 0 36 0;
#X connect 36 0 37 0;
#X connect 37 0 67 0;
#X connect 38 0 35 1;
#X connect 39 0 40 0;
#X connect 40 0 70 0;
#X connect 41 0 51 1;
#X connect 42 0 31 1;
#X connect 43 0 31 1;
#X connect 44 0 31 1;
#X connect 45 0 37 1;
#X connect 46 0 37 1;
#X connect 47 0 37 1;
#X connect 48 0 40 1;
#X connect 49 0 40 1;
#X connect 50 0 40 1;
#X connect 51 0 39 0;
#X connect 54 0 57 0;
#X connect 54 0 59 0;
#X connect 55 0 56 0;
#X connect 56 0 54 0;
#X connect 57 0 55 0;
#X connect 57 0 58 1;
#X connect 59 0 58 0;
#X connect 60 0 12 0;
#X connect 63 0 17 0;
#X connect 64 0 80 0;
#X connect 65 0 64 1;
#X connect 66 0 64 1;
#X connect 67 0 79 0;
#X connect 68 0 67 1;
#X connect 69 0 67 1;
#X connect 70 0 63 0;
#X connect 71 0 70 1;
#X connect 72 0 70 1;
#X connect 73 0 64 1;
#X connect 74 0 67 1;
#X connect 75 0 70 1;
#X connect 76 0 75 0;
#X connect 76 0 74 0;
#X connect 76 0 73 0;
#X connect 77 0 65 0;
#X connect 77 0 68 0;
#X connect 77 0 71 0;
#X connect 78 0 72 0;
#X connect 78 0 69 0;
#X connect 78 0 66 0;
#X connect 79 0 17 0;
#X connect 80 0 17 0;
#X connect 81 0 27 0;
#X connect 82 0 31 0;
