#N canvas 1428 133 864 688 10;
#X obj 378 305 line~;
#X msg 371 254 0 \$1;
#X floatatom 372 217 5 0 0 0 - - -;
#X obj 168 473 *~;
#X obj 355 336 *~;
#X obj 144 336 *~;
#X obj 135 370 +~;
#X floatatom 37 245 5 0 0 0 - - -;
#X obj 319 373 lop~ 200;
#X obj 351 177 t f b;
#X msg 390 279 1;
#X obj 233 407 *~;
#X obj 186 662 outlet~;
#X obj 106 126 hsl 128 8 0 127 0 1 dmp2 dmp2r amt 134 5 0 8 -262144
-1 -1 2700 1;
#X obj 167 294 mtof;
#X obj 106 137 hsl 128 8 0 127 0 1 dmp3 dmp3r p 134 4 0 8 -262144 -1
-1 2500 1;
#X obj 37 218 mtof;
#X obj 106 114 hsl 128 8 1.27 800 1 1 dmp1 dmp1r dec 134 5 0 8 -262144
-1 -1 9200 1;
#X obj 134 406 +~;
#X obj 310 183 +;
#X msg 319 154 0;
#X text 416 56 <-trigger/level in;
#X text 404 335 quadratic pitch/amp env;
#X obj 186 545 *~;
#X obj 106 148 hsl 128 8 1 129 1 1 dmp4 dmp4r clp 134 5 0 8 -262144
-1 -1 3800 1;
#X obj 186 575 clip~ -1 1;
#X obj 559 9 tgl 15 0 empty empty empty 17 7 0 10 -262144 -1 -1 0 1
;
#X obj 555 32 metro 600;
#X obj 310 47 inlet;
#X msg 554 56 0.3;
#X floatatom 400 129 5 0 0 0 - - -;
#X floatatom 510 142 5 0 0 0 - - -;
#X obj 579 107 inlet;
#X obj 529 165 * 4;
#X obj 184 612 *~ 0.5;
#X msg 173 372 1;
#X obj 159 437 ys.osc~;
#X connect 0 0 4 1;
#X connect 0 0 4 0;
#X connect 1 0 0 0;
#X connect 2 0 10 0;
#X connect 2 0 1 0;
#X connect 3 0 23 0;
#X connect 4 0 8 0;
#X connect 5 0 6 1;
#X connect 6 0 18 0;
#X connect 7 0 6 0;
#X connect 8 0 5 0;
#X connect 8 0 11 1;
#X connect 9 0 11 0;
#X connect 9 1 2 0;
#X connect 9 1 35 0;
#X connect 10 0 0 0;
#X connect 11 0 3 1;
#X connect 13 0 14 0;
#X connect 14 0 5 1;
#X connect 15 0 16 0;
#X connect 16 0 7 0;
#X connect 17 0 19 1;
#X connect 18 0 36 1;
#X connect 19 0 2 0;
#X connect 20 0 19 0;
#X connect 23 0 25 0;
#X connect 24 0 23 1;
#X connect 25 0 34 0;
#X connect 26 0 27 0;
#X connect 27 0 29 0;
#X connect 28 0 30 0;
#X connect 29 0 30 0;
#X connect 30 0 20 0;
#X connect 30 0 9 0;
#X connect 31 0 33 0;
#X connect 32 0 31 0;
#X connect 33 0 19 1;
#X connect 34 0 12 0;
#X connect 35 0 36 2;
#X connect 36 0 3 0;
