#N canvas 1340 342 1076 766 10;
#X floatatom 254 82 5 0 0 0 - - -;
#X obj 167 422 outlet~;
#X obj 106 17 inlet~;
#X obj 253 56 inlet;
#X obj 450 194 inlet;
#X obj 142 367 *~ 0;
#X obj 97 367 *~ 1;
#X obj 438 227 sel 0 1;
#X msg 400 271 1;
#X msg 440 271 0;
#X msg 481 273 1;
#X msg 524 276 0;
#X obj 128 295 vcf~;
#X obj 186 109 sig~;
#X obj 185 54 inlet~;
#X connect 0 0 12 2;
#X connect 2 0 6 0;
#X connect 2 0 12 0;
#X connect 3 0 0 0;
#X connect 4 0 7 0;
#X connect 5 0 1 0;
#X connect 6 0 1 0;
#X connect 7 0 8 0;
#X connect 7 0 9 0;
#X connect 7 1 10 0;
#X connect 7 1 11 0;
#X connect 8 0 6 1;
#X connect 9 0 5 1;
#X connect 10 0 5 1;
#X connect 11 0 6 1;
#X connect 12 0 5 0;
#X connect 14 0 13 0;
#X connect 14 0 12 1;
