#N canvas 81 22 696 728 10;
#X obj 266 668 outlet~;
#X obj 329 190 inlet;
#X obj 107 126 hsl 128 8 0 127 0 1 dmp11 dmp11r amt 134 5 0 8 -262144
-1 -1 1600 1;
#X text 374 188 <-trigger/level in;
#X obj 46 408 noise~;
#X obj 334 433 line~;
#X msg 271 394 0 43.68;
#X obj 311 464 *~;
#X obj 312 506 lop~ 200;
#X msg 359 399 1;
#X obj 107 115 hsl 128 8 1.27 800 1 1 dmp10 dmp10r dec 134 4 0 8 -262144
-1 -1 11400 1;
#X obj 250 264 +;
#X msg 252 234 0;
#X obj 267 609 *~;
#X obj 67 142 hsl 128 8 0 127 0 1 dmp12 dmp12r cut 134 3 0 8 -262144
-1 -1 11500 1;
#X obj 66 290 mtof;
#X text 348 482 quadratic filter/amp env;
#X obj 107 152 hsl 128 8 0.3 5 0 0 dmp13 dmp13r res 134 3 0 8 -262144
-1 -1 0 1;
#X obj 272 288 *;
#X msg 271 315 set 0 \$1;
#X obj 329 341 t b b;
#X obj 311 213 t f f;
#X obj 325 79 tgl 15 0 empty empty empty 17 7 0 10 -262144 -1 -1 1
1;
#X obj 321 102 metro 600;
#X msg 320 128 0.4;
#X obj 468 55 inlet;
#X obj 243 485 tgl 15 0 empty empty empty 17 7 0 10 -262144 -1 -1 1
1;
#X obj 258 433 loadbang;
#X msg 273 458 1;
#X obj 266 639 *~ 0.1;
#X floatatom 356 252 5 0 0 0 - - -;
#X obj 274 181 r hhmod;
#X obj 180 518 ys.hpfilter2;
#X msg 204 474 1;
#X floatatom 288 239 5 0 0 0 - - -;
#X connect 1 0 21 0;
#X connect 4 0 32 0;
#X connect 5 0 7 1;
#X connect 5 0 7 0;
#X connect 6 0 5 0;
#X connect 7 0 8 0;
#X connect 8 0 13 1;
#X connect 9 0 5 0;
#X connect 10 0 11 1;
#X connect 10 0 30 0;
#X connect 11 0 18 0;
#X connect 12 0 11 0;
#X connect 13 0 29 0;
#X connect 14 0 15 0;
#X connect 15 0 32 1;
#X connect 18 0 19 0;
#X connect 19 0 6 0;
#X connect 19 0 20 0;
#X connect 20 0 6 0;
#X connect 20 1 9 0;
#X connect 21 0 12 0;
#X connect 21 1 18 1;
#X connect 22 0 23 0;
#X connect 23 0 24 0;
#X connect 24 0 21 0;
#X connect 26 0 32 3;
#X connect 27 0 28 0;
#X connect 27 0 33 0;
#X connect 28 0 26 0;
#X connect 29 0 0 0;
#X connect 31 0 11 1;
#X connect 32 0 13 0;
#X connect 33 0 32 2;
#X connect 34 0 11 1;
