#N canvas 722 92 690 558 10;
#X obj 74 85 inlet~;
#X obj 411 190 inlet;
#X obj 202 102 inlet;
#X obj 197 334 dac~;
#X obj 65 392 +~;
#X obj 481 196 inlet;
#X obj 196 402 +~;
#X obj 64 437 delwrite~ \$1_L 500;
#X obj 172 144 delread~ \$1_L 300;
#X obj 191 439 delwrite~ \$1_R 500;
#X obj 303 133 delread~ \$1_R 250;
#X obj 202 222 *~ 0.2;
#X obj 293 235 *~ 0.2;
#X obj 251 101 inlet;
#X connect 0 0 4 0;
#X connect 0 0 6 0;
#X connect 1 0 11 1;
#X connect 2 0 8 0;
#X connect 4 0 7 0;
#X connect 5 0 12 1;
#X connect 6 0 9 0;
#X connect 8 0 11 0;
#X connect 10 0 12 0;
#X connect 11 0 3 0;
#X connect 11 0 4 1;
#X connect 12 0 3 1;
#X connect 12 0 6 1;
#X connect 13 0 10 0;
