#N canvas 1803 461 610 440 10;
#X obj 49 309 outlet~;
#X obj 41 56 inlet;
#X obj 93 54 inlet~;
#X obj 177 54 inlet;
#X obj 36 83 sig~;
#X obj 42 154 osc~;
#X connect 1 0 4 0;
#X connect 2 0 5 0;
#X connect 3 0 5 1;
#X connect 4 0 5 0;
#X connect 5 0 0 0;
