#N canvas 0 22 450 300 10;
#X obj 159 71 tgl 15 0 empty empty empty 17 7 0 10 -262144 -1 -1 0
1;
#X obj 159 91 metro 10;
#X obj 159 113 snapshot~;
#X floatatom 159 135 5 0 0 0 - - -;
#X obj 96 24 loadbang;
#X msg 110 48 1;
#X obj 203 177 outlet;
#X obj 23 39 inlet~;
#X connect 0 0 1 0;
#X connect 1 0 2 0;
#X connect 2 0 3 0;
#X connect 3 0 6 0;
#X connect 4 0 5 0;
#X connect 5 0 0 0;
#X connect 7 0 2 0;
