#N canvas 1417 317 724 770 10;
#X obj 175 657 outlet~;
#X text 118 84 <-trigger/level in;
#X obj 169 468 noise~;
#X obj 298 391 line~;
#X obj 275 422 *~;
#X obj 264 195 t f b;
#X msg 344 343 1;
#X obj 293 45 tgl 15 0 empty empty empty 17 7 0 10 -262144 -1 -1 0
1;
#X obj 289 68 metro 600;
#X obj 76 86 inlet;
#X msg 288 92 0.3;
#X floatatom 145 132 5 0 0 0 - - -;
#X obj 302 140 inlet;
#X obj 194 509 ys.lpfilter2;
#X floatatom 200 419 5 0 0 0 - - -;
#X obj 285 540 *~;
#X obj 274 481 tgl 15 0 empty empty empty 17 7 0 10 -262144 -1 -1 1
1;
#X floatatom 232 441 5 0 0 0 - - -;
#X obj 199 377 mtof;
#X floatatom 189 285 5 0 0 0 - - -;
#X obj 162 216 loadbang;
#X msg 167 249 100;
#X msg 309 455 1;
#X obj 254 226 * 10;
#X obj 198 320 +;
#X msg 291 340 0 100;
#X msg 245 333 2;
#X connect 2 0 13 0;
#X connect 3 0 4 1;
#X connect 3 0 4 0;
#X connect 4 0 15 1;
#X connect 5 0 23 0;
#X connect 5 1 24 0;
#X connect 5 1 6 0;
#X connect 5 1 25 0;
#X connect 6 0 3 0;
#X connect 7 0 8 0;
#X connect 8 0 10 0;
#X connect 9 0 11 0;
#X connect 10 0 11 0;
#X connect 11 0 5 0;
#X connect 13 0 15 0;
#X connect 14 0 13 1;
#X connect 15 0 0 0;
#X connect 16 0 13 3;
#X connect 17 0 13 2;
#X connect 18 0 14 0;
#X connect 19 0 24 0;
#X connect 20 0 21 0;
#X connect 20 0 26 0;
#X connect 20 0 22 0;
#X connect 21 0 19 0;
#X connect 22 0 16 0;
#X connect 23 0 24 1;
#X connect 24 0 18 0;
#X connect 25 0 3 0;
#X connect 26 0 17 0;
